<ttFont>
          <CharString index="0">
            -16 -60 -112 -29 hhcurveto
            -11 -3 12 9 hvcurveto
            3 69 16 65 6 66 rrcurveto
            1 12 -8 callsubr
            26 -12 10 -23 8 vhcurveto
            -4 20 -1 16 -17 15 rrcurveto
            9 -12 -15 9 -15 hhcurveto
            -9 -9 -3 -6 -8 hvcurveto
            -79 -52 -52 -87 -42 -83 rrcurveto
            -8 -16 -4 -19 -18 vvcurveto
            -21 5 -19 12 -19 vhcurveto
            13 -19 2 -24 14 -19 rrcurveto
            -18 12 21 -20 23 hhcurveto
            46 59 111 36 20 hvcurveto
            7 -43 10 -33 25 -36 rrcurveto
            return
          </CharString>
          <CharString index="1">
            257 236 rmoveto
            51 -10 52 -18 48 vhcurveto
            41 -16 -36 29 -45 -32 2 -21 -16 hhcurveto
            -12 -2 -2 -13 -5 hvcurveto
            -24 -69 -25 -89 -74 -19 callgsubr
            -83 65 rmoveto
            -75 -20 -79 -62 -48 vhcurveto
            -1 17 0 16 17 vvcurveto
            70 13 93 27 64 vhcurveto
            8 4 6 9 10 hhcurveto
            24 -1 -74 -18 hvcurveto
            return
          </CharString>
          <CharString index="2">
            -30 -32 -27 -33 -44 vvcurveto
            -4 5 -13 12 26 89 67 13 10 vhcurveto
            12 10 10 16 20 vvcurveto
            7 -14 63 -37 -4 -2 -4 -5 vhcurveto
            -1 -19 -19 -8 -30 -34 rrcurveto
            endchar
          </CharString>
          <CharString index="3">
            351 222 rmoveto
            6 -2 8 -7 vhcurveto
            -23 -44 -80 -18 hhcurveto
            -4 0 6 2 2 1 10 1 9 hvcurveto
            5 44 3 25 6 38 rrcurveto
            3 17 2 17 18 vvcurveto
            36 -8 38 -35 18 vhcurveto
            7 -12 -13 4 -14 -69 -15 -129 -17 hhcurveto
            -5 -1 8 3 hvcurveto
            -2 19 -1 24 21 vvcurveto
            8 -3 45 -14 -20 -6 -126 -13 -1 vhcurveto
            -3 -59 -11 -58 -60 vvcurveto
            -46 18 -49 36 -31 vhcurveto
            -4 5 7 -7 8 hhcurveto
            11 2 17 8 hvcurveto
            9 110 9 107 56 98 rrcurveto
            2 1 4 6 3 hhcurveto
            3 0 -7 -2 -3 -1 -9 -1 -6 hvcurveto
            -7 -49 -10 -50 -9 -49 rrcurveto
            -2 -12 -1 -12 -13 vvcurveto
            -18 3 -17 6 -17 vhcurveto
            11 -30 19 -29 20 -24 rrcurveto
            return
          </CharString>
          <CharString index="4">
            393 165 rmoveto
            87 -25 85 -37 78 vhcurveto
            -7 15 -11 17 -19 1 rrcurveto
            -5 -5 0 -5 hhcurveto
            -6 -11 -3 -7 -12 48 -7 2 -69 hvcurveto
            1 -28 1 -28 -29 vvcurveto
            -56 -5 -59 -25 -51 vhcurveto
            -8 -4 -2 -4 -4 hhcurveto
            -11 0 69 11 39 5 37 4 38 hvcurveto
            1 8 -8 callsubr
            35 -32 -4 -27 -16 -9 -9 -15 -4 vhcurveto
            -16 -63 -18 -62 -36 -56 rrcurveto
            -3 -2 -5 -7 -4 hhcurveto
            -4 0 5 2 1 7 callsubr
            14 71 24 68 14 71 rrcurveto
            return
          </CharString>
          <CharString index="5">
            326 192 rmoveto
            7 2 26 -9 -5 -8 -8 -3 -4 vhcurveto
            -16 -17 -116 -103 -12 hhcurveto
            -5 -1 6 4 9 45 159 6 18 hvcurveto
            6 18 14 -11 44 vvcurveto
            16 0 13 -12 12 vhcurveto
            12 -13 -25 20 -19 -23 -12 -22 -10 hhcurveto
            -6 -2 7 5 -1 hvcurveto
            -4 20 -9 14 -17 10 rrcurveto
            3 -6 -6 4 -7 hhcurveto
            -9 -4 -10 -8 -2 hvcurveto
            -8 -25 -27 -27 -24 vvcurveto
            -15 22 -63 9 -12 vhcurveto
            -6 4 8 -6 8 hhcurveto
            9 7 4 4 5 hvcurveto
            8 7 25 25 7 9 rrcurveto
            return
          </CharString>
          <CharString index="6">
            23 -2 24 -3 23 vhcurveto
            2 -1 10 -4 -5 -8 -13 -4 -2 vhcurveto
            -19 -12 -71 12 callsubr
            hhcurveto
            -8 -1 12 6 4 0 4 1 4 hvcurveto
            return
          </CharString>
          <CharString index="7">
            -22 -57 -73 -22 -9 -1 11 7 6 1 2 callgsubr
            vhcurveto
            14 11 49 57 17 hhcurveto
            7 3 -6 -6 hvcurveto
            return
          </CharString>
          <CharString index="8">
            2 10 1 9 10 vvcurveto
            41 -21 20 -39 8 vhcurveto
            1 -4 -4 1 -5 hhcurveto
            -8 -5 -3 -9 hvcurveto
            -10 5 -10 -10 vvcurveto
            -37 -38 -100 -13 -41 vhcurveto
            8 callsubr
            16 callsubr
            -14 10 -6 13 vhcurveto
            return
          </CharString>
          <CharString index="9">
            -8 -5 -2 -5 -15 90 -131 5 -9 hvcurveto
            2 -5 -1 -3 1 -4 rrcurveto
            1 17 -25 35 30 12 43 35 30 vhcurveto
            27 32 32 26 19 vvcurveto
            8 -25 28 -12 -35 -59 -80 -31 -21 vhcurveto
            return
          </CharString>
          <CharString index="10">
            rmoveto
            16 -7 -9 18 -7 hhcurveto
            -5 -3 -6 -4 -2 hvcurveto
            -100 -181 -157 -247 -65 -197 8 callsubr
            -5 -1 -5 rrcurveto
            -5 15 -93 35 23 -7 20 15 2 vhcurveto
            34 235 223 257 47 149 rrcurveto
            1 3 1 6 3 vvcurveto
            11 -11 9 -3 7 vhcurveto
            return
          </CharString>
          <CharString index="11">
            -60 -55 -57 -157 -27 -77 rrcurveto
            3 49 8 49 49 vvcurveto
            32 -3 50 -31 19 vhcurveto
            11 -18 -22 8 -21 hhcurveto
            -21 -19 -7 -16 -13 hvcurveto
            1 -4 -5 1 -5 hhcurveto
            -11 -6 -5 -9 -5 hvcurveto
            -18 -30 -16 -33 -17 -31 -30 -56 -31 -58 -25 -59 rrcurveto
            -4 -11 -3 -11 -12 vvcurveto
            -33 29 -55 38 21 10 19 17 7 vhcurveto
            31 82 30 76 34 80 rrcurveto
            5 12 4 11 13 vvcurveto
            5 0 5 -2 4 vhcurveto
            9 9 13 9 13 hhcurveto
            14 4 -12 -12 hvcurveto
            -3 0 -3 -4 vvcurveto
            -15 -109 return
          </CharString>
          <CharString index="12">
            385 148 rmoveto
            4 1 14 -7 -5 -8 -8 -4 -3 vhcurveto
            -40 -35 -53 -12 -52 hhcurveto
            -17 -18 2 3 -17 hvcurveto
            6 13 6 14 5 14 26 76 11 80 4 81 1 31 -1 31 2 31 rrcurveto
            6 1 1 5 7 20 -16 -46 23 hhcurveto
            7 6 9 5 4 hvcurveto
            23 29 8 35 36 vvcurveto
            20 -2 19 -2 20 vhcurveto
            -3 22 -7 18 -19 13 -15 9 -14 9 -15 10 rrcurveto
            2 -3 -3 2 -3 hhcurveto
            -2 -1 -2 -2 hvcurveto
            -8 4 -8 -9 -2 0 -2 -2 vvcurveto
            return
          </CharString>
          <CharString index="13">
            16 callsubr
            -4 2 -4 4 vhcurveto
            9 118 81 28 hhcurveto
            17 6 -24 -14 -60 -120 -20 -45 -45 -24 29 43 28 10 30 16 22 hvcurveto
            68 96 80 14 105 31 rrcurveto
            -2 11 14 -4 12 hhcurveto
            8 5 2 10 20 -7 23 -14 15 hvcurveto
            12 -11 -18 21 -18 hhcurveto
            -10 -15 -10 -5 -9 hvcurveto
            return
          </CharString>
          <CharString index="14">
            -10 12 14 -5 16 hhcurveto
            25 22 13 19 15 hvcurveto
            46 62 24 76 77 vvcurveto
            return
          </CharString>
          <CharString index="15">
            rmoveto
            7 -2 6 -8 -9 -18 -8 -3 -9 vhcurveto
            17 106 12 108 10 107 rrcurveto
            1 8 0 8 8 vvcurveto
            22 -17 36 -26 -12 -1 -12 -9 -1 vhcurveto
            -4 -40 -2 -40 -5 -41 -11 -98 -15 -97 -23 -96 -96 -40 -101 -52 -71 -78 rrcurveto
            -9 -10 -3 -11 -13 vvcurveto
            -13 4 -14 4 -13 vhcurveto
            22 -69 27 -72 51 -54 rrcurveto
            -17 15 20 -12 24 hhcurveto
            33 23 22 29 13 hvcurveto
            45 97 29 107 22 104 27 10 return
          </CharString>
          <CharString index="16">
            361 352 rmoveto
            24 -21 33 -26 -11 -6 -8 -9 -4 vhcurveto
            -43 -99 -39 -106 -91 -66 rrcurveto
            -2 -3 -3 -1 -2 hhcurveto
            -5 -3 4 5 hvcurveto
            18 87 159 49 vvcurveto
            24 -23 33 -17 14 vhcurveto
            return
          </CharString>
          <CharString index="17">
            551 695 rmoveto
            10 -6 6 -10 -4 -3 -1 -1 -4 vhcurveto
            -23 -68 -66 -15 -72 -6 -6 0 -7 hhcurveto
            -4 6 -4 6 -5 7 -8 -18 rcurveline
            2 -22 -22 1 -22 hhcurveto
            -88 -101 -16 -60 -68 hvcurveto
            -8 -7 -7 -8 -12 vvcurveto
            -5 1 -4 1 -5 vhcurveto
            -32 7 -12 -39 48 hhcurveto
            7 8 1 2 7 hvcurveto
            21 81 0 60 93 hhcurveto
            17 18 -3 -2 17 hvcurveto
            -41 -114 -19 -120 -121 -26 3 -26 -27 vvcurveto
            -1 0 -7 -3 vhcurveto
            -8 -12 32 -14 hhcurveto
            -7 -1 -10 -5 -13 4 -12 6 -11 hvcurveto
            -35 17 33 -67 46 hhcurveto
            17 13 10 19 3 0 3 -1 4 hvcurveto
            -7 32 -10 33 33 vvcurveto
            5 0 3 1 10 vhcurveto
            12 132 1 146 33 127 93 -1 79 26 65 71 rrcurveto
            9 9 9 14 13 vvcurveto
            return
          </CharString>
          <CharString index="18">
            8 29 16 79 28 vvcurveto
            15 -2 20 -12 11 vhcurveto
            11 -13 -19 12 -18 hhcurveto
            -12 -9 -4 -8 -9 hvcurveto
            -80 -65 -52 -119 -102 vvcurveto
            -60 34 -118 75 91 54 108 76 vhcurveto
            return
          </CharString>
          <CharString index="19">
            -12 -90 -20 -92 -91 -82 callgsubr
            return
          </CharString>
          <CharString index="20">
            10 -11 -13 5 -14 -28 -28 -19 -32 hhcurveto
            -10 -17 4 -17 -9 16 -48 5 -10 hvcurveto
            -13 6 10 -5 14 hhcurveto
            14 13 5 2 14 hvcurveto
            return
          </CharString>
          <CharString index="21">
            31 13 9 19 -2 17 -1 22 -19 18 -10 -2 -7 -1 -6 -14 -1 -7 -45 -28 -71 -35 -25 -14 -5 -3 -4 -5 -4 -8 rrcurveto
            -3 -7 -14 -33 -6 vvcurveto
            1 -13 53 -19 20 -13 44 -30 47 -52 25 3 21 4 20 55 -1 15 -1 7 -4 8 -11 2 -48 9 -33 43 -45 14 41 17 39 20 9 4 rrcurveto
            return
          </CharString>
          <CharString index="22">
            -17 13 10 -22 24 hhcurveto
            17 14 12 15 8 hvcurveto
            13 24 18 45 27 vvcurveto
            return
          </CharString>
          <CharString index="23">
            rmoveto
            2 0 9 -6 -6 -7 -14 -7 -4 vhcurveto
            -16 -28 -32 -37 -33 -41 rrcurveto
            -4 -4 -3 -2 -4 hhcurveto
            -9 -5 14 15 171 31 166 27 168 hvcurveto
            return
          </CharString>
          <CharString index="24">
            42 17 -39 25 hhcurveto
            17 9 14 16 hvcurveto
            17 -1 18 18 vvcurveto
            172 29 168 27 169 vhcurveto
            1 5 1 7 5 vvcurveto
            7 -1 6 -7 4 vhcurveto
            return
          </CharString>
          <CharString index="25">
            rmoveto
            -45 14 52 -42 29 hhcurveto
            81 50 36 49 11 hvcurveto
            13 -10 39 -12 vhcurveto
            return
          </CharString>
          <CharString index="26">
            -46 -13 -42 -25 -29 23 -24 29 37 22 30 32 6 -8 callgsubr
            -161 1 rmoveto
            return
          </CharString>
          <CharString index="27">
            132 rmoveto
            -105 callgsubr
            return
          </CharString>
          <CharString index="28">
            41 21 vvcurveto
            -160 -165 rmoveto
            -16 -50 -20 -52 -29 -44 rrcurveto
            -11 -7 -11 -11 -15 hhcurveto
            -17 -51 24 20 32 114 69 29 13 hvcurveto
            7 4 8 3 8 3 rrcurveto
            return
          </CharString>
          <CharString index="29">
            -16 15 19 -10 23 hhcurveto
            18 44 8 24 4 -1 5 -1 4 hvcurveto
            -3 10 3 10 -2 10 -5 21 -6 -2 -18 2 -38 5 -45 26 -27 27 rrcurveto
            -2 2 -3 21 callgsubr
            5 4 2 3 2 vhcurveto
            69 34 80 30 92 vvcurveto
            return
          </CharString>
          <CharString index="30">
            rmoveto
            -18 -40 -3 -8 0 0 -1 0 hvcurveto
            -63 -25 -31 -38 -51 vvcurveto
            -41 29 -89 89 107 28 106 39 63 -48 48 -53 vhcurveto
            -37 -65 rmoveto
            34 -12 34 -7 -32 vvcurveto
            -30 -23 -33 -44 -25 -26 11 44 36 29 23 21 vhcurveto
            endchar
          </CharString>
          <CharString index="31">
            -16 -31 -67 -139 -27 vvcurveto
            -14 7 -13 8 -11 vhcurveto
            13 -17 9 -20 14 -15 rrcurveto
            -6 5 7 -5 8 hhcurveto
            12 6 10 9 4 hvcurveto
            16 38 31 130 40 vvcurveto
            19 -4 17 -4 18 vhcurveto
            -1 4 -1 21 callgsubr
            17 24 39 18 19 -4 -52 -13 -72 -11 -71 -11 -70 vhcurveto
            -10 -59 -10 -59 -9 -59 -4 -28 -3 -28 -4 -28 rrcurveto
            -6 -1 -2 -11 -8 -18 -4 42 -23 hhcurveto
            -21 -16 -44 -16 -13 7 -10 8 -9 hvcurveto
            return
          </CharString>
          <CharString index="32">
            30 36 -59 51 hhcurveto
            35 38 29 46 17 -12 36 -24 hvcurveto
            -20 -2 -49 -33 hhcurveto
            endchar
          </CharString>
          <CharString index="33">
            -17 32 -22 -36 vvcurveto
            -6 0 -5 -1 -5 vhcurveto
            return
          </CharString>
          <CharString index="34">
            -5 -12 -3 -12 -13 vvcurveto
            -30 38 -53 31 29 26 23 29 vhcurveto
            6 -2 6 6 vvcurveto
            10 2 5 1 10 vhcurveto
            4 31 4 32 6 31 28 172 49 170 90 150 -28 -143 -32 -143 -22 -144 rrcurveto
            -4 -22 -2 -21 -22 vvcurveto
            -36 7 -41 26 -28 vhcurveto
            6 -6 9 -6 8 -6 rrcurveto
            -5 6 5 -3 9 hhcurveto
            21 17 20 15 11 hvcurveto
            46 63 16 122 75 vvcurveto
            return
          </CharString>
          <CharString index="35">
            -8 7 8 -6 10 hhcurveto
            45 47 122 37 5 hvcurveto
            4 27 1 28 28 vvcurveto
            return
          </CharString>
          <CharString index="36">
            -24 -44 -32 -20 -5 -4 2 -5 hhcurveto
            -7 -3 -5 -7 -26 4 -76 37 19 21 16 9 16 hvcurveto
            return
          </CharString>
          <CharString index="37">
            -12 10 13 -14 17 hhcurveto
            16 18 14 9 12 hvcurveto
            29 21 1 16 34 vvcurveto
            9 0 37 -15 vhcurveto
            -8 -5 -10 -12 hhcurveto
            -13 -8 14 10 -4 hvcurveto
            -17 36 -14 37 -16 37 -16 35 -23 30 -38 10 -9 2 -9 0 -9 2 rrcurveto
            -5 2 -2 5 4 vvcurveto
            2 1 2 1 1 vhcurveto
            99 105 89 114 59 133 rrcurveto
            3 5 3 6 6 vvcurveto
            return
          </CharString>
          <CharString index="38">
            10 -6 -19 36 -12 hhcurveto
            -9 -3 -21 -7 -1 hvcurveto
            -18 -139 -24 -139 -14 -140 -5 -48 -13 -47 -23 -43 rrcurveto
            return
          </CharString>
          <CharString index="39">
            257 rmoveto
            -44 -15 -13 -23 3 -21 2 -26 27 -50 14 2 10 1 8 17 2 9 64 34 122 44 36 17 7 3 6 7 5 9 rrcurveto
            5 9 20 40 7 vvcurveto
            -2 15 -76 23 -28 16 -63 36 -67 63 -36 -4 -30 -4 -15 -36 2 -18 1 -8 7 -6 15 -6 67 -28 34 -38 65 -17 -59 -21 -75 -26 -14 -5 rrcurveto
            return
          </CharString>
          <CharString index="40">
            -83 callgsubr
            -31 callsubr
            -48 callgsubr
          </CharString>
          <CharString index="41">
            -21 callsubr
            vvcurveto
            return
          </CharString>
          <CharString index="42">
            389 185 rmoveto
            3 -1 5 -5 vhcurveto
            -13 -16 -47 -26 hhcurveto
            -11 -4 14 13 159 13 153 15 153 hvcurveto
            2 11 1 11 12 vvcurveto
            20 -8 39 -27 -17 -4 -23 -12 -1 vhcurveto
            -12 -92 -14 -93 -11 -93 rrcurveto
            12 -16 -13 9 -21 hhcurveto
            -62 -77 -118 -50 -25 hvcurveto
            -14 -27 -7 -29 -31 vvcurveto
            -21 3 -21 6 -20 vhcurveto
            return
          </CharString>
          <CharString index="43">
            -41 -163 -71 -140 -173 vvcurveto
            -23 2 -23 2 -23 vhcurveto
            2 -24 -5 -14 19 -20 rrcurveto
            -9 8 11 -13 13 hhcurveto
            19 24 21 20 2 0 3 -1 3 hvcurveto
            -3 20 -2 20 21 vvcurveto
            42 6 43 9 42 vhcurveto
            -1 31 -8 35 27 hhcurveto
            14 10 -14 -12 5 hvcurveto
            39 -81 3 -79 61 -74 rrcurveto
            return
          </CharString>
          <CharString index="44">
            vhcurveto
            35 81 37 6 72 38 rrcurveto
            -3 -9 -7 -22 -8 vvcurveto
            -4 1 -4 5 3 2 1 1 3 vhcurveto
            return
          </CharString>
          <CharString index="45">
            3 vvcurveto
            13 -7 10 -3 7 vhcurveto
            129 -477 rmoveto
            71 -27 114 -93 -32 -21 -39 -24 -12 vhcurveto
            -12 -2 -1 -11 -5 hvcurveto
            -24 -58 -7 -30 -62 vvcurveto
            -65 28 -102 77 87 43 141 66 vhcurveto
            -82 44 rmoveto
            -63 -30 -85 -30 -12 -4 21 21 29 17 154 36 24 -1 -62 -15 vhcurveto
            return
          </CharString>
          <CharString index="46">
            423 158 rmoveto
            7 0 26 -10 vhcurveto
            return
          </CharString>
          <CharString index="47">
            -31 -46 -43 -58 hhcurveto
            -10 6 -4 10 12 vvcurveto
            return
          </CharString>
          <CharString index="48">
            16 -33 36 -11 13 vhcurveto
            12 -11 -12 6 -16 hhcurveto
            -7 -8 -2 -2 -7 hvcurveto
            -110 -40 -162 -71 -138 vvcurveto
            -66 28 -67 59 -33 vhcurveto
            39 -22 64 -21 33 -25 rrcurveto
            6 -5 7 -6 -9 vvcurveto
            -13 -14 -8 -11 -6 vhcurveto
            14 -15 -33 19 -22 hhcurveto
            -62 -91 -8 -40 -53 hvcurveto
            return
          </CharString>
          <CharString index="49">
            572 693 rmoveto
            8 -6 4 -6 5 vhcurveto
            8 -11 -15 19 -14 hhcurveto
            -12 -3 -15 -10 hvcurveto
            -52 -86 -89 -155 -71 -68 rrcurveto
            14 45 38 105 43 vvcurveto
            32 -12 36 -30 16 vhcurveto
            9 -17 -20 7 -20 hhcurveto
            -16 -15 -5 -9 -13 hvcurveto
            -72 -49 -65 -66 -52 -69 rrcurveto
            return
          </CharString>
          <CharString index="50">
            14 -61 -1 -11 -56 -59 -11 -21 -52 vhcurveto
            -18 -7 -1 -21 -2 -16 rrcurveto
            -2 -11 -1 -11 -11 vvcurveto
            -23 9 -14 21 -12 vhcurveto
            -27 47 54 -15 54 hhcurveto
            29 29 4 8 28 hvcurveto
            64 17 16 73 9 57 rrcurveto
            3 16 1 17 16 vvcurveto
            80 -25 75 -14 78 vhcurveto
            return
          </CharString>
          <CharString index="51">
            -19 11 -21 14 24 vvcurveto
            12 5 11 5 10 vhcurveto
            32 63 63 43 65 23 rrcurveto
            1 3 3 1 2 hhcurveto
            3 2 -1 -4 hvcurveto
            -11 -27 -32 -27 vvcurveto
            -7 1 -9 9 7 8 7 5 6 vhcurveto
            34 29 46 44 30 34 rrcurveto
            6 7 4 4 8 vvcurveto
            return
          </CharString>
          <CharString index="52">
            48 -10 46 -14 46 vhcurveto
            -29 -119 -63 -133 -91 -85 rrcurveto
            -17 54 -5 59 56 vvcurveto
            115 23 126 40 108 vhcurveto
            7 19 7 23 11 17 rrcurveto
            8 5 7 2 9 hhcurveto
            5 -57 11 -62 25 -52 rrcurveto
            -5 3 4 -11 8 hhcurveto
            return
          </CharString>
          <CharString index="53">
            -4 5 -13 12 26 72 57 13 10 vhcurveto
            12 10 10 16 20 vvcurveto
            7 -13 63 -38 -16 2 -32 -28 -25 vhcurveto
            endchar
          </CharString>
          <CharString index="54">
            -37 -14 -44 -19 hvcurveto
            4 -10 -28 14 -9 hhcurveto
            -13 -7 -13 -10 -5 hvcurveto
            -57 -119 -39 -138 -133 vvcurveto
            -48 5 -49 10 -48 vhcurveto
            11 -53 41 -33 44 -27 rrcurveto
            -10 17 18 -8 19 hhcurveto
            35 24 22 27 18 hvcurveto
            return
          </CharString>
          <CharString index="55">
            -47 1 -92 -79 -64 -16 89 -47 hhcurveto
            endchar
          </CharString>
          <CharString index="56">
            28 -9 -23 12 -16 hhcurveto
            -36 -11 -29 -27 return
          </CharString>
          <CharString index="57">
            -13 hhcurveto
            -4 -1 return
          </CharString>
          <CharString index="58">
            30 130 rrcurveto
            4 16 2 16 17 vvcurveto
            73 -41 -1 -56 18 vhcurveto
            1 -3 -4 1 -4 hhcurveto
            -10 -9 -4 -3 -10 hvcurveto
            -14 11 -39 -69 -41 -65 -53 -59 rlinecurve
            -11 -12 -6 -12 -16 vvcurveto
            -27 16 -52 33 19 return
          </CharString>
          <CharString index="59">
            3 163 97 hstemhm
            144 163 rmoveto
            59 1 108 6 41 vvcurveto
            33 -33 16 -25 vhcurveto
            hintmask 10000000
            -39 -29 -13 -3 -39 hvcurveto
            -70 31 5 -53 hhcurveto
            -12 -3 -10 -8 -57 67 -11 38 hvcurveto
            endchar
          </CharString>
          <CharString index="60">
            -13 -8 -14 -19 -57 27 -1 33 77 71 30 90 hvcurveto
            return
          </CharString>
          <CharString index="61">
            19 -3 23 -10 17 vhcurveto
            3 -2 -4 8 -5 hhcurveto
            -6 0 -17 -3 hvcurveto
            -4 -51 -24 -48 -36 -37 rrcurveto
            -3 -3 -3 -2 -5 hhcurveto
            -10 -3 11 7 -2 hvcurveto
            -10 47 -3 77 48 vvcurveto
            119 return
          </CharString>
          <CharString index="62">
            -9 12 14 -5 15 hhcurveto
            81 11 125 58 hvcurveto
            return
          </CharString>
          <CharString index="63">
            -79 callsubr
            endchar
          </CharString>
          <CharString index="64">
            rrcurveto
            2 9 1 10 9 vvcurveto
            41 -29 77 -41 15 vhcurveto
            4 -13 -14 3 -15 hhcurveto
            -12 -13 -2 -8 -10 hvcurveto
            -61 -44 -60 -48 -53 -53 rrcurveto
            -10 -11 -6 -13 -15 vvcurveto
            -23 return
          </CharString>
          <CharString index="65">
            -47 13 40 -102 58 hhcurveto
            70 36 155 53 15 hvcurveto
            6 -20 9 -19 10 -19 rrcurveto
            return
          </CharString>
          <CharString index="66">
            32 -330 -21 219 140 314 87 -87 117 return
          </CharString>
          <CharString index="67">
            2 8 1 9 9 vvcurveto
            33 -22 67 -42 vhcurveto
            return
          </CharString>
          <CharString index="68">
            124 -106 208 -194 92 return
          </CharString>
          <CharString index="69">
            35 -509 rmoveto
            23 -2 24 -3 23 vhcurveto
            2 -2 10 -3 -5 -6 -11 -6 -4 vhcurveto
            -19 -12 -71 12 callsubr
            hhcurveto
            -8 -1 10 6 4 0 1 1 9 hvcurveto
            return
          </CharString>
          <CharString index="70">
            rmoveto
            39 18 39 38 57 -32 21 -22 -38 -15 -42 -39 -46 20 -28 30 hvcurveto
            endchar
          </CharString>
          <CharString index="71">
            -8 -11 -5 -9 -13 vvcurveto
            -20 13 -51 25 8 8 4 4 7 vhcurveto
            61 39 88 81 79 vvcurveto
            19 -4 19 28 13 5 -8 -12 -5 -1 -5 -1 -4 vhcurveto
            return
          </CharString>
          <CharString index="72">
            -4 7 8 -5 9 hhcurveto
            19 2 23 14 hvcurveto
            29 -1 29 29 vvcurveto
            53 6 51 7 52 vhcurveto
            32 15 rlineto
            50 -24 0 -26 -53 -17 -2 -18 -18 vvcurveto
            return
          </CharString>
          <CharString index="73">
            -5 -5 -7 -6 -8 hhcurveto
            -19 -4 22 15 80 48 92 71 40 hvcurveto
            5 8 return
          </CharString>
          <CharString index="74">
            -72 10 -21 404 64 return
          </CharString>
          <CharString index="75">
            18 -2 rrcurveto
            -5 -35 -6 -37 -35 vvcurveto
            -24 8 -19 11 -20 vhcurveto
            -17 10 12 -40 24 hhcurveto
            21 13 30 18 hvcurveto
            22 -10 21 25 vvcurveto
            38 return
          </CharString>
          <CharString index="76">
            -14 12 -14 0 vhcurveto
            return
          </CharString>
          <CharString index="77">
            11 11 vvcurveto
            10 -3 11 -13 -23 -47 -22 -13 -19 vhcurveto
            -7 -4 -4 -4 -9 -10 7 -9 -11 vvcurveto
            -10 -3 -10 -3 -10 vhcurveto
            -31 -95 return
          </CharString>
          <CharString index="78">
            rrcurveto
            3 10 3 9 11 vvcurveto
            18 -8 15 -10 15 vhcurveto
            14 -10 -24 39 -20 hhcurveto
            -3 -3 0 -2 -3 hvcurveto
            -1 24 -1 23 23 vvcurveto
            return
          </CharString>
          <CharString index="79">
            -83 28 -80 -84 vvcurveto
            -63 -10 -83 -79 -5 vhcurveto
            -20 -1 -20 -5 -20 -3 22 27 35 11 30 15 rrcurveto
            5 3 11 6 7 vvcurveto
            return
          </CharString>
          <CharString index="80">
            110 -110 158 -138 -21 return
          </CharString>
          <CharString index="81">
            29 -9 -23 9 -17 hhcurveto
            return
          </CharString>
          <CharString index="82">
            8 -23 vhcurveto
            -14 4 10 -16 17 hhcurveto
            8 6 3 5 6 hvcurveto
            52 39 47 55 40 51 rrcurveto
            1 2 0 1 2 18 return
          </CharString>
          <CharString index="83">
            1 8 1 7 8 vvcurveto
            51 -56 27 -45 -30 -25 -1 -36 vhcurveto
            return
          </CharString>
          <CharString index="84">
            3 -8 -20 12 -6 hhcurveto
            -8 -5 -7 -5 -4 hvcurveto
            -85 -125 -71 -173 -153 vvcurveto
            -47 6 -47 13 -45 vhcurveto
            return
          </CharString>
          <CharString index="85">
            -25 -16 -60 -28 -3 1 -2 -2 vvcurveto
            endchar
          </CharString>
          <CharString index="86">
            10 82 18 81 4 82 1 6 rcurveline
            -86 callgsubr
            return
          </CharString>
          <CharString index="87">
            -10 callsubr
            -57 107 return
          </CharString>
          <CharString index="88">
            -44 vvcurveto
            -42 14 -27 31 -29 vhcurveto
            -5 6 7 -6 8 hhcurveto
            20 5 38 15 5 0 5 -1 5 hvcurveto
            return
          </CharString>
          <CharString index="89">
            -265 185 return
          </CharString>
          <CharString index="90">
            -27 1 -129 -4 37 vvcurveto
            7 3 return
          </CharString>
          <CharString index="91">
            -12 -9 -15 -15 -16 vvcurveto
            -15 13 -13 11 -8 vhcurveto
            -9 -12 -5 -14 -14 vvcurveto
            -43 27 -21 43 return
          </CharString>
          <CharString index="92">
            -83 124 8 10 -30 vhcurveto
            return
          </CharString>
          <CharString index="93">
            81 -81 86 9 -20 hstemhm
            return
          </CharString>
          <CharString index="94">
            -24 37 hhcurveto
            47 25 50 38 11 hvcurveto
            22 78 16 79 20 78 11 -81 5 -83 17 -80 return
          </CharString>
          <CharString index="95">
            rmoveto
            -19 -4 -19 -2 -19 -2 17 92 15 92 17 92 2 -89 2 -90 4 -89 rrcurveto
            return
          </CharString>
          <CharString index="96">
            rmoveto
            8 -3 -13 10 -13 hhcurveto
            -24 -39 -65 -48 -40 37 -30 39 19 8 10 9 hvcurveto
            return
          </CharString>
          <CharString index="97">
            hstemhm
            -2 193 -164 164 return
          </CharString>
          <CharString index="98">
            191 7 -20 hstemhm
            return
          </CharString>
          <CharString index="99">
            -35 callgsubr
            vvcurveto
            return
          </CharString>
          <CharString index="100">
            1 -9 4 -11 5 -11 rrcurveto
            -12 7 59 -71 11 hhcurveto
            6 0 6 4 hvcurveto
            -6 return
          </CharString>
          <CharString index="101">
            7 2 -2 -1 8 3 26 9 21 27 22 16 rrcurveto
            5 4 7 5 7 vvcurveto
            return
          </CharString>
          <CharString index="102">
            -37 -15 -34 -34 -62 35 -25 24 34 13 34 36 48 -22 37 -32 hvcurveto
            endchar
          </CharString>
          <CharString index="103">
            hhcurveto
            76 107 16 64 49 hvcurveto
            -25 callgsubr
            return
          </CharString>
          <CharString index="104">
            -242 94 -94 137 return
          </CharString>
          <CharString index="105">
            460 544 rmoveto
            110 -122 59 -96 -60 -62 -16 -18 -57 vhcurveto
            return
          </CharString>
          <CharString index="106">
            194 endchar
          </CharString>
          <CharString index="107">
            -33 -18 -13 -38 -37 vvcurveto
            -21 7 -22 26 27 22 22 21 16 vhcurveto
            return
          </CharString>
          <CharString index="108">
            hstemhm
            5 173 return
          </CharString>
          <CharString index="109">
            -23 -2 -127 34 16 16 18 16 8 -2 7 -1 8 vhcurveto
            return
          </CharString>
          <CharString index="110">
            117 147 93 393 -20 hstemhm
            -30 31 372 156 return
          </CharString>
          <CharString index="111">
            84 -10 20 -23 -12 -53 -6 -14 vhcurveto
            -12 9 -19 -9 vvcurveto
            return
          </CharString>
          <CharString index="112">
            -6 hhcurveto
            -6 -3 -3 -6 -7 3 return
          </CharString>
          <CharString index="113">
            hstemhm
            15 51 -51 226 return
          </CharString>
          <CharString index="114">
            -35 callgsubr
            6 hvcurveto
            return
          </CharString>
          <CharString index="115">
            -2 -6 -2 return
          </CharString>
          <CharString index="116">
            -16 8 6 -7 5 hhcurveto
            14 6 45 42 173 15 return
          </CharString>
          <CharString index="117">
            rrcurveto
            2 7 1 6 6 vvcurveto
            12 -4 10 -3 8 vhcurveto
            return
          </CharString>
          <CharString index="118">
            vvcurveto
            -3 1 -15 -7 vhcurveto
            -13 -49 70 -15 hhcurveto
            -6 -1 return
          </CharString>
          <CharString index="119">
            -109 -18 return
          </CharString>
          <CharString index="120">
            -18 12 21 -20 23 hhcurveto
            33 41 59 46 27 hvcurveto
            return
          </CharString>
          <CharString index="121">
            -17 -21 -2 1 -26 23 hvcurveto
            return
          </CharString>
          <CharString index="122">
            30 12 123 51 34 vvcurveto
            return
          </CharString>
          <CharString index="123">
            -7 -7 vvcurveto
            return
          </CharString>
          <CharString index="124">
            -17 -7 7 -49 20 2 1 1 1 2 hvcurveto
            return
          </CharString>
          <CharString index="125">
            -21 vvcurveto
            -5 1 -5 1 -6 vhcurveto
            -54 12 4 return
          </CharString>
          <CharString index="126">
            125 -107 208 -194 93 -52 118 return
          </CharString>
          <CharString index="127">
            79 -79 171 hstemhm
            return
          </CharString>
          <CharString index="128">
            vvcurveto
            -16 3 return
          </CharString>
          <CharString index="129">
            7 -3 8 -8 -6 -5 -3 -4 -5 vhcurveto
            return
          </CharString>
        <CharString name=".notdef">
          653 endchar
        </CharString>
        <CharString name="A">
          254 -57 -21 22 3 callsubr
          -75 54 -54 147 hintmask 11111001
          601 354 rmoveto
          22 callsubr
          hintmask 11111010
          10 callgsubr
          hintmask 11111100
          -24 callsubr
          -9 0 -8 -9 vvcurveto
          -95 -21 -93 -17 -93 vhcurveto
          -4 -17 -3 -17 -4 -17 rrcurveto
          -33 -30 2 -30 hhcurveto
          -73 -72 -19 -54 callgsubr
          48 60 68 20 hvcurveto
          12 45 11 46 10 46 rrcurveto
          hintmask 11111010
          14 callgsubr
          rrcurveto
          -42 3 2 -110 61 hhcurveto
          14 7 7 14 3 hvcurveto
          7 38 10 29 14 36 -29 callsubr
          hintmask 11111001
          30 19 63 51 39 vvcurveto
          -151 -45 -12 callsubr
          -149 -101 -43 callgsubr
          7 15 3 vhcurveto
          15 64 66 2 65 hhcurveto
          endchar
        </CharString>
        <CharString name="AE">
          526 -56 117 -97 70 118 55 1 82 420 -20 hstemhm
          -30 31 372 156 -118 84 -53 66 -66 124 163 119 hintmask 1011111000100000
          873 640 rmoveto
          -79 callgsubr
          -61 -38 -67 -32 -55 -48 -17 -14 -13 -17 -8 -20 2 21 2 20 3 21 rrcurveto
          -24 callsubr
          -26 vlineto
          -95 -19 -93 -19 -93 vhcurveto
          -4 -17 -3 -28 -4 -17 rrcurveto
          -3 hlineto
          -30 -30 2 -30 hhcurveto
          -73 -72 -8 -54 callgsubr
          49 60 68 19 hvcurveto
          13 45 10 46 10 46 rrcurveto
          19 19 1 3 18 hvcurveto
          hintmask 0111110100100000
          -10 -26 -9 -27 -28 vvcurveto
          -31 11 -29 17 -26 vhcurveto
          -58 36 55 -24 66 -4 callsubr
          -69 -42 -65 -34 vhcurveto
          -3 -7 -4 -94 callsubr
          hintmask 1011110001100000
          -17 callsubr
          7 3 6 -30 callgsubr
          -572 -432 -43 callgsubr
          6 15 3 vhcurveto
          15 64 66 3 65 hhcurveto
          213 90 rmoveto
          -19 -4 -19 -2 -19 -2 17 92 15 103 17 92 2 -89 2 -101 4 -89 rrcurveto
          hintmask 1011110010100000
          58 26 rmoveto
          1 45 2 46 3 45 10 -48 35 -31 50 -16 -36 -13 -35 -14 -29 -21 rrcurveto
          -1 2 0 3 2 vvcurveto
          endchar
        </CharString>
        <CharString name="AEacute">
          526 411 250 225 -1 callsubr
        </CharString>
        <CharString name="Aacute">
          254 269 237 65 -1 callsubr
        </CharString>
        <CharString name="Abreve">
          254 207 237 65 198 endchar
        </CharString>
        <CharString name="Acircumflex">
          254 218 237 65 9 callgsubr
        </CharString>
        <CharString name="Adieresis">
          254 221 237 65 200 endchar
        </CharString>
        <CharString name="Agrave">
          254 186 237 65 193 endchar
        </CharString>
        <CharString name="Amacron">
          254 217 237 65 197 endchar
        </CharString>
        <CharString name="Aogonek">
          254 -3 callsubr
          49 3 callsubr
          -79 58 -58 151 hintmask 0111111000000000
          424 -155 -82 callsubr
          hintmask 1011110100000000
          -60 callsubr
          13 4 15 6 16 vhcurveto
          16 41 44 41 25 40 -29 callsubr
          hintmask 1011110010000000
          30 19 63 51 39 vvcurveto
          22 callsubr
          hintmask 1011110100000000
          10 callgsubr
          hintmask 1011111000000000
          -24 callsubr
          -26 vlineto
          -95 -21 -93 -17 -93 vhcurveto
          -4 -17 -3 -17 -4 -17 rrcurveto
          -3 hlineto
          -30 -30 2 -30 hhcurveto
          -73 -72 -19 -54 callgsubr
          48 60 68 20 hvcurveto
          12 45 11 46 10 46 14 callgsubr
          1 -17 4 -43 11 -3 rrcurveto
          -25 -30 -34 -73 -41 -36 callgsubr
          -123 363 -43 callgsubr
          6 15 3 vhcurveto
          15 64 66 3 65 hhcurveto
          hintmask 1011110010000000
          213 101 -12 callsubr
          endchar
        </CharString>
        <CharString name="Aring">
          254 223 237 65 202 endchar
        </CharString>
        <CharString name="Atilde">
          254 212 237 65 196 endchar
        </CharString>
        <CharString name="B">
          131 -48 93 547 110 hstemhm
          131 52 -52 65 -38 55 121 90 hintmask 11001100
          463 122 rmoveto
          14 -2 13 -4 13 vhcurveto
          -25 93 -87 44 -85 26 46 32 44 35 38 41 rrcurveto
          23 24 13 28 33 vvcurveto
          34 -13 33 -17 29 vhcurveto
          67 -40 -80 21 -73 hhcurveto
          -66 -67 -13 -25 -61 hvcurveto
          1 -2 -2 1 -2 hhcurveto
          -11 1 -17 -8 -18 0 -19 3 -18 hvcurveto
          -11 1 5 -11 13 hhcurveto
          6 6 3 3 6 hvcurveto
          25 11 15 4 33 4 rrcurveto
          3 24 23 0 23 hhcurveto
          -7 -67 -4 -67 -5 -67 -21 -14 -6 -17 -3 -24 rrcurveto
          -2 -19 -6 -18 -19 vvcurveto
          -13 10 -11 13 -1 vhcurveto
          hintmask 11100100
          -7 -51 -5 -50 -52 vvcurveto
          -22 1 -22 2 -22 vhcurveto
          -6 -12 -6 -14 -13 vvcurveto
          -32 34 -13 27 22 23 4 5 22 vhcurveto
          84 17 129 37 107 vvcurveto
          -129 423 rmoveto
          -22 -99 -77 -21 -16 vhcurveto
          hintmask 11001100
          -1 9 0 10 9 vvcurveto
          23 2 22 3 23 vhcurveto
          2 0 21 callgsubr
          29 -6 15 -25 14 vhcurveto
          36 46 -2 -16 32 hvcurveto
          11 -5 22 -10 -14 vvcurveto
          57 -409 rmoveto
          -13 -7 -11 -14 -8 vhcurveto
          -23 -38 -64 -36 -45 hhcurveto
          hintmask 11010100
          -18 -9 10 18 42 21 14 36 13 hvcurveto
          4 1 11 4 6 vvcurveto
          5 -7 0 -3 vhcurveto
          hintmask 11100100
          -27 -37 -29 -28 -11 hvcurveto
          1 51 8 51 9 51 rrcurveto
          2 4 5 1 5 hhcurveto
          6 5 -2 -2 6 hvcurveto
          54 -16 55 -22 35 -45 rrcurveto
          8 -10 7 -12 -12 vvcurveto
          endchar
        </CharString>
        <CharString name="C">
          37 -12 -21 758 -20 hstem
          30 100 vstem
          359 224 rmoveto
          -55 callsubr
          7 5 10 8 4 hvcurveto
          16 33 17 58 42 vvcurveto
          69 -20 52 -68 23 vhcurveto
          2 -6 -4 1 5 callsubr
          -8 3 -6 hvcurveto
          -10 0 -10 -10 vvcurveto
          -23 callsubr
          14 -50 32 -37 50 -15 rrcurveto
          -6 18 19 -3 19 11 callgsubr
          endchar
        </CharString>
        <CharString name="Cacute">
          37 85 268 67 -1 callsubr
        </CharString>
        <CharString name="Ccaron">
          37 30 268 67 207 endchar
        </CharString>
        <CharString name="Ccedilla">
          37 -289 83 0 173 758 -20 hstemhm
          30 100 -32 70 72 66 -66 104 hintmask 10110100
          240 -171 5 callgsubr
          hintmask 10101100
          -47 callsubr
          -2 callgsubr
          vvcurveto
          8 2 7 4 6 vhcurveto
          hintmask 01110010
          -1 9 9 -1 9 11 callgsubr
          -55 callsubr
          6 6 11 7 4 hvcurveto
          21 37 12 54 42 vvcurveto
          69 -20 51 -68 24 vhcurveto
          1 -5 -5 2 5 callsubr
          -8 3 -6 hvcurveto
          -30 vlineto
          -23 callsubr
          11 -42 24 -33 37 -18 rrcurveto
          -10 -14 -5 -21 -16 vvcurveto
          -15 callsubr
          endchar
        </CharString>
        <CharString name="Ccircumflex">
          37 34 268 67 9 callgsubr
        </CharString>
        <CharString name="Cdotaccent">
          37 30 268 67 199 endchar
        </CharString>
        <CharString name="D">
          143 -23 117 -86 -21 624 86 hstemhm
          10 196 -93 48 7 61 160 91 hintmask 10110010
          480 392 rmoveto
          44 -7 45 -15 42 vhcurveto
          97 -35 -59 77 -111 hhcurveto
          -24 -23 -4 -5 -24 hvcurveto
          -46 -11 -76 -26 -39 -26 rrcurveto
          -8 -5 -3 -6 -9 -13 4 -13 -13 vvcurveto
          -17 -8 -49 28 26 48 47 14 23 vhcurveto
          3 -17 1 -17 -17 vvcurveto
          -7 0 -8 -1 -8 vhcurveto
          hintmask 01101110
          -10 -96 -12 -95 1 -97 rrcurveto
          -26 vlineto
          12 -11 -14 14 -17 hhcurveto
          -3 -3 0 -1 -3 hvcurveto
          10 -53 0 -54 14 -51 rrcurveto
          -19 5 8 -34 25 hhcurveto
          8 11 4 5 7 hvcurveto
          11 7 0 14 12 11 0 10 11 vvcurveto
          95 17 93 14 93 vhcurveto
          hintmask 10110010
          9 52 5 52 53 vvcurveto
          33 -2 33 -6 32 vhcurveto
          8 16 18 6 18 hhcurveto
          18 17 -6 -8 15 hvcurveto
          76 -43 13 -99 -78 vvcurveto
          -86 -20 -93 -42 -76 vhcurveto
          -13 -7 -11 -15 -17 hhcurveto
          hintmask 10101110
          -42 -21 73 33 14 2 14 3 14 hvcurveto
          -52 -21 -14 -103 -47 vvcurveto
          -46 24 -48 53 27 22 15 19 18 vhcurveto
          47 53 37 63 32 62 rrcurveto
          33 63 19 69 71 vvcurveto
          endchar
        </CharString>
        <CharString name="Dcaron">
          143 22 240 68 207 endchar
        </CharString>
        <CharString name="Dcroat">
          -100 callgsubr
        </CharString>
        <CharString name="E">
          105 -36 70 118 55 503 -20 hstem
          -10 84 17 54 163 119 vstem
          452 640 rmoveto
          -79 callgsubr
          -61 -38 -67 -32 -55 -48 rrcurveto
          -28 -24 -18 -32 -38 vvcurveto
          -64 38 -40 59 -19 vhcurveto
          -72 -26 -66 -31 -32 -75 rrcurveto
          -14 -32 -14 -33 -36 vvcurveto
          -31 11 -29 17 -26 vhcurveto
          -58 36 55 -24 66 -4 callsubr
          -66 -44 -63 -37 vhcurveto
          -4 -7 -3 -94 callsubr
          -17 callsubr
          6 3 7 -30 callgsubr
          endchar
        </CharString>
        <CharString name="Eacute">
          105 183 253 69 -1 callsubr
        </CharString>
        <CharString name="Ebreve">
          105 121 253 69 198 endchar
        </CharString>
        <CharString name="Ecaron">
          105 128 253 69 207 endchar
        </CharString>
        <CharString name="Ecircumflex">
          105 132 253 69 9 callgsubr
        </CharString>
        <CharString name="Edieresis">
          105 135 253 69 200 endchar
        </CharString>
        <CharString name="Edotaccent">
          105 128 253 69 199 endchar
        </CharString>
        <CharString name="Egrave">
          105 100 253 69 193 endchar
        </CharString>
        <CharString name="Emacron">
          105 131 253 69 197 endchar
        </CharString>
        <CharString name="Eng">
          233 -289 143 864 -20 hstem
          428 229 rmoveto
          -131 -21 -63 -244 -81 hhcurveto
          -9 -37 -4 callgsubr
          36 -37 30 -42 rrcurveto
          -14 8 32 -9 14 hhcurveto
          33 43 22 29 13 hvcurveto
          42 93 22 76 22 105 48 225 29 288 13 84 rrcurveto
          58 9 -12 27 -65 hhcurveto
          -12 -10 -2 -9 -9 hvcurveto
          -96 callsubr
          -18 -75 -16 -109 -5 -37 -14 -65 -23 callgsubr
          -5 -12 -3 -12 -13 vvcurveto
          -30 38 -53 31 29 26 23 29 vhcurveto
          6 -2 6 6 vvcurveto
          10 2 5 1 10 vhcurveto
          4 31 4 32 6 31 28 172 54 164 90 150 -24 -168 -31 -181 -9 -55 rrcurveto
          endchar
        </CharString>
        <CharString name="Eogonek">
          105 -3 callsubr
          69 70 118 55 503 -20 hstemhm
          -10 84 17 54 57 69 -69 250 -144 119 hintmask 0111111101000000
          205 -155 -82 callsubr
          hintmask 1011111101000000
          -60 callsubr
          30 20 47 24 21 vhcurveto
          32 27 37 9 23 30 rrcurveto
          -25 callgsubr
          -65 -44 -63 -38 vhcurveto
          -3 -7 -4 -94 callsubr
          -17 callsubr
          7 3 6 -63 callsubr
          hintmask 1011111010000000
          15 callsubr
          -79 callgsubr
          -61 -38 -67 -32 -55 -48 rrcurveto
          -28 -24 -18 -32 -38 vvcurveto
          -64 38 -40 59 -19 vhcurveto
          -72 -26 -66 -31 -32 -75 rrcurveto
          -14 -32 -14 -33 -36 vvcurveto
          -31 11 -29 17 -26 vhcurveto
          -58 36 55 -24 66 hhcurveto
          16 45 4 7 18 hvcurveto
          -43 -50 -9 -30 -28 -36 callgsubr
          endchar
        </CharString>
        <CharString name="Eth">
          -100 callgsubr
        </CharString>
        <CharString name="Euro">
          46 -23 81 0 194 0 74 0 36 -4 69 8 174 116 -20 hstemhm
          hintmask 01001110
          378 234 rmoveto
          48 -12 76 -15 vhcurveto
          -40 -88 -300 -47 hhcurveto
          -24 -3 92 56 15 0 15 1 16 hvcurveto
          5 hlineto
          -1 23 10 0 10 hhcurveto
          29 15 32 16 hvcurveto
          hintmask 10010110
          17 -2 10 -18 -23 -25 -3 -1 -18 vhcurveto
          2 13 2 14 2 13 rrcurveto
          1 35 29 0 16 hhcurveto
          21 9 42 4 hvcurveto
          hintmask 10101110
          16 -12 10 -25 -16 -21 0 -1 -21 vhcurveto
          10 37 11 38 14 36 rrcurveto
          25 9 22 39 15 21 -10 -182 45 hhcurveto
          35 14 129 22 69 -20 51 -68 24 hvcurveto
          1 -5 -5 2 5 callsubr
          -4 -1 -8 hvcurveto
          -84 -64 -57 -98 -31 -104 rrcurveto
          -32 hlineto
          -22 -14 -32 -16 -17 7 -8 18 hvcurveto
          24 hlineto
          -6 -39 rlineto
          -27 hlineto
          -21 -10 -42 -4 -16 12 -10 25 hvcurveto
          15 -20 hlineto
          -47 6 -47 13 -45 vhcurveto
          14 -50 32 -33 50 -15 rrcurveto
          -6 18 19 -7 19 hhcurveto
          94 64 183 74 hvcurveto
          endchar
        </CharString>
        <CharString name="F">
          154 -36 133 529 68 26 -20 hstem
          69 31 225 77 vstem
          551 466 rmoveto
          6 -4 3 -6 -11 -107 -49 -8 -21 vhcurveto
          1 51 -1 52 -8 50 rrcurveto
          64 -9 -37 59 -70 hhcurveto
          -24 -24 -8 -13 -20 hvcurveto
          9 -9 -38 38 -9 hhcurveto
          -7 0 -8 -5 hvcurveto
          -8 1 -9 -8 -121 -128 -53 -88 vvcurveto
          -8 1 -7 1 -7 vhcurveto
          3 -14 -2 -16 6 -13 rrcurveto
          -13 7 13 -15 16 hhcurveto
          21 19 22 15 12 hvcurveto
          55 67 28 70 17 84 2 12 2 13 12 7 rrcurveto
          5 9 14 4 11 hhcurveto
          28 14 -18 -26 4 hvcurveto
          9 -44 3 -48 -45 vvcurveto
          -20 0 -19 -2 -19 vhcurveto
          -41 -16 rlineto
          -88 -35 -125 -74 -108 vvcurveto
          -19 3 -19 6 -18 vhcurveto
          12 -41 8 -33 35 -30 rrcurveto
          -16 19 23 -14 25 hhcurveto
          48 32 49 37 19 hvcurveto
          42 79 31 84 16 88 58 23 45 34 34 53 rrcurveto
          8 12 18 28 15 vvcurveto
          -246 -190 rmoveto
          -13 -54 -20 -57 -27 -48 rrcurveto
          -14 -7 -11 -6 -15 hhcurveto
          -40 -72 71 40 22 17 13 20 4 hvcurveto
          40 9 41 -2 40 10 rrcurveto
          endchar
        </CharString>
        <CharString name="G">
          96 -22 76 422 243 hstemhm
          30 93 129 101 -80 111 hintmask 11101000
          -76 callgsubr
          hintmask 11110000
          -69 callgsubr
          hintmask 11101000
          -27 callgsubr
          endchar
        </CharString>
        <CharString name="Gbreve">
          96 27 262 71 198 endchar
        </CharString>
        <CharString name="Gcircumflex">
          96 38 262 71 9 callgsubr
        </CharString>
        <CharString name="Gcommaaccent">
          96 -18 callsubr
          58 76 422 243 hstemhm
          30 93 3 16 callgsubr
          -5 101 -80 111 hintmask 11111001
          -76 callgsubr
          hintmask 11110010
          -69 callgsubr
          hintmask 11111001
          -27 callgsubr
          -329 -632 -74 callgsubr
          vhcurveto
          hintmask 11110101
          -31 callsubr
          hintmask 11111001
          -48 callgsubr
        </CharString>
        <CharString name="Gdotaccent">
          96 34 262 71 199 endchar
        </CharString>
        <CharString name="H">
          125 -27 -21 55 -21 732 -20 hstem
          487 323 19 callgsubr
          9 94 13 93 20 91 -34 callgsubr
          -31 -109 -22 -108 -13 -113 -49 -11 rcurveline
          15 66 15 66 13 67 -43 callsubr
          19 -34 -25 callsubr
          -31 19 14 vvcurveto
          15 52 7 7 9 1 -12 -6 -7 -1 -7 -2 -7 vhcurveto
          -22 -95 -27 -93 -21 -95 -17 callgsubr
          18 -7 -32 callsubr
          17 62 13 callgsubr
          -4 -45 -19 callsubr
          -6 33 -9 32 34 vvcurveto
          32 4 33 2 33 vhcurveto
          -6 callsubr
          endchar
        </CharString>
        <CharString name="Hbar">
          125 -27 -21 55 -21 389 86 257 -20 hstemhm
          312 75 -75 93 hintmask 11110100
          486 308 19 callgsubr
          1 15 2 16 1 16 rrcurveto
          39 3 33 11 36 vvcurveto
          8 -1 -8 41 -15 hhcurveto
          -6 -1 -4 0 -4 -3 -8 -4 -7 -3 -8 -3 8 55 9 56 11 50 -34 callgsubr
          -19 -68 -17 -72 -12 -73 rrcurveto
          -1 -12 -13 -1 -13 hhcurveto
          5 25 4 25 5 23 -43 callsubr
          9 -15 -25 callsubr
          -21 0 14 vvcurveto
          15 44 4 12 3 vhcurveto
          3 hlineto
          9 1 -12 -6 -7 -1 -7 -2 -7 hvcurveto
          -10 -41 -10 -44 -11 -43 rrcurveto
          -14 -13 1 -16 -13 -15 -1 -20 hhcurveto
          -16 -4 -5 -28 -13 11 -39 14 hvcurveto
          26 1 21 1 19 2 -7 -31 -7 -30 -6 -28 -17 callgsubr
          19 8 -32 callsubr
          16 47 13 callgsubr
          -3 -30 -19 callsubr
          hintmask 11111000
          -6 33 -9 32 34 vvcurveto
          32 3 18 2 33 vhcurveto
          hintmask 11110100
          -6 callsubr
          -158 81 rmoveto
          8 hlineto
          -3 -20 -2 -20 -2 -20 -49 -11 rcurveline
          5 22 5 23 5 24 10 1 11 0 12 1 rrcurveto
          endchar
        </CharString>
        <CharString name="Hcircumflex">
          125 96 251 72 9 callgsubr
        </CharString>
        <CharString name="I">
          -54 -50 204 514 60 hstem
          20 140 47 65 vstem
          272 501 rmoveto
          -53 callgsubr
          -76 callsubr
          -25 24 73 -87 32 hhcurveto
          13 6 8 14 3 hvcurveto
          31 171 23 187 171 vvcurveto
          endchar
        </CharString>
        <CharString name="IJ">
          372 -50 161 -161 204 -170 127 -127 200 418 99 -33 60 hstemhm
          20 140 47 65 292 40 -12 55 hintmask 1000011101000000
          272 501 rmoveto
          -53 callgsubr
          -16 -31 -67 -139 -27 vvcurveto
          -14 7 -13 8 -11 vhcurveto
          13 -17 9 -20 14 -15 rrcurveto
          -6 5 7 -5 8 hhcurveto
          12 6 10 9 4 hvcurveto
          16 38 31 130 40 vvcurveto
          hintmask 1000101101000000
          19 -4 17 -4 18 vhcurveto
          -1 4 -1 21 callgsubr
          hintmask 0100011101000000
          17 24 39 18 19 -4 -52 -13 -72 -11 -71 -11 -70 vhcurveto
          -10 -59 -10 -59 -9 -59 -4 -28 -3 -28 -4 -28 rrcurveto
          -6 -1 -2 -11 -8 -18 -4 42 -23 hhcurveto
          -21 -16 -44 -16 -13 7 -10 8 -9 hvcurveto
          -25 24 73 -87 32 hhcurveto
          13 6 8 14 3 hvcurveto
          31 171 23 187 171 vvcurveto
          597 152 rmoveto
          hintmask 1000101110000000
          34 -36 14 -29 vhcurveto
          -39 -39 -1 -39 4 callgsubr
          -7 callgsubr
          hintmask 0010101101000000
          -28 callsubr
          hintmask 0001101101000000
          -57 callsubr
          hintmask 1000101110000000
          -22 callgsubr
        </CharString>
        <CharString name="Iacute">
          -54 23 271 73 -1 callsubr
        </CharString>
        <CharString name="Ibreve">
          -54 -39 271 73 198 endchar
        </CharString>
        <CharString name="Icircumflex">
          -54 -28 271 73 9 callgsubr
        </CharString>
        <CharString name="Idieresis">
          -54 -25 271 73 200 endchar
        </CharString>
        <CharString name="Idotaccent">
          -54 -32 271 73 199 endchar
        </CharString>
        <CharString name="Igrave">
          -54 -60 271 73 193 endchar
        </CharString>
        <CharString name="Imacron">
          -54 -29 271 73 197 endchar
        </CharString>
        <CharString name="Iogonek">
          -54 -252 94 -94 137 65 204 514 60 hstemhm
          20 140 -83 69 61 65 hintmask 01111010
          80 -165 -82 callsubr
          hintmask 10111010
          -31 -46 -43 -58 hhcurveto
          hintmask 10110110
          -10 6 -4 10 12 vvcurveto
          36 18 44 32 13 6 10 12 3 vhcurveto
          30 168 24 190 171 vvcurveto
          -53 callgsubr
          hintmask 10111010
          -76 callsubr
          12 -13 23 -27 25 -24 rrcurveto
          hintmask 10110110
          -28 -27 -22 -70 -44 -36 callgsubr
          endchar
        </CharString>
        <CharString name="Itilde">
          -54 -34 271 73 196 endchar
        </CharString>
        <CharString name="J">
          29 -6 127 -127 200 418 99 4 -20 hstemhm
          221 40 -12 55 hintmask 10100100
          526 663 rmoveto
          34 -36 14 -29 vhcurveto
          -39 -39 -1 -39 hhcurveto
          hintmask 10010100
          4 callgsubr
          hintmask 10101000
          -7 callgsubr
          hintmask 10100100
          -28 callsubr
          hintmask 01100100
          -57 callsubr
          hintmask 10101000
          -22 callgsubr
        </CharString>
        <CharString name="Jcircumflex">
          29 41 254 74 9 callgsubr
        </CharString>
        <CharString name="K">
          185 -35 -3 callgsubr
          hintmask 10110010
          -58 callsubr
          hintmask 10111000
          -36 callsubr
          hintmask 01110100
          -64 callsubr
          hintmask 10111000
          -70 callsubr
          endchar
        </CharString>
        <CharString name="Kcommaaccent">
          185 -18 callsubr
          45 -3 callgsubr
          -105 16 callgsubr
          hintmask 1101100100000000
          -58 callsubr
          hintmask 1101110010000000
          -36 callsubr
          hintmask 1011101010000000
          -64 callsubr
          hintmask 1101110010000000
          -70 callsubr
          -332 -938 -74 callgsubr
          vhcurveto
          hintmask 1101110001000000
          -31 callsubr
          hintmask 1101110010000000
          -48 callgsubr
        </CharString>
        <CharString name="L">
          49 22 callgsubr
          721 -20 hstemhm
          hintmask 10010000
          -95 callsubr
          -69 callsubr
          hintmask 01010000
          -64 callgsubr
          hintmask 00110000
          -89 callgsubr
          endchar
        </CharString>
        <CharString name="Lacute">
          49 61 255 76 -1 callsubr
        </CharString>
        <CharString name="Lcaron">
          49 22 callgsubr
          498 217 6 -20 hstemhm
          373 74 hintmask 10010100
          -95 callsubr
          hintmask 01001100
          -69 callsubr
          -64 callgsubr
          hintmask 00110100
          -89 callgsubr
          307 434 -63 callgsubr
          -22 callsubr
        </CharString>
        <CharString name="Lcommaaccent">
          49 -18 callsubr
          72 -27 callsubr
          721 -20 hstemhm
          hintmask 11001000
          -95 callsubr
          -69 callsubr
          hintmask 10101000
          -64 callgsubr
          hintmask 10011000
          -89 callgsubr
          41 -328 rmoveto
          -67 callsubr
        </CharString>
        <CharString name="Ldot">
          83 22 callgsubr
          230 155 336 -20 hstemhm
          323 107 hintmask 10011100
          385 148 rmoveto
          4 1 14 -7 -5 -8 -8 -4 -3 vhcurveto
          -37 -38 -50 -15 -52 hhcurveto
          -17 -18 2 3 -17 hvcurveto
          6 13 6 14 5 14 26 76 11 80 4 81 1 31 -1 31 2 31 rrcurveto
          6 1 1 5 7 20 -16 -46 23 hhcurveto
          7 6 9 5 4 hvcurveto
          23 29 8 35 36 vvcurveto
          20 -2 19 -2 20 vhcurveto
          -3 22 -7 18 -19 13 -15 9 -14 9 -15 10 rrcurveto
          1 -2 -4 3 -3 hhcurveto
          -2 -1 -2 -2 hvcurveto
          -8 4 -8 -9 -2 0 -2 -2 vvcurveto
          -69 callsubr
          hintmask 01011100
          -64 callgsubr
          hintmask 00111100
          -89 callgsubr
          322 138 -37 callsubr
        </CharString>
        <CharString name="Lslash">
          49 22 callgsubr
          721 -20 hstemhm
          hintmask 10010000
          385 148 rmoveto
          4 1 14 -7 -5 -8 -8 -4 -3 vhcurveto
          -37 -38 -50 -15 -52 hhcurveto
          -17 -18 2 3 -17 hvcurveto
          6 13 6 14 5 14 14 41 10 43 6 44 26 8 22 6 4 1 32 9 12 17 1 17 2 22 -15 28 -10 -1 rrcurveto
          -7 -8 -13 -6 -2 hvcurveto
          -12 -5 -17 -7 -20 -7 1 13 1 13 1 14 1 31 -1 31 2 31 rrcurveto
          6 1 1 5 7 20 -16 -46 23 hhcurveto
          7 6 9 5 4 hvcurveto
          23 29 8 35 36 vvcurveto
          20 -2 19 -2 20 vhcurveto
          -3 22 -7 18 -19 13 -15 9 -14 9 -15 10 rrcurveto
          1 -2 -4 3 -3 hhcurveto
          -2 -1 -2 -2 hvcurveto
          -8 4 -8 -9 vvcurveto
          -6 vlineto
          10 -6 -19 36 -12 hhcurveto
          -9 -3 -21 -7 -1 hvcurveto
          -16 -124 -22 -124 -14 -125 -31 -10 -27 -9 -10 -4 -6 -2 -15 -15 5 -30 6 -35 29 27 32 10 3 1 3 1 4 1 -6 -41 -12 -40 -20 -37 rrcurveto
          hintmask 01010000
          -64 callgsubr
          hintmask 00110000
          -89 callgsubr
          endchar
        </CharString>
        <CharString name="M">
          368 1 -21 41 -21 717 -20 hstemhm
          310 230 -78 78 hintmask 01110000
          715 306 rmoveto
          2 0 14 -5 -4 -6 -11 -3 -2 vhcurveto
          -44 -79 -44 -82 -70 -60 rrcurveto
          6 0 7 6 vvcurveto
          152 45 158 23 150 vhcurveto
          1 8 1 8 7 vvcurveto
          42 -25 15 -38 -26 -21 -14 -22 -14 vhcurveto
          -14 -24 -12 -24 -18 -21 rrcurveto
          35 2 -28 46 -38 hhcurveto
          -30 -22 -31 -16 -23 hvcurveto
          59 -4 -6 41 -67 -39 -2 -24 -14 hhcurveto
          -8 -3 6 6 -3 hvcurveto
          -10 19 -12 17 -12 18 -9 -52 -10 -51 -25 -48 rrcurveto
          -37 -72 -32 -81 -83 vvcurveto
          -23 27 -26 24 9 5 3 7 5 vhcurveto
          8 11 6 13 6 12 30 60 15 63 7 67 2 15 3 14 6 13 rrcurveto
          12 5 33 58 12 hhcurveto
          8 0 -13 -5 hvcurveto
          -3 0 -2 -2 vvcurveto
          -16 -156 -37 -154 -35 -153 rrcurveto
          -4 -17 -6 -18 -17 vvcurveto
          -10 2 -6 3 -9 vhcurveto
          -26 10 13 -38 33 hhcurveto
          6 7 2 4 6 hvcurveto
          19 12 -2 19 5 19 10 46 11 45 11 46 16 71 44 214 47 51 rrcurveto
          -25 -137 -29 -141 -140 vvcurveto
          -15 3 -8 9 -12 vhcurveto
          -20 15 24 -27 27 hhcurveto
          19 6 16 16 2 hvcurveto
          4 31 2 30 4 30 18 139 28 124 62 125 -23 -132 -26 -132 -19 -133 rrcurveto
          hintmask 10101000
          -2 -12 -1 -12 -12 vvcurveto
          -54 17 -53 55 -20 vhcurveto
          33 1 29 4 23 26 66 73 21 109 8 96 rrcurveto
          1 11 0 2 4 vvcurveto
          endchar
        </CharString>
        <CharString name="N">
          254 -27 -21 651 82 33 -20 hstem
          186 124 vstem
          591 302 rmoveto
          2 0 17 -6 vhcurveto
          -12 -52 -107 -15 hhcurveto
          -4 1 9 2 25 3 28 5 24 hvcurveto
          20 97 39 138 96 vvcurveto
          59 -3 26 -65 -12 -10 -2 -9 -9 vhcurveto
          -96 callsubr
          -22 -109 -16 -109 -5 -37 -5 -37 -23 callgsubr
          -73 callsubr
          endchar
        </CharString>
        <CharString name="Nacute">
          254 214 256 78 -1 callsubr
        </CharString>
        <CharString name="Ncaron">
          254 159 256 78 207 endchar
        </CharString>
        <CharString name="Ncommaaccent">
          254 -18 callsubr
          683 82 33 -20 hstemhm
          186 124 -30 58 -9 82 hintmask 11101000
          591 302 rmoveto
          2 0 17 -6 vhcurveto
          -12 -52 -107 -15 hhcurveto
          -4 1 9 2 25 3 28 5 24 hvcurveto
          20 97 39 138 96 vvcurveto
          59 -3 26 -65 -12 -10 -2 -9 -9 vhcurveto
          -96 callsubr
          -22 -109 -16 -109 -5 -37 -5 -37 -23 callgsubr
          hintmask 11110100
          -73 callsubr
          hintmask 11101000
          -311 -547 rmoveto
          -8 7 -12 13 vhcurveto
          hintmask 11110100
          28 83 89 48 28 -23 20 -20 -26 -25 -16 -8 -14 12 -14 0 hvcurveto
          hintmask 11101000
          -48 callgsubr
        </CharString>
        <CharString name="Ntilde">
          254 157 256 78 196 endchar
        </CharString>
        <CharString name="O">
          80 -20 79 584 66 hstem
          30 70 37 55 129 81 vstem
          427 398 rmoveto
          22 -3 22 -5 21 vhcurveto
          -8 -16 -8 -16 -8 -16 rrcurveto
          4 35 3 36 36 vvcurveto
          39 -3 43 -11 39 vhcurveto
          47 -13 -21 19 -54 hhcurveto
          -46 -53 callsubr
          44 68 30 86 21 78 rrcurveto
          41 38 19 44 55 vvcurveto
          -106 196 rmoveto
          -107 -15 -109 -34 -102 vhcurveto
          -1 -4 -5 -1 -4 hhcurveto
          -44 -23 68 36 77 16 80 41 66 hvcurveto
          -1 callgsubr
          hvcurveto
          -67 -366 rmoveto
          -19 -50 -27 -57 -31 -44 rrcurveto
          -28 callgsubr
          -39 8 -40 14 -37 vhcurveto
          16 -39 40 -28 39 -10 rrcurveto
          endchar
        </CharString>
        <CharString name="OE">
          356 -36 70 -54 79 93 55 436 67 -1 -20 hstemhm
          30 70 37 55 129 75 163 119 hintmask 1011011110000000
          703 640 rmoveto
          -79 callgsubr
          -59 -37 -64 -31 -54 -45 rrcurveto
          19 -1 19 -5 18 vhcurveto
          hintmask 0110111110000000
          -13 47 -21 18 -49 1 rrcurveto
          -51 -53 callsubr
          1 2 1 2 2 2 rrcurveto
          hintmask 1011011110000000
          -50 36 52 -21 62 -4 callsubr
          -69 -42 -65 -34 vhcurveto
          -3 -7 -4 -94 callsubr
          -17 callsubr
          7 3 6 -30 callgsubr
          -493 -374 rmoveto
          23 -12 -41 82 42 vvcurveto
          77 16 80 41 66 vhcurveto
          -1 callgsubr
          -172 -48 -209 -96 -136 hvcurveto
          hintmask 0111011110000000
          -28 callgsubr
          -46 28 -85 45 -24 vhcurveto
          173 129 rmoveto
          15 -13 19 -10 22 -7 -23 -8 -22 -9 -21 -11 4 20 3 19 3 19 rrcurveto
          endchar
        </CharString>
        <CharString name="Oacute">
          80 112 252 79 -1 callsubr
        </CharString>
        <CharString name="Obreve">
          80 50 252 79 198 endchar
        </CharString>
        <CharString name="Ocircumflex">
          80 61 252 79 9 callgsubr
        </CharString>
        <CharString name="Odieresis">
          80 64 252 79 200 endchar
        </CharString>
        <CharString name="Ograve">
          80 29 252 79 193 endchar
        </CharString>
        <CharString name="Ohungarumlaut">
          80 90 252 79 205 endchar
        </CharString>
        <CharString name="Omacron">
          80 60 252 79 197 endchar
        </CharString>
        <CharString name="Oslash">
          70 -104 -21 105 79 584 66 67 -20 hstemhm
          30 70 -70 146 hintmask 11110100
          459 755 rmoveto
          20 -6 2 1 -9 hhcurveto
          -7 -4 -8 -4 -2 hvcurveto
          -18 -29 -19 -30 -20 -31 -14 24 -21 10 -36 1 rrcurveto
          -5 hlineto
          -46 -37 -14 -44 -19 hvcurveto
          4 -10 -28 14 -9 hhcurveto
          -13 -7 -13 -10 -5 hvcurveto
          -57 -119 -39 -138 -133 vvcurveto
          -47 4 -47 10 -46 vhcurveto
          -20 -42 -18 -40 -14 -39 rrcurveto
          -5 -12 -3 -8 -10 vvcurveto
          -6 8 -84 39 13 -2 13 11 1 vhcurveto
          6 48 14 48 19 48 17 -18 20 -14 22 -13 rrcurveto
          -10 17 18 -8 19 hhcurveto
          35 24 22 27 18 hvcurveto
          88 133 42 224 136 vvcurveto
          19 -1 21 -2 20 vhcurveto
          28 46 23 42 13 36 10 callsubr
          -282 -678 rmoveto
          -8 -5 -7 -10 -12 hhcurveto
          -15 -9 17 13 -4 hvcurveto
          -4 11 -3 10 -2 12 54 113 74 110 67 101 -19 -138 -44 -131 -71 -100 rrcurveto
          -1 301 rmoveto
          3 47 7 31 3 12 rrcurveto
          42 10 52 133 40 hhcurveto
          23 7 -31 -18 hvcurveto
          -5 vlineto
          -74 -115 -79 -126 -67 -121 rrcurveto
          hintmask 11111000
          -1 16 0 17 16 vvcurveto
          71 12 72 31 64 vhcurveto
          hintmask 11110100
          -6 -36 -8 -57 47 -12 rrcurveto
          endchar
        </CharString>
        <CharString name="Oslashacute">
          70 111 252 233 -1 callsubr
        </CharString>
        <CharString name="Otilde">
          80 55 252 79 196 endchar
        </CharString>
        <CharString name="P">
          69 2 -21 256 116 281 79 hstemhm
          -6 164 -81 81 -81 104 192 53 hintmask 11110010
          426 486 rmoveto
          113 -78 114 -122 -56 -82 -32 -28 -48 vhcurveto
          0 callsubr
          9 12 11 10 13 9 rrcurveto
          hintmask 11101010
          -34 -113 -14 -119 -118 -33 3 -32 -33 11 callsubr
          -6 -5 -6 1 -4 2 -9 -29 callgsubr
          52 -3 52 52 15 0 14 14 vvcurveto
          -15 16 24 -4 21 hhcurveto
          29 28 7 9 26 hvcurveto
          58 20 38 42 19 57 rrcurveto
          12 37 7 39 38 vvcurveto
          -53 34 rmoveto
          -91 -48 -55 -88 -19 vhcurveto
          -1 -6 -6 -1 -7 hhcurveto
          hintmask 11100110
          -30 -7 22 26 37 35 4 3 callgsubr
          4 45 6 45 4 45 rrcurveto
          1 8 1 8 8 vvcurveto
          14 -2 14 -3 13 vhcurveto
          10 15 28 5 17 hhcurveto
          76 66 -31 -83 hvcurveto
          endchar
        </CharString>
        <CharString name="Q">
          71 -52 67 -67 111 628 64 hstemhm
          30 70 -70 108 172 83 hintmask 01110100
          398 24 rmoveto
          10 0 25 -14 vhcurveto
          hintmask 10110100
          -22 -5 -44 -37 hhcurveto
          -20 -18 16 13 -14 hvcurveto
          83 131 42 185 154 vvcurveto
          51 -4 52 -12 50 vhcurveto
          -9 33 -22 23 -30 17 rrcurveto
          7 -13 -14 4 -15 hhcurveto
          -78 -36 -97 -57 -30 hvcurveto
          3 -3 -7 6 -5 hhcurveto
          -8 -3 -12 -5 -2 hvcurveto
          -40 -111 -32 -128 -118 vvcurveto
          -64 10 -68 28 -57 vhcurveto
          12 -24 23 -13 21 -15 rrcurveto
          -13 17 21 -11 22 hhcurveto
          23 11 11 16 13 hvcurveto
          -25 24 35 -21 35 hhcurveto
          45 28 32 44 hvcurveto
          -88 585 rmoveto
          -143 -50 -219 -59 -131 vhcurveto
          4 -3 -13 17 -3 hhcurveto
          -3 1 -8 -1 -14 3 -15 3 -14 hvcurveto
          -9 -17 -10 -16 -12 -15 rrcurveto
          -46 32 -9 90 52 vvcurveto
          23 2 24 3 23 vhcurveto
          16 -37 16 -24 31 -13 rrcurveto
          -2 5 5 -1 5 hhcurveto
          5 8 3 6 3 -3 2 -2 1 hvcurveto
          hintmask 10101100
          -53 33 0 57 57 vvcurveto
          108 25 109 71 85 vhcurveto
          10 8 12 9 13 hhcurveto
          34 9 -53 -25 hvcurveto
          endchar
        </CharString>
        <CharString name="R">
          113 -14 0 callgsubr
          94 69 60 80 hintmask 10001111
          -2 callsubr
          hintmask 01010111
          -75 callgsubr
          hintmask 00110111
          -35 callsubr
          hintmask 10001111
          -73 callgsubr
          endchar
        </CharString>
        <CharString name="Racute">
          113 70 256 82 -1 callsubr
        </CharString>
        <CharString name="Rcaron">
          113 15 256 82 207 endchar
        </CharString>
        <CharString name="Rcommaaccent">
          113 -18 callsubr
          66 0 callgsubr
          -23 16 callgsubr
          -14 69 60 80 hintmask 1100011010100000
          -2 callsubr
          hintmask 1010101010100000
          -75 callgsubr
          hintmask 1001101001100000
          -35 callsubr
          hintmask 1100011001100000
          -73 callgsubr
          hintmask 1100100100100000
          -246 -811 -74 callgsubr
          vhcurveto
          hintmask 1100101010100000
          -31 callsubr
          hintmask 1100100100100000
          -48 callgsubr
        </CharString>
        <CharString name="S">
          72 -21 18 callgsubr
          156 100 hintmask 11011000
          444 625 rmoveto
          -59 callsubr
          hintmask 11101000
          -16 callsubr
          107 104 49 56 90 vhcurveto
          -6 callgsubr
          hintmask 11011000
          -56 callsubr
          -234 -489 rmoveto
          -10 -18 -67 -33 -19 hhcurveto
          hintmask 11101000
          1 callgsubr
        </CharString>
        <CharString name="Sacute">
          72 142 249 83 -1 callsubr
        </CharString>
        <CharString name="Scaron">
          72 87 249 83 207 endchar
        </CharString>
        <CharString name="Scedilla">
          72 -269 83 165 18 callgsubr
          -52 70 -70 208 0 100 hintmask 11100010
          227 -151 5 callgsubr
          -47 callsubr
          hintmask 11100101
          -2 callgsubr
          vvcurveto
          10 5 9 5 8 vhcurveto
          67 18 65 34 59 37 rrcurveto
          -6 callgsubr
          hintmask 11101001
          -56 callsubr
          -59 callsubr
          hintmask 11110001
          -16 callsubr
          14 14 1 2 14 vhcurveto
          -3 -10 -1 -9 -9 vvcurveto
          -15 callsubr
          -17 287 rmoveto
          -10 -18 -67 -33 -19 hhcurveto
          1 callgsubr
        </CharString>
        <CharString name="Scircumflex">
          72 91 249 83 9 callgsubr
        </CharString>
        <CharString name="T">
          34 24 -21 568 104 36 -20 hstem
          -90 callsubr
          endchar
        </CharString>
        <CharString name="Tbar">
          34 24 -21 327 76 -76 81 160 104 36 -20 hstemhm
          173 77 -77 88 -88 240 hintmask 11011001
          278 330 rmoveto
          49 86 -2 43 8 -10 41 -23 -3 -5 0 -1 -3 hvcurveto
          -39 -7 -27 -4 -34 -2 6 54 8 53 13 50 93 -1 79 29 65 68 rrcurveto
          8 10 10 13 13 vvcurveto
          10 -6 6 -10 -4 -3 -1 -1 -4 vhcurveto
          -23 -68 -66 -15 -72 hhcurveto
          -19 hlineto
          -4 6 -4 6 -5 7 -8 -18 rcurveline
          2 -22 -22 1 -22 hhcurveto
          -88 -101 -16 -60 -68 hvcurveto
          -8 -7 -7 -8 -12 vvcurveto
          -5 1 -4 1 -5 vhcurveto
          -32 7 -12 -39 48 hhcurveto
          7 8 1 2 7 hvcurveto
          21 81 0 60 93 hhcurveto
          17 18 -3 -2 17 hvcurveto
          -19 -52 -14 -53 -10 -54 rrcurveto
          hintmask 10111100
          1 -34 -20 3 -50 hhcurveto
          -20 -10 -5 -23 hvcurveto
          -8 vlineto
          -14 5 8 -36 20 hhcurveto
          35 27 1 1 28 hvcurveto
          -4 -38 -2 -39 -39 -26 3 -26 -27 vvcurveto
          -1 0 -7 -3 vhcurveto
          -8 -12 32 -14 hhcurveto
          -7 -1 -10 -5 -13 4 -12 6 -11 hvcurveto
          -36 16 34 -66 46 hhcurveto
          17 13 10 19 3 0 3 -1 4 hvcurveto
          -7 32 -10 33 33 vvcurveto
          5 0 4 1 5 vhcurveto
          hintmask 11011010
          4 56 3 60 4 60 rrcurveto
          endchar
        </CharString>
        <CharString name="Tcaron">
          34 45 216 84 207 endchar
        </CharString>
        <CharString name="Tcommaaccent">
          34 -18 callsubr
          651 104 36 -20 hstemhm
          125 131 -83 83 hintmask 11101000
          -90 callsubr
          hintmask 11110000
          -426 -940 rmoveto
          -67 callsubr
        </CharString>
        <CharString name="Thorn">
          89 2 -21 196 116 238 82 179 -20 hstemhm
          14 164 -68 68 215 53 hintmask 11111010
          223 629 rmoveto
          2 13 2 12 13 vvcurveto
          33 -13 54 -24 24 vhcurveto
          6 -5 -9 8 -8 hhcurveto
          -9 -1 -10 -6 -9 2 -8 2 -8 hvcurveto
          -9 -55 -10 -54 -8 -54 -28 -11 -27 -12 -20 -12 rrcurveto
          0 callsubr
          2 3 2 3 2 2 rrcurveto
          hintmask 11110110
          -3 -32 -3 -33 -2 -32 rrcurveto
          -11 -168 1 -54 -6 11 callsubr
          -8 -5 -6 1 -6 2 -5 -29 callgsubr
          50 -3 42 47 vvcurveto
          -15 16 30 -4 21 hhcurveto
          144 67 127 122 103 -78 84 -122 -8 -9 -1 -1 -9 hvcurveto
          -40 -252 rmoveto
          6 56 9 53 9 54 rrcurveto
          6 18 19 3 18 hhcurveto
          65 69 -20 -61 -91 -48 -45 -88 -19 hvcurveto
          -1 -6 -6 -1 -7 hhcurveto
          -30 -7 22 26 41 35 0 3 callgsubr
          endchar
        </CharString>
        <CharString name="U">
          216 22 -21 700 -20 hstem
          533 30 vstem
          563 202 rmoveto
          -46 callsubr
          18 112 38 116 vhcurveto
          3 10 3 -30 callsubr
          -33 -96 -35 -94 -19 -52 -20 -52 -21 -51 rrcurveto
          -5 -2 -4 -11 -6 hhcurveto
          -6 0 15 2 hvcurveto
          4 0 1 4 vvcurveto
          15 133 50 127 -49 callsubr
          11 14 15 7 vhcurveto
          29 62 20 60 44 47 rrcurveto
          3 3 4 4 -15 callgsubr
          3 -43 9 -42 vhcurveto
          -36 7 31 -13 callsubr
          rrcurveto
          -31 7 29 -32 34 hhcurveto
          64 48 132 53 hvcurveto
          endchar
        </CharString>
        <CharString name="Uacute">
          216 146 240 85 -1 callsubr
        </CharString>
        <CharString name="Ubreve">
          216 84 240 85 198 endchar
        </CharString>
        <CharString name="Ucircumflex">
          216 95 240 85 9 callgsubr
        </CharString>
        <CharString name="Udieresis">
          216 98 240 85 200 endchar
        </CharString>
        <CharString name="Ugrave">
          216 63 240 85 193 endchar
        </CharString>
        <CharString name="Uhungarumlaut">
          216 124 240 85 205 endchar
        </CharString>
        <CharString name="Umacron">
          216 94 240 85 197 endchar
        </CharString>
        <CharString name="Uogonek">
          216 -212 94 -94 137 776 -20 hstemhm
          363 67 103 30 hintmask 01111000
          366 -125 -82 callsubr
          hintmask 10111000
          -60 callsubr
          34 20 58 22 21 vhcurveto
          54 51 35 82 46 vvcurveto
          -46 callsubr
          20 115 36 113 vhcurveto
          4 10 2 -30 callsubr
          -34 -96 -34 -94 -20 -52 -18 -52 -22 -51 rrcurveto
          -4 -1 -5 -12 -6 hhcurveto
          -6 0 15 2 hvcurveto
          11 vlineto
          15 133 50 125 -49 callsubr
          10 14 15 8 vhcurveto
          26 58 25 64 43 48 rrcurveto
          3 2 4 3 -15 callgsubr
          4 -43 8 -42 vhcurveto
          -36 8 30 -13 callsubr
          4 -17 10 -17 14 -12 rrcurveto
          -26 -30 -20 -66 -41 -36 callgsubr
          endchar
        </CharString>
        <CharString name="Uring">
          216 100 240 85 202 endchar
        </CharString>
        <CharString name="Utilde">
          216 89 240 85 196 endchar
        </CharString>
        <CharString name="V">
          132 11 -21 756 -20 hstem
          152 87 162 68 vstem
          469 534 rmoveto
          59 -6 64 -15 57 vhcurveto
          14 -4 -6 18 -17 hhcurveto
          -22 -6 -19 -18 -2 0 -2 1 -9 hvcurveto
          4 -39 3 -40 -39 vvcurveto
          -138 -31 -132 -59 -125 vhcurveto
          -11 -24 -12 -25 -14 -23 rrcurveto
          -6 -4 -6 -10 -8 hhcurveto
          -10 -2 15 7 -1 hvcurveto
          -4 22 0 26 23 vvcurveto
          129 38 118 36 123 vhcurveto
          5 16 3 17 17 vvcurveto
          55 -39 44 -57 -18 -16 -5 -10 -16 vhcurveto
          -57 -35 -83 -63 -29 -64 rrcurveto
          -3 -8 -3 -8 -9 vvcurveto
          -25 28 -30 26 43 52 75 30 22 vhcurveto
          12 18 10 25 17 14 rrcurveto
          4 6 6 5 8 hhcurveto
          8 4 -7 -8 -5 8 callsubr
          -5 hvcurveto
          -53 -133 -33 -127 -144 vvcurveto
          -64 14 -67 49 -45 vhcurveto
          -11 12 15 -9 17 hhcurveto
          31 23 27 24 14 hvcurveto
          85 149 57 171 173 vvcurveto
          endchar
        </CharString>
        <CharString name="W">
          264 10 81 -81 129 344 89 -89 210 40 -20 hstemhm
          502 84 hintmask 10101100
          586 393 rmoveto
          106 -30 111 -51 92 vhcurveto
          19 -11 -16 12 -23 hhcurveto
          -16 -22 -5 -19 -11 5 -11 6 -9 hvcurveto
          51 -83 23 -84 -98 vvcurveto
          -97 -27 -100 -40 -88 vhcurveto
          -10 -4 -13 -27 -13 hhcurveto
          -26 -7 142 23 53 6 52 5 53 hvcurveto
          4 3 3 5 6 vvcurveto
          9 -8 1 -7 1 vhcurveto
          2 -19 -30 0 -19 hhcurveto
          -9 -15 -1 -12 -6 3 -7 4 -5 hvcurveto
          hintmask 01101100
          -37 -12 -79 -234 -29 hhcurveto
          -5 -2 4 5 2 0 4 2 8 hvcurveto
          34 146 62 124 50 140 rrcurveto
          4 10 2 10 10 vvcurveto
          hintmask 10011100
          58 -57 33 -53 -65 -142 -73 -76 -33 16 -28 36 13 13 3 4 12 vhcurveto
          58 20 40 31 41 44 rrcurveto
          -49 -104 -92 -185 -114 vvcurveto
          -12 1 -11 1 -12 vhcurveto
          6 -45 -6 -53 50 -22 rrcurveto
          -4 8 10 -3 10 hhcurveto
          28 20 18 24 12 hvcurveto
          25 46 16 50 22 47 rrcurveto
          -68 14 4 -127 95 hhcurveto
          38 33 22 33 19 hvcurveto
          58 99 34 114 115 vvcurveto
          -421 252 rmoveto
          hintmask 10101100
          -22 -20 -48 -51 -31 hhcurveto
          -6 -6 3 7 7 6 7 5 5 hvcurveto
          27 27 35 11 38 6 rrcurveto
          endchar
        </CharString>
        <CharString name="Wacute">
          264 172 272 87 -1 callsubr
        </CharString>
        <CharString name="Wcircumflex">
          264 141 272 87 9 callgsubr
        </CharString>
        <CharString name="Wdieresis">
          264 124 272 87 200 endchar
        </CharString>
        <CharString name="Wgrave">
          264 89 272 87 193 endchar
        </CharString>
        <CharString name="X">
          126 11 -21 639 89 4 -20 hstemhm
          202 88 hintmask 11010000
          473 641 rmoveto
          16 -6 10 -11 10 vhcurveto
          11 -12 -14 30 -18 hhcurveto
          -11 -8 -11 -8 -6 hvcurveto
          -36 -52 -33 -55 -32 -55 rrcurveto
          18 -1 19 -1 18 vhcurveto
          -3 52 -31 36 -48 18 rrcurveto
          6 -15 -16 4 -16 hhcurveto
          -19 -18 -6 -11 -15 hvcurveto
          hintmask 10110000
          -2 9 -2 17 -9 5 -2 -17 -2 -16 -3 -16 rrcurveto
          -25 -29 -58 -104 -37 vvcurveto
          -25 23 -33 27 17 10 16 13 7 vhcurveto
          24 45 19 48 23 45 rrcurveto
          hintmask 11010000
          5 3 5 12 8 hhcurveto
          33 1 -215 -34 2 hvcurveto
          -42 -83 -37 -85 -39 -85 rrcurveto
          -3 -1 -5 -10 -3 -4 -19 31 -19 hhcurveto
          -8 -2 -9 -6 -47 5 -49 45 -23 hvcurveto
          -5 9 10 -5 10 hhcurveto
          21 12 27 16 7 hvcurveto
          25 58 24 59 24 59 11 -85 25 -115 95 -26 rrcurveto
          -2 8 8 -2 9 hhcurveto
          24 18 12 22 11 hvcurveto
          19 38 13 44 42 vvcurveto
          9 -1 40 -12 -7 -7 -13 -5 -3 vhcurveto
          -19 -33 -24 -45 -32 -21 -66 86 8 124 -3 103 33 69 37 68 43 64 rrcurveto
          -13 1 3 -66 14 hhcurveto
          24 28 105 21 hvcurveto
          endchar
        </CharString>
        <CharString name="Y">
          170 -123 -21 699 198 -62 62 hstemhm
          58 72 192 155 -146 81 hintmask 11011000
          587 705 rmoveto
          12 -10 3 -10 2 vhcurveto
          3 -14 -16 2 -15 hhcurveto
          -25 -20 -5 -29 -6 1 -6 1 -5 hvcurveto
          -32 -56 -31 -57 -33 -56 -56 -90 -73 -136 -95 -51 rrcurveto
          -2 -4 -3 -1 -4 hhcurveto
          -14 -4 21 11 41 22 45 17 31 hvcurveto
          44 76 58 68 37 80 rrcurveto
          8 19 6 20 21 vvcurveto
          58 -50 35 -55 -69 -70 -53 -36 -55 vhcurveto
          -17 -12 -6 -13 -20 vvcurveto
          -36 3 -28 43 17 20 2 10 14 vhcurveto
          15 11 15 13 13 13 rrcurveto
          11 11 4 11 16 4 -1 5 4 vvcurveto
          2 13 2 4 13 5 rrcurveto
          hintmask 10110100
          8 18 19 6 19 hhcurveto
          10 12 -3 -11 -6 -3 -5 -3 -5 hvcurveto
          -16 -24 -17 -24 -16 -23 -42 -60 -39 -61 -28 -67 rrcurveto
          -15 -36 -12 -38 -39 vvcurveto
          -28 6 -25 12 -25 vhcurveto
          8 -17 7 -19 13 -14 rrcurveto
          -20 19 24 -12 27 hhcurveto
          87 54 102 59 46 hvcurveto
          -16 -99 -14 -100 -101 vvcurveto
          -41 3 -66 39 -23 vhcurveto
          -2 4 3 -2 5 hhcurveto
          18 13 25 14 6 hvcurveto
          11 24 36 86 22 vvcurveto
          14 -23 42 -9 vhcurveto
          -7 2 -20 -8 hhcurveto
          -9 -3 10 7 39 6 42 5 39 hvcurveto
          21 174 47 154 87 152 rrcurveto
          4 7 5 9 9 vvcurveto
          endchar
        </CharString>
        <CharString name="Yacute">
          170 239 271 89 -1 callsubr
        </CharString>
        <CharString name="Ycircumflex">
          170 188 271 89 9 callgsubr
        </CharString>
        <CharString name="Ydieresis">
          170 191 271 89 200 endchar
        </CharString>
        <CharString name="Ygrave">
          170 156 271 89 193 endchar
        </CharString>
        <CharString name="Z">
          89 6 100 486 80 -80 142 hstemhm
          48 70 265 83 hintmask 11011000
          466 551 rmoveto
          12 -2 11 -4 11 vhcurveto
          62 -24 -51 25 -64 hhcurveto
          -19 -20 -7 20 -9 hvcurveto
          hintmask 10111000
          15 -7 -7 34 -19 hhcurveto
          -29 -128 -49 -14 -32 hvcurveto
          -38 -17 -3 -26 -38 vvcurveto
          -33 18 -5 30 47 60 10 24 40 vhcurveto
          3 35 36 3 36 hhcurveto
          13 58 2 -19 -8 -6 -7 -5 -6 hvcurveto
          -87 -101 -97 -93 -86 -102 rrcurveto
          -29 -35 -25 -42 -46 vvcurveto
          -19 4 -19 8 -17 vhcurveto
          -67 30 57 -7 65 hhcurveto
          67 105 9 77 23 hvcurveto
          3 8 3 12 9 vvcurveto
          9 -4 4 -9 vhcurveto
          0 -3 0 -6 -1 vhcurveto
          -13 -78 -79 -14 -79 hhcurveto
          -20 -17 6 22 41 47 50 28 27 hvcurveto
          73 71 84 60 71 74 rrcurveto
          24 25 21 33 36 vvcurveto
          endchar
        </CharString>
        <CharString name="Zacute">
          89 96 274 90 -1 callsubr
        </CharString>
        <CharString name="Zcaron">
          89 51 274 90 207 endchar
        </CharString>
        <CharString name="Zdotaccent">
          89 41 274 90 199 endchar
        </CharString>
        <CharString name="a">
          -55 callgsubr
          444 -20 hstemhm
          hintmask 01010000
          -61 callsubr
          hintmask 10010000
          -107 callsubr
          hintmask 00110000
          -101 callgsubr
          endchar
        </CharString>
        <CharString name="aacute">
          -55 callgsubr
          678 -20 hstemhm
          211 164 hintmask 01011000
          -61 callsubr
          hintmask 10011000
          -107 callsubr
          hintmask 00111000
          -101 callgsubr
          22 229 rmoveto
          -105 callsubr
        </CharString>
        <CharString name="abreve">
          -55 callgsubr
          492 20 callsubr
          hintmask 01010000
          -61 callsubr
          hintmask 10010000
          -107 callsubr
          hintmask 00101000
          -101 callgsubr
          -163 281 -77 callgsubr
          hintmask 10010000
          -52 callsubr
        </CharString>
        <CharString name="acircumflex">
          -55 callgsubr
          482 198 hstemhm
          hintmask 01010000
          -61 callsubr
          hintmask 10010000
          -107 callsubr
          hintmask 00110000
          -101 callgsubr
          114 103 rmoveto
          -103 callgsubr
        </CharString>
        <CharString name="acute">
          516 -21 196 -20 hstem
          158 164 vstem
          215 621 rmoveto
          -105 callsubr
        </CharString>
        <CharString name="adieresis">
          -55 callgsubr
          512 -16 callgsubr
          105 98 50 111 hintmask 01010110
          -61 callsubr
          hintmask 10010110
          -107 callsubr
          hintmask 00110110
          -101 callgsubr
          115 215 rmoveto
          -26 callsubr
          -81 callsubr
          hintmask 10001110
          -51 callsubr
          hvcurveto
          hintmask 10010110
          -62 callgsubr
          vhcurveto
          endchar
        </CharString>
        <CharString name="ae">
          177 -20 104 -78 -21 185 83 179 -20 hstemhm
          10 239 hintmask 10111000
          504 -80 callsubr
          -13 -6 -15 -16 -3 hvcurveto
          -4 20 -1 16 -17 15 rrcurveto
          9 -12 -15 9 -15 hhcurveto
          -9 -9 -3 -6 -8 hvcurveto
          -79 -52 -52 -87 -42 -83 rrcurveto
          -8 -16 -4 -19 -18 vvcurveto
          -21 5 -19 12 -19 vhcurveto
          13 -19 2 -24 14 -19 rrcurveto
          hintmask 01111000
          13 callsubr
          hintmask 10111000
          -56 callgsubr
          endchar
        </CharString>
        <CharString name="aeacute">
          177 -20 104 -78 -21 185 83 413 -20 hstemhm
          10 239 56 164 -49 84 hintmask 10111010
          504 -80 callsubr
          -13 -6 -15 -16 -3 hvcurveto
          -4 20 -1 16 -17 15 rrcurveto
          9 -12 -15 9 -15 hhcurveto
          -9 -9 -3 -6 -8 hvcurveto
          -79 -52 -52 -87 -42 -83 rrcurveto
          -8 -16 -4 -19 -18 vvcurveto
          -21 5 -19 12 -19 vhcurveto
          13 -19 2 -24 14 -19 rrcurveto
          hintmask 01111100
          13 callsubr
          hintmask 10111010
          -56 callgsubr
          -58 248 rmoveto
          hintmask 10111100
          -105 callsubr
        </CharString>
        <CharString name="agrave">
          -55 callgsubr
          482 198 hstemhm
          hintmask 01010000
          -61 callsubr
          hintmask 10010000
          -107 callsubr
          hintmask 00110000
          -101 callgsubr
          -81 161 -96 callgsubr
        </CharString>
        <CharString name="amacron">
          -55 callgsubr
          522 -14 callsubr
          106 249 hintmask 01010010
          -61 callsubr
          hintmask 10010010
          -107 callsubr
          hintmask 00100110
          -101 callgsubr
          15 148 rmoveto
          -70 callgsubr
          hintmask 10010010
          -13 callgsubr
          hintmask 10001010
          -81 callgsubr
        </CharString>
        <CharString name="ampersand">
          168 -21 72 -72 88 -88 129 -105 -21 744 -20 hstemhm
          20 90 35 73 hintmask 00011110
          400 -18 rmoveto
          60 35 25 55 22 hvcurveto
          4 8 4 11 10 vvcurveto
          hintmask 00101110
          6 -3 11 -10 vhcurveto
          hintmask 10001110
          -20 -67 -57 -21 hhcurveto
          -10 -32 23 37 -33 hvcurveto
          54 68 65 112 33 vvcurveto
          13 -2 -18 32 -14 hhcurveto
          -25 -71 -47 -48 -24 hvcurveto
          -3 -6 -1 -2 -1 vvcurveto
          -2 1 0 2 6 16 7 3 15 vhcurveto
          -8 -5 -26 -34 -21 -23 -15 22 -22 58 -4 21 rrcurveto
          91 75 115 146 123 vvcurveto
          29 -5 -39 41 -29 hhcurveto
          -10 -8 -2 -3 -12 hvcurveto
          -106 -35 -86 -74 -118 vvcurveto
          -16 1 -30 16 -50 vhcurveto
          -84 -69 -58 -63 -107 vvcurveto
          -41 30 -139 77 63 55 36 51 45 vhcurveto
          hintmask 00011110
          -50 35 37 -34 38 hhcurveto
          hintmask 01001110
          -269 85 rmoveto
          -13 -8 4 23 90 47 55 28 39 hvcurveto
          10 -35 15 -44 21 -29 rrcurveto
          -38 -28 -43 -65 -29 hhcurveto
          87 385 rmoveto
          53 66 78 72 32 vhcurveto
          2 4 8 2 5 hhcurveto
          4 1 -2 -4 1 hvcurveto
          -8 -6 -8 -9 vvcurveto
          -1 1 0 0 vhcurveto
          -45 -73 -69 -51 -41 -29 rrcurveto
          endchar
        </CharString>
        <CharString name="aogonek">
          71 -222 94 -94 137 91 -21 443 -20 hstemhm
          223 69 -69 198 hintmask 01111000
          226 -135 -82 callsubr
          hintmask 10111000
          -60 callsubr
          hintmask 10110100
          80 129 57 72 17 2 16 16 vvcurveto
          7 0 26 -10 vhcurveto
          -16 -60 -112 -29 hhcurveto
          -11 -3 12 9 hvcurveto
          3 vlineto
          3 66 16 65 6 66 rrcurveto
          5 1 5 5 vvcurveto
          26 -12 10 -23 8 vhcurveto
          -4 20 -1 16 -17 15 rrcurveto
          9 -12 -15 9 -15 hhcurveto
          -9 -9 -3 -6 -8 hvcurveto
          -79 -52 -52 -87 -42 -83 rrcurveto
          -8 -16 -4 -19 -18 vvcurveto
          -21 5 -19 12 -19 vhcurveto
          13 -19 2 -24 14 -19 rrcurveto
          -18 12 21 -20 23 hhcurveto
          46 59 111 36 20 hvcurveto
          7 -43 10 -33 25 -36 1 -2 1 -2 1 -1 rrcurveto
          -29 -33 -30 -57 -38 -36 callgsubr
          20 498 rmoveto
          -33 -98 -48 -97 -79 -68 24 105 57 86 79 72 rrcurveto
          endchar
        </CharString>
        <CharString name="approxequal">
          186 60 -43 -21 60 40 -40 59 18 67 -10 65 hstemhm
          hintmask 10001000
          260 386 rmoveto
          hintmask 10000100
          -45 -13 55 -53 hhcurveto
          -47 -70 -33 -52 -18 10 -20 11 hvcurveto
          48 -3 58 47 hhcurveto
          hintmask 10001000
          35 26 -57 77 hhcurveto
          47 40 25 39 16 -12 34 -29 hvcurveto
          -43 23 -47 -49 hhcurveto
          -1 -140 rmoveto
          hintmask 01011000
          -36 -19 55 -73 hhcurveto
          -36 -67 -33 -45 hvcurveto
          hintmask 10001000
          -13 6 -24 30 vhcurveto
          hintmask 01101000
          49 -4 56 37 45 6 -60 77 hhcurveto
          49 50 26 36 18 -16 20 -22 hvcurveto
          hintmask 10001000
          -43 19 -36 -52 hhcurveto
          endchar
        </CharString>
        <CharString name="aring">
          -55 callgsubr
          472 77 179 -20 hstemhm
          110 65 118 70 hintmask 01011110
          -61 callsubr
          hintmask 10011110
          -107 callsubr
          hintmask 00111110
          -101 callgsubr
          16 349 -77 callsubr
        </CharString>
        <CharString name="asciicircum">
          153 407 -21 322 -20 hstem
          336 446 rmoveto
          -45 11 21 -15 21 hhcurveto
          26 25 24 14 10 -16 10 -9 3 hvcurveto
          -27 67 -31 106 -13 38 -3 7 -6 7 -8 6 rrcurveto
          6 -9 -37 24 -7 hhcurveto
          -15 -31 -73 -26 -19 hvcurveto
          -43 -59 -69 -60 -36 vvcurveto
          -31 44 -33 18 8 11 5 15 4 vhcurveto
          18 67 66 60 24 63 21 -56 22 -83 3 -15 rrcurveto
          endchar
        </CharString>
        <CharString name="asciitilde">
          218 74 -52 -21 67 65 hstemhm
          hintmask 10000000
          261 292 rmoveto
          hintmask 01100000
          -36 -32 59 -54 hhcurveto
          -34 -77 -23 -56 hvcurveto
          hintmask 10000000
          -17 13 -37 17 vhcurveto
          hintmask 01100000
          48 -16 68 38 38 50 -67 61 hhcurveto
          52 45 28 38 20 -17 38 -32 hvcurveto
          hintmask 10000000
          -43 27 -51 -48 hhcurveto
          endchar
        </CharString>
        <CharString name="asterisk">
          -54 403 -21 81 191 60 -20 hstemhm
          53 150 -71 71 -71 176 -164 59 hintmask 11110000
          55 505 rmoveto
          -1 -3 -1 -4 -4 vvcurveto
          -16 5 -27 9 14 21 16 23 36 vhcurveto
          hintmask 11101000
          -2 -26 -4 -5 -51 vvcurveto
          -17 13 -9 9 21 28 21 56 vhcurveto
          8 -1 9 10 vvcurveto
          -12 18 24 -11 20 hhcurveto
          hintmask 11100100
          19 25 13 39 6 -1 6 -4 hvcurveto
          -2 -3 -3 -3 hhcurveto
          -12 -21 18 17 -25 hvcurveto
          41 30 17 16 10 vvcurveto
          8 -8 31 -24 -14 -24 -29 -19 -26 vhcurveto
          1 51 rlineto
          37 -1 -4 20 -21 hhcurveto
          hintmask 11100010
          -19 -11 -19 -36 hvcurveto
          -10 0 -8 -8 vvcurveto
          -24 vlineto
          13 -23 -25 11 -20 hhcurveto
          -12 -19 -6 -17 -12 30 -27 31 -25 hvcurveto
          -27 -19 -21 -15 -3 -7 rrcurveto
          endchar
        </CharString>
        <CharString name="at">
          236 -20 73 560 66 hstem
          37 73 60 219 89 85 vstem
          398 244 rmoveto
          -8 -1 14 7 hvcurveto
          2 vlineto
          3 51 9 32 4 50 rrcurveto
          4 1 4 4 vvcurveto
          20 -9 7 -18 6 vhcurveto
          -3 16 0 12 -13 11 rrcurveto
          7 -9 -12 7 -11 hhcurveto
          -7 -7 -2 -5 -6 hvcurveto
          -60 -39 -40 -67 -32 -63 rrcurveto
          -6 -12 -3 -15 -13 vvcurveto
          -16 4 -15 9 -14 vhcurveto
          10 -15 1 -18 11 -15 rrcurveto
          -13 9 16 -15 18 hhcurveto
          35 40 84 28 15 hvcurveto
          -38 6 29 -75 47 hhcurveto
          107 25 36 161 98 vvcurveto
          183 -60 52 -106 -231 -129 -226 -197 -48 8 -47 20 -46 vhcurveto
          22 -51 17 -33 32 -19 rrcurveto
          -15 25 39 -17 28 hhcurveto
          50 57 20 27 26 hvcurveto
          22 116 -44 -51 0 vvcurveto
          -8 -10 -95 -31 -25 hhcurveto
          -30 -20 23 13 -8 hvcurveto
          -37 59 -4 67 61 vvcurveto
          166 96 171 172 68 32 -31 -55 -212 -62 -54 -18 -17 vhcurveto
          -48 204 rmoveto
          -25 -74 -37 -74 -60 -52 18 80 44 66 60 54 rrcurveto
          endchar
        </CharString>
        <CharString name="atilde">
          -55 callgsubr
          498 79 -20 20 -20 77 hstemhm
          hintmask 01010000
          -61 callsubr
          hintmask 10010000
          -107 callsubr
          hintmask 00101000
          -101 callgsubr
          27 198 rmoveto
          hintmask 10000100
          -72 callgsubr
          hintmask 10001000
          -75 callsubr
        </CharString>
        <CharString name="b">
          -15 -32 140 -126 -21 788 -20 hstemhm
          10 94 -55 81 110 74 hintmask 10101100
          314 238 rmoveto
          53 -21 123 -70 -30 -41 -28 -20 -22 vhcurveto
          7 105 9 105 12 104 rrcurveto
          1 7 1 7 7 vvcurveto
          11 -5 37 -17 -9 -4 -13 -7 -2 vhcurveto
          -38 -150 -24 -168 -12 -155 rrcurveto
          hintmask 10110100
          -12 -22 -27 -58 -23 vvcurveto
          -13 4 -13 5 -12 vhcurveto
          -28 13 31 -119 33 hhcurveto
          19 4 26 14 16 -4 15 -3 16 hvcurveto
          -5 23 -3 23 23 vvcurveto
          43 10 42 20 37 vhcurveto
          15 29 31 18 31 7 rrcurveto
          1 4 2 0 1 hhcurveto
          16 6 -13 -15 -22 -27 -87 -10 -23 hvcurveto
          -21 -9 -16 -12 -23 -10 -9 5 -10 hhcurveto
          hintmask 01110100
          -9 -2 -8 -7 -32 34 -105 37 15 13 12 12 9 hvcurveto
          53 71 38 91 91 vvcurveto
          endchar
        </CharString>
        <CharString name="backslash">
          196 -101 -21 912 -20 hstem
          3 772 rmoveto
          8 -17 24 -36 31 -33 98 -145 122 -199 103 -212 38 -78 57 -137 9 -19 rrcurveto
          -12 6 7 -6 10 hhcurveto
          7 20 33 29 21 -9 25 -19 39 hvcurveto
          -110 227 -118 232 -178 235 rrcurveto
          33 -25 -60 38 -14 hhcurveto
          -7 -3 -3 -4 -3 1 -4 2 -4 hvcurveto
          endchar
        </CharString>
        <CharString name="bar">
          -97 -111 -21 929 -20 hstemhm
          86 84 -35 81 hintmask 11100000
          131 -109 rmoveto
          9 callsubr
          398 28 171 hvcurveto
          hintmask 11010000
          -11 callgsubr
          -55 -134 -17 vvcurveto
          -14 10 -6 13 vhcurveto
          hintmask 11100000
          -12 -90 -5 -322 -91 vvcurveto
          -54 16 -44 29 -45 vhcurveto
          endchar
        </CharString>
        <CharString name="braceleft">
          103 -215 88 895 -20 21 -20 hstemhm
          hintmask 11000000
          181 218 rmoveto
          9 -28 1 -28 -4 -29 -11 -89 -52 -87 -5 -40 -2 -15 0 -12 8 -20 rrcurveto
          -22 8 59 -63 66 hhcurveto
          69 56 9 37 5 hvcurveto
          40 5 -30 12 -8 hhcurveto
          -2 -2 0 -1 -8 hvcurveto
          -5 -45 -30 -4 -21 hhcurveto
          -30 -42 16 30 4 hvcurveto
          7 51 74 110 13 97 8 60 -16 54 -68 33 46 15 16 46 7 56 6 46 0 53 7 48 3 24 5 23 7 20 7 18 26 4 30 2 -23 -29 -7 -24 -1 -4 rrcurveto
          -5 -1 1 -3 5 hhcurveto
          3 2 1 1 3 hvcurveto
          32 12 130 51 4 34 1 8 -4 10 -2 7 rrcurveto
          14 -5 -9 6 -16 hhcurveto
          -5 -6 -1 -1 -5 hvcurveto
          7 -5 -7 5 -8 -7 -5 -2 -7 hhcurveto
          hintmask 10100000
          -27 -28 3 -26 hhcurveto
          -86 -38 -63 -42 -5 hvcurveto
          -5 -37 9 -88 -13 -100 rrcurveto
          -42 -6 -16 -54 -33 hhcurveto
          -7 -17 2 1 -7 hvcurveto
          -23 2 -10 -15 -2 -18 -8 -61 79 62 35 -98 rrcurveto
          endchar
        </CharString>
        <CharString name="braceright">
          103 -223 92 -92 106 375 66 457 -20 hstemhm
          hintmask 10110000
          248 68 rmoveto
          -5 29 -1 26 3 23 rrcurveto
          75 9 48 37 40 13 13 -7 10 hhcurveto
          20 9 21 12 32 -10 9 -21 hvcurveto
          -5 -10 -1 -5 hhcurveto
          -48 -36 24 80 10 hvcurveto
          6 42 18 57 35 78 2 5 2 2 callgsubr
          rrcurveto
          61 8 -67 98 -74 hhcurveto
          -98 -51 -2 -11 -2 hvcurveto
          -1 1 -4 1 -6 vhcurveto
          -11 -17 -7 -10 -1 -8 -4 -34 117 -51 28 -12 rrcurveto
          -1 3 2 -1 3 hhcurveto
          5 2 3 5 5 -2 28 -20 34 hvcurveto
          35 -1 49 -17 -7 -53 -5 -43 -27 -60 -7 -59 -7 -57 11 -57 68 -38 -70 -13 -46 -32 -9 -76 -7 -56 12 -79 35 -113 5 -17 3 -13 -2 -11 rrcurveto
          -27 -3 -23 -7 -28 hhcurveto
          hintmask 01110000
          -39 -49 14 -23 hhcurveto
          -11 -9 -19 -20 -2 hvcurveto
          -4 -29 11 -18 20 -5 37 -9 10 -7 34 1 90 2 34 48 8 65 6 52 -10 63 -11 61 rrcurveto
          endchar
        </CharString>
        <CharString name="bracketleft">
          3 -215 99 791 91 8 -20 hstemhm
          150 68 hintmask 11010000
          218 682 rmoveto
          -4 26 25 -3 24 hhcurveto
          32 59 12 28 4 hvcurveto
          5 -6 48 -26 vhcurveto
          -8 -9 -2 -8 hhcurveto
          hintmask 10110000
          -55 -29 8 -60 hhcurveto
          -14 -2 -21 -10 -2 -13 -3 -58 -1 -32 -7 -52 -5 -36 -65 -460 -25 -191 rrcurveto
          -42 -5 33 -93 66 hhcurveto
          40 127 3 48 6 hvcurveto
          37 5 -30 11 -20 -45 -41 -5 -41 hhcurveto
          -5 -2 3 9 1 hvcurveto
          11 82 20 98 13 105 22 166 16 182 3 158 rrcurveto
          endchar
        </CharString>
        <CharString name="bracketright">
          3 -223 93 820 97 hstem
          212 668 rmoveto
          -22 -234 -44 -216 1 -348 rrcurveto
          -67 -46 13 -47 hhcurveto
          -11 -1 -9 -18 -2 -20 -4 -29 11 -18 20 -5 36 -9 41 -7 34 1 97 2 9 15 3 12 4 26 4 25 3 26 12 93 41 417 26 247 rrcurveto
          40 5 -45 102 -57 -81 -3 5 -81 hhcurveto
          -11 -3 -6 -9 -2 hvcurveto
          -8 -1 9 -74 36 39 12 8 47 hhcurveto
          43 5 -3 -27 -2 hvcurveto
          endchar
        </CharString>
        <CharString name="breve">
          505 20 callsubr
          hintmask 01000000
          92 673 -77 callgsubr
          hintmask 10000000
          -52 callsubr
        </CharString>
        <CharString name="brokenbar">
          -97 -118 -21 419 93 424 -20 hstemhm
          99 85 -49 81 hintmask 11101000
          140 396 rmoveto
          -16 8 10 -7 5 hhcurveto
          36 -32 118 206 46 hvcurveto
          -11 callgsubr
          -49 -93 -17 vvcurveto
          -14 4 -7 13 vhcurveto
          hintmask 11110000
          -1 -20 -3 -24 -14 vvcurveto
          -54 12 -24 29 -45 vhcurveto
          4 -512 rmoveto
          -16 8 6 -7 5 hhcurveto
          12 9 32 36 hvcurveto
          57 -7 48 39 51 6 38 27 vvcurveto
          8 -27 83 -50 -6 -3 -5 -7 vhcurveto
          0 7 -20 -74 -36 -6 -59 -66 vvcurveto
          -48 19 -40 27 -41 vhcurveto
          endchar
        </CharString>
        <CharString name="bullet">
          -97 156 191 hstem
          38 168 vstem
          120 347 rmoveto
          -10 -31 -2 -14 hvcurveto
          -1 1 -1 -1 vvcurveto
          -27 -2 -15 -22 -31 vvcurveto
          -33 29 -84 69 56 14 53 31 63 -47 44 -39 vhcurveto
          endchar
        </CharString>
        <CharString name="c">
          -14 callgsubr
          6 callsubr
          hintmask 11100000
          -87 callgsubr
          hintmask 11010000
          -89 callsubr
          endchar
        </CharString>
        <CharString name="cacute">
          -14 callgsubr
          234 -20 6 callsubr
          -73 164 hintmask 11110100
          -87 callgsubr
          hintmask 11101000
          -89 callsubr
          -44 456 rmoveto
          hintmask 11110100
          -105 callsubr
        </CharString>
        <CharString name="caron">
          495 -9 callsubr
          hintmask 01000000
          103 693 rmoveto
          hintmask 10000000
          -98 callsubr
          hintmask 01000000
          -32 callgsubr
        </CharString>
        <CharString name="ccaron">
          -14 callgsubr
          38 -9 callsubr
          15 51 hintmask 11011000
          -87 callgsubr
          -89 callsubr
          -211 528 rmoveto
          hintmask 11101000
          -98 callsubr
          hintmask 11011000
          -32 callgsubr
        </CharString>
        <CharString name="ccedilla">
          -70 -279 83 174 89 160 227 6 callsubr
          -196 70 -70 208 hintmask 11110000
          187 -161 5 callgsubr
          hintmask 11100010
          -47 callsubr
          hintmask 11100100
          -2 callgsubr
          vvcurveto
          7 2 7 3 6 vhcurveto
          4 hlineto
          91 54 108 76 9 0 8 -2 9 hvcurveto
          -34 -38 -91 -87 -50 hhcurveto
          hintmask 11110000
          -16 -7 14 14 1 hvcurveto
          5 vlineto
          5 97 33 85 66 73 rrcurveto
          -20 3 5 -108 23 hhcurveto
          10 4 15 7 2 hvcurveto
          hintmask 11101000
          8 29 16 79 28 vvcurveto
          15 -2 20 -12 11 vhcurveto
          11 -13 -19 12 -18 hhcurveto
          -12 -9 -4 -8 -9 hvcurveto
          -80 -65 -52 -119 -102 vvcurveto
          -44 18 -75 39 -37 vhcurveto
          -13 -14 -6 -24 -18 vvcurveto
          -15 callsubr
          endchar
        </CharString>
        <CharString name="ccircumflex">
          -14 callgsubr
          38 198 6 callsubr
          hintmask 11110000
          -87 callgsubr
          hintmask 11101000
          -89 callsubr
          48 330 rmoveto
          -90 callgsubr
          -28 -14 -43 -35 -30 hvcurveto
          -27 -31 -34 -31 -28 vvcurveto
          hintmask 11110000
          -6 3 -17 15 35 71 80 31 21 vhcurveto
          -49 31 32 -69 61 hhcurveto
          endchar
        </CharString>
        <CharString name="cdotaccent">
          -14 callgsubr
          58 136 hstem
          15 51 57 118 vstem
          -87 callgsubr
          -89 callsubr
          -82 486 rmoveto
          -61 callgsubr
        </CharString>
        <CharString name="cedilla">
          -279 83 210 -20 hstemhm
          76 70 -70 208 hintmask 11010000
          218 -161 rmoveto
          -1 0 0 -1 vvcurveto
          -39 callgsubr
          -47 callsubr
          hintmask 11100000
          -2 callgsubr
          21 21 16 7 vvcurveto
          6 -19 6 -15 -33 -16 -42 -28 -15 callsubr
          endchar
        </CharString>
        <CharString name="cent">
          -48 -9 -21 515 -20 256 -20 hstem
          20 51 99 62 vstem
          135 -30 rmoveto
          11 17 87 73 10 hvcurveto
          83 16 26 87 69 vvcurveto
          9 -2 17 -5 -12 -34 -42 -33 -44 vhcurveto
          8 88 11 78 9 66 rrcurveto
          17 -12 -108 23 hhcurveto
          10 13 33 7 3 hvcurveto
          12 31 15 39 28 vvcurveto
          15 -2 20 -14 11 vhcurveto
          -15 11 -18 9 -19 2 rrcurveto
          4 29 2 23 15 vvcurveto
          41 -8 30 -37 -18 -1 -23 -4 vhcurveto
          -10 2 -15 -12 vvcurveto
          -30 -2 -33 -3 -29 vhcurveto
          -88 -65 -57 -96 -98 vvcurveto
          -52 29 -97 65 -24 vhcurveto
          -61 -2 -102 23 vhcurveto
          -38 247 rmoveto
          -19 -7 14 14 57 38 79 39 51 hvcurveto
          -10 -75 -13 -74 -7 -64 rrcurveto
          -1 -7 -7 -1 -7 hhcurveto
          endchar
        </CharString>
        <CharString name="circumflex">
          495 198 hstem
          358 495 rmoveto
          -103 callgsubr
        </CharString>
        <CharString name="colon">
          -116 -14 155 85 155 hstemhm
          40 107 -77 111 hintmask 11100000
          90 -5 callgsubr
          35 240 rmoveto
          hintmask 11010000
          39 17 35 36 51 -25 33 -30 -34 -22 -43 -38 -31 20 -43 35 hvcurveto
          endchar
        </CharString>
        <CharString name="comma">
          -157 -88 -21 301 -20 hstem
          57 85 vstem
          45 73 rmoveto
          -6 -29 -4 -28 -28 vvcurveto
          -29 8 -68 23 22 46 137 23 5 vhcurveto
          2 9 1 9 10 vvcurveto
          33 -30 80 -50 -4 -1 -3 -3 vhcurveto
          -8 4 -10 -9 vvcurveto
          -19 -8 -22 -8 -45 vhcurveto
          endchar
        </CharString>
        <CharString name="commaaccent">
          -18 callsubr
          hstemhm
          90 16 callgsubr
          hintmask 10100000
          90 -245 -74 callgsubr
          -31 callsubr
          hintmask 11000000
          -48 callgsubr
        </CharString>
        <CharString name="copyright">
          305 -53 74 382 180 -61 61 84 64 hstemhm
          40 70 75 84 -84 240 103 94 hintmask 10111101
          408 356 rmoveto
          -28 -80 -77 -123 -20 2 rrcurveto
          -4 -10 66 23 90 46 188 34 4 4 -5 -2 1 hvcurveto
          hintmask 11011011
          -30 14 -82 24 16 21 53 47 5 vhcurveto
          1 7 0 6 7 vvcurveto
          38 -26 49 -48 12 vhcurveto
          -6 -1 -3 -3 hvcurveto
          -5 2 -6 -8 vvcurveto
          -10 -1 -10 -1 -4 vhcurveto
          4 -7 -11 6 -4 hhcurveto
          -5 -5 -4 -3 -2 hvcurveto
          -87 -93 -52 -130 -119 vvcurveto
          -66 30 -69 90 -8 vhcurveto
          84 15 36 114 65 vvcurveto
          32 -7 37 -10 2 vhcurveto
          214 99 rmoveto
          178 -101 98 -84 -124 -73 -94 -57 -47 vhcurveto
          3 -5 -4 3 -8 hhcurveto
          -13 -9 -13 -5 -3 hvcurveto
          -79 -124 -32 -114 -118 vvcurveto
          -140 107 -125 137 250 88 340 168 vhcurveto
          -94 38 rmoveto
          -227 -110 -245 -176 -81 -51 118 85 157 153 286 166 50 49 -105 -69 vhcurveto
          endchar
        </CharString>
        <CharString name="currency">
          103 107 166 -146 -21 72 95 204 88 26 -20 hstemhm
          79 65 174 63 hintmask 10011110
          406 548 rmoveto
          21 -3 -8 22 -9 hhcurveto
          -10 -41 -48 -13 -14 hvcurveto
          22 -24 -29 13 -27 hhcurveto
          -45 -33 -16 -22 -12 hvcurveto
          33 -37 -31 27 -27 hhcurveto
          -7 -13 -10 -10 -20 22 -16 53 -56 hvcurveto
          -21 -31 -11 -33 -34 vvcurveto
          -28 7 -27 14 -31 vhcurveto
          -29 -44 -9 -14 -3 -9 -1 -14 rlinecurve
          -7 7 -96 39 12 26 84 24 12 vhcurveto
          hintmask 01111110
          -22 25 30 -15 36 hhcurveto
          38 27 12 20 20 hvcurveto
          68 -91 rlineto
          -8 6 6 -5 5 hhcurveto
          13 0 20 36 35 -17 22 -40 61 hvcurveto
          7 27 3 28 27 vvcurveto
          37 -5 34 -7 21 vhcurveto
          13 18 28 32 23 vvcurveto
          8 -3 7 -1 6 vhcurveto
          -214 -71 rmoveto
          59 -3 67 9 -98 vvcurveto
          -52 -26 -60 -65 -56 -27 59 58 24 21 52 27 11 vhcurveto
          endchar
        </CharString>
        <CharString name="d">
          37 -27 113 -51 111 585 -20 hstemhm
          15 51 hintmask 01110000
          -65 callsubr
          hintmask 10110000
          -42 callsubr
          hintmask 01110000
          -41 callgsubr
          -165 148 -20 callgsubr
          hintmask 10110000
          -34 callsubr
          12 5 8 hhcurveto
          8 3 -5 -7 hvcurveto
          endchar
        </CharString>
        <CharString name="dagger">
          -36 -21 497 66 -52 246 hstemhm
          189 76 -76 223 hintmask 11010000
          189 640 rmoveto
          -2 -37 -2 -68 -1 -33 rrcurveto
          1 -40 -31 3 -47 hhcurveto
          -5 -11 14 callsubr
          22 29 9 29 7 7 -1 13 hhcurveto
          -1 -31 0 -65 -50 vvcurveto
          -81 1 -94 1 -70 vhcurveto
          -7 callsubr
          47 -4 33 64 vvcurveto
          hintmask 10101000
          119 3 238 7 48 89 -23 39 8 -9 36 -21 -4 -3 0 -1 -3 vhcurveto
          -30 -6 -33 -3 -32 -2 rrcurveto
          hintmask 10110000
          1 20 0 39 35 vvcurveto
          4 callsubr
          endchar
        </CharString>
        <CharString name="daggerdbl">
          -36 -21 271 67 173 60 -60 246 hstemhm
          31 221 -89 89 -89 235 hintmask 11100010
          249 230 rmoveto
          39 8 110 -29 37 vvcurveto
          11 -13 44 -18 vhcurveto
          hintmask 11100100
          -20 -50 -18 -2 -45 hvcurveto
          74 1 48 2 51 vhcurveto
          46 89 -23 39 8 -9 36 -21 -30 -36 -10 -1 -34 hvcurveto
          1 20 0 39 34 vvcurveto
          hintmask 11010100
          4 callsubr
          -2 -37 -2 -68 -1 -33 rrcurveto
          1 -43 -31 3 -49 hhcurveto
          -5 -11 14 callsubr
          15 -2 72 13 25 -2 -2 -170 rcurveline
          -1 -37 -38 2 -42 hhcurveto
          hintmask 11101000
          -4 -10 -17 -25 -2 10 -22 22 hvcurveto
          hintmask 11100100
          32 42 6 4 26 hvcurveto
          1 -29 -1 -106 1 -32 -7 callsubr
          49 -4 30 78 vvcurveto
          39 1 58 1 23 vhcurveto
          endchar
        </CharString>
        <CharString name="dcaron">
          67 -27 113 -51 111 338 216 -216 247 hstemhm
          15 51 308 90 -74 74 hintmask 01011100
          -65 callsubr
          hintmask 10101100
          -42 callsubr
          hintmask 01101100
          -41 callgsubr
          -165 148 -20 callgsubr
          hintmask 10101010
          -34 callsubr
          12 5 8 hhcurveto
          8 3 -5 -7 hvcurveto
          151 178 -63 callgsubr
          vvcurveto
          hintmask 10101100
          -22 callsubr
        </CharString>
        <CharString name="dcroat">
          37 -27 113 -51 111 367 77 -77 218 hstemhm
          15 51 hintmask 10011000
          376 509 -51 callgsubr
          -12 -15 0 1 -21 hvcurveto
          2 19 2 18 2 19 rrcurveto
          2 11 1 11 12 vvcurveto
          20 -8 39 -27 -17 -4 -23 -12 -1 vhcurveto
          -15 -111 rlineto
          -2 hlineto
          hintmask 10101000
          1 -18 -23 4 -59 hhcurveto
          -13 -5 -12 -17 -16 4 -32 21 hvcurveto
          13 43 2 28 hhcurveto
          1 hlineto
          -5 -33 -3 -32 -4 -32 rrcurveto
          12 -16 -13 9 -21 hhcurveto
          -62 -77 -118 -50 -25 hvcurveto
          -14 -27 -7 -29 -31 vvcurveto
          -21 3 -21 6 -20 vhcurveto
          -42 callsubr
          hintmask 01101000
          -41 callgsubr
          3 -1 5 -5 vhcurveto
          -13 -16 -47 -26 hhcurveto
          -11 -2 11 8 hvcurveto
          -2 19 1 19 19 vvcurveto
          96 6 97 9 96 vhcurveto
          -1 16 16 -1 15 hhcurveto
          -152 -176 -20 callgsubr
          hintmask 10101000
          -34 callsubr
          10 5 10 hhcurveto
          8 3 -5 -7 hvcurveto
          endchar
        </CharString>
        <CharString name="degree">
          -117 500 49 130 44 hstem
          56 61 74 75 vstem
          258 654 rmoveto
          39 -12 -40 30 -48 -67 -4 -53 -5 hhcurveto
          -14 -12 -27 -32 -46 35 -65 76 71 28 50 54 17 -3 17 -5 16 hvcurveto
          -97 25 rmoveto
          26 4 -57 -16 -28 -10 -29 -30 -8 -26 7 53 9 1 10 3 13 hvcurveto
          -4 6 4 -2 3 16 -11 44 22 hhcurveto
          endchar
        </CharString>
        <CharString name="dieresis">
          525 -16 callgsubr
          100 98 50 111 hintmask 10110000
          356 607 rmoveto
          -26 callsubr
          -81 callsubr
          hintmask 01110000
          -51 callsubr
          hvcurveto
          hintmask 10110000
          -62 callgsubr
          vhcurveto
          endchar
        </CharString>
        <CharString name="divide">
          117 123 34 72 31 123 hstem
          155 98 vstem
          340 270 -51 callgsubr
          -29 -44 -60 callgsubr
          60 52 -6 47 hhcurveto
          -136 -153 rmoveto
          29 20 23 31 50 -33 19 -19 -29 -17 -26 -31 -39 23 -27 26 hvcurveto
          6 260 rmoveto
          28 20 23 30 50 -32 20 -20 -28 -17 -25 -31 -39 21 -28 28 hvcurveto
          endchar
        </CharString>
        <CharString name="dollar">
          4 -97 -21 929 -20 hstemhm
          23 51 -38 84 -5 57 81 81 hintmask 11101100
          136 -95 rmoveto
          -16 5 5 -7 4 hhcurveto
          11 8 45 42 3 hvcurveto
          1 23 3 27 2 29 rrcurveto
          84 31 72 79 100 vvcurveto
          58 -59 51 -59 41 vhcurveto
          6 48 7 47 6 43 rrcurveto
          -20 11 16 -12 21 hhcurveto
          39 37 33 52 56 -61 39 -39 5 hvcurveto
          3 12 2 10 1 9 1 10 rlinecurve
          41 3 -18 30 -37 hhcurveto
          -7 -4 -3 -9 -1 hvcurveto
          -10 3 -10 -1 -10 vhcurveto
          -2 -29 -3 -32 -4 -29 rrcurveto
          hintmask 11010100
          -70 -42 -89 -101 -67 vvcurveto
          -34 15 -21 22 -15 vhcurveto
          11 -8 31 -17 34 -20 -3 -24 -3 -23 -3 -23 rrcurveto
          -2 hlineto
          -24 -35 -25 -18 -20 hvcurveto
          hintmask 11101100
          -29 -27 -7 -36 -51 vvcurveto
          -73 23 -19 59 vhcurveto
          10 hlineto
          -3 -48 6 -40 18 -42 rrcurveto
          117 357 rmoveto
          -24 -28 -23 -32 -17 vhcurveto
          4 38 4 40 5 40 rrcurveto
          27 -20 20 -20 -14 vvcurveto
          -154 -97 rmoveto
          -8 -17 0 17 28 43 43 22 15 hvcurveto
          -4 -34 -4 -33 -3 -31 rrcurveto
          -3 -13 -10 -2 -6 hhcurveto
          hintmask 11010100
          21 323 rmoveto
          24 28 33 28 19 vhcurveto
          -4 -29 -6 -42 -6 -48 rrcurveto
          -22 14 -18 5 24 vvcurveto
          endchar
        </CharString>
        <CharString name="dotaccent">
          515 136 hstem
          168 124 vstem
          232 651 rmoveto
          -61 callgsubr
        </CharString>
        <CharString name="dotlessi">
          -107 9 -21 455 -20 hstemhm
          14 -39 callsubr
          hintmask 11010000
          240 179 rmoveto
          -101 callsubr
          hintmask 11100000
          -66 callsubr
          hintmask 11001000
          -74 callsubr
          hintmask 11010000
          -97 callgsubr
          endchar
        </CharString>
        <CharString name="dotlessj">
          -163 -433 163 738 -20 hstem
          -240 77 vstem
          163 63 -92 callsubr
          14 14 8 28 rrcurveto
          5 23 17 -44 callsubr
        </CharString>
        <CharString name="e">
          -50 callgsubr
          42 -20 hstemhm
          10 52 hintmask 10111000
          -106 callgsubr
          hintmask 11011000
          -52 callgsubr
        </CharString>
        <CharString name="eacute">
          -50 callgsubr
          276 -20 hstemhm
          10 52 163 92 -92 164 hintmask 10111100
          -106 callgsubr
          hintmask 11011010
          -100 callsubr
          49 248 rmoveto
          -105 callsubr
        </CharString>
        <CharString name="ebreve">
          -50 callgsubr
          90 20 callsubr
          10 52 22 233 hintmask 10110110
          -106 callgsubr
          hintmask 11001110
          -100 callsubr
          -136 300 -77 callgsubr
          hintmask 11010110
          -52 callsubr
        </CharString>
        <CharString name="ecaron">
          -50 callgsubr
          80 -9 callsubr
          10 52 33 222 hintmask 10110110
          -106 callgsubr
          hintmask 11001110
          -100 callsubr
          -118 320 rmoveto
          hintmask 11010110
          -98 callsubr
          hintmask 11001110
          -32 callgsubr
        </CharString>
        <CharString name="ecircumflex">
          -50 callgsubr
          80 198 hstemhm
          10 52 43 212 hintmask 10111100
          -106 callgsubr
          hintmask 11011100
          -100 callsubr
          141 122 rmoveto
          -103 callgsubr
        </CharString>
        <CharString name="edieresis">
          -50 callgsubr
          110 -16 callgsubr
          10 52 57 98 50 111 hintmask 10110111
          -106 callgsubr
          hintmask 11010111
          -100 callsubr
          142 234 rmoveto
          -26 callsubr
          -81 callsubr
          hintmask 11001111
          -51 callsubr
          hvcurveto
          hintmask 11010111
          -62 callgsubr
          vhcurveto
          endchar
        </CharString>
        <CharString name="edotaccent">
          -50 callgsubr
          100 136 hstemhm
          10 52 118 124 hintmask 10111100
          -106 callgsubr
          hintmask 11011100
          -100 callsubr
          11 278 rmoveto
          -61 callgsubr
        </CharString>
        <CharString name="egrave">
          -50 callgsubr
          80 198 hstemhm
          10 52 33 222 hintmask 10111100
          -106 callgsubr
          hintmask 11011100
          -100 callsubr
          -54 180 -96 callgsubr
        </CharString>
        <CharString name="eight">
          21 -5 147 577 -20 hstemhm
          103 67 113 56 -56 69 hintmask 11101000
          352 526 rmoveto
          43 -21 40 -28 31 vhcurveto
          2 4 rlineto
          35 -4 -2 40 -44 hhcurveto
          -57 -62 -89 -46 -20 hvcurveto
          -8 -20 -5 -21 -22 vvcurveto
          -49 27 -42 29 -37 vhcurveto
          -59 -58 -80 -77 -88 vvcurveto
          -29 8 -28 11 -27 vhcurveto
          -60 26 53 -31 65 hhcurveto
          hintmask 11110000
          103 53 56 103 74 -25 72 -52 54 hvcurveto
          hintmask 11101000
          37 45 53 68 59 vvcurveto
          -59 46 rmoveto
          -5 -1 -4 -2 -4 vhcurveto
          -21 -48 -34 -41 -36 -37 rrcurveto
          -10 16 -19 28 20 vvcurveto
          9 3 8 7 7 vhcurveto
          25 31 33 24 31 26 rrcurveto
          11 -7 13 -9 -14 vvcurveto
          -10 -361 rmoveto
          -54 -88 -15 -41 -14 -57 0 18 8 5 6 4 5 vhcurveto
          42 46 49 42 42 46 rrcurveto
          23 -27 35 -39 -36 vvcurveto
          endchar
        </CharString>
        <CharString name="ellipsis">
          193 -14 155 hstem
          35 107 73 107 73 107 cntrmask 01110000
          85 -5 callgsubr
          180 hmoveto
          -65 callgsubr
          180 hmoveto
          -65 callgsubr
          endchar
        </CharString>
        <CharString name="emacron">
          -50 callgsubr
          120 -14 callsubr
          10 52 58 249 hintmask 10110011
          -106 callgsubr
          hintmask 11000111
          -100 callsubr
          42 167 rmoveto
          -70 callgsubr
          hintmask 11010011
          -13 callgsubr
          hintmask 11001011
          -81 callgsubr
        </CharString>
        <CharString name="emdash">
          653 170 75 15 -20 hstemhm
          hintmask 10000000
          265 170 rmoveto
          82 555 5 9 85 hvcurveto
          9 1 4 4 7 6 0 8 11 vvcurveto
          hintmask 01000000
          26 -3 13 -22 vhcurveto
          hintmask 10000000
          -60 -567 -15 -62 -109 -139 7 -33 hhcurveto
          -3 -2 -4 -6 hvcurveto
          -18 0 -15 -16 vvcurveto
          -28 198 5 67 vhcurveto
          endchar
        </CharString>
        <CharString name="endash">
          153 170 90 hstemhm
          155 170 rmoveto
          99 232 6 41 29 -41 14 -40 hvcurveto
          hintmask 10000000
          -60 -108 -12 -3 -61 hvcurveto
          -109 28 5 -83 hhcurveto
          -21 -5 -13 -8 -49 84 -10 85 hvcurveto
          endchar
        </CharString>
        <CharString name="eng">
          -51 -269 163 120 -21 453 -20 21 -20 hstemhm
          24 250 -236 47 111 78 hintmask 11011000
          81 -106 rmoveto
          -9 -17 -4 callgsubr
          16 -57 30 -42 rrcurveto
          -14 8 12 -9 14 hhcurveto
          33 23 22 29 13 hvcurveto
          45 97 13 72 18 105 rrcurveto
          14 80 12 123 85 vvcurveto
          36 -8 38 -35 18 vhcurveto
          7 -12 -13 4 -14 -69 -15 -129 -17 hhcurveto
          hintmask 11100110
          -5 -1 8 3 hvcurveto
          22 -3 21 21 vvcurveto
          8 -3 45 -14 -20 -6 -126 -13 -1 vhcurveto
          hintmask 11011000
          -3 -59 -11 -58 -60 vvcurveto
          -46 18 -49 36 -31 vhcurveto
          -4 5 7 -7 8 hhcurveto
          11 2 17 8 hvcurveto
          9 110 10 107 56 98 rrcurveto
          2 1 3 6 3 hhcurveto
          hintmask 11010110
          3 0 -7 -2 -89 -5 -349 -110 hvcurveto
          endchar
        </CharString>
        <CharString name="eogonek">
          -10 -3 callsubr
          90 99 86 83 -83 220 42 -20 hstemhm
          10 52 25 69 -69 230 hintmask 0111011100000000
          90 -155 -82 callsubr
          hintmask 1011011100000000
          -60 callsubr
          30 21 50 26 19 vhcurveto
          hintmask 1010111010000000
          67 47 47 13 93 vvcurveto
          -105 callgsubr
          -21 -3 -40 -15 -1 hvcurveto
          -35 -41 -50 -78 -54 21 callsubr
          -16 5 -16 vhcurveto
          20 -64 28 -62 70 -3 rrcurveto
          -29 -34 -20 -50 -34 -36 callgsubr
          143 503 rmoveto
          hintmask 1011011100000000
          -52 callgsubr
        </CharString>
        <CharString name="equal">
          200 80 -63 -21 142 80 5 -20 hstemhm
          hintmask 10100000
          350 335 rmoveto
          11 4 6 10 15 0 52 -69 hvcurveto
          -16 -18 -1 -26 hhcurveto
          hintmask 10010000
          -35 -28 -2 8 -110 hvcurveto
          -18 -8 -21 17 callsubr
          hintmask 01100000
          6 10 48 1 41 70 37 -3 75 hhcurveto
          -11 -139 rmoveto
          25 12 10 16 5 -9 49 -21 hvcurveto
          hintmask 10100000
          -29 -35 2 2 -80 hvcurveto
          1 -26 -20 4 -81 hhcurveto
          -18 -8 -13 -17 -16 6 -39 29 hvcurveto
          18 50 2 38 hhcurveto
          hintmask 01100000
          60 42 -6 47 hhcurveto
          endchar
        </CharString>
        <CharString name="eth">
          -72 10 -21 404 58 99 165 -118 118 hstemhm
          8 callgsubr
          hintmask 11101100
          143 510 rmoveto
          5 2 6 3 6 3 rrcurveto
          11 -28 7 -30 -24 vvcurveto
          -38 callgsubr
          112 -15 108 -30 86 vhcurveto
          9 4 8 3 3 2 31 13 9 19 -2 17 -1 22 -19 25 -10 -2 -7 -1 -6 -14 -1 -7 -12 -8 -13 -8 -14 -7 -31 59 -42 42 -54 14 rrcurveto
          -54 -36 -31 -9 -44 11 -83 25 2 hvcurveto
          hintmask 11011100
          -1 13 19 48 37 hhcurveto
          20 18 -11 -17 16 hvcurveto
          -19 -10 -16 -8 -9 -5 -5 -3 -13 -17 10 -29 11 -33 24 31 31 15 rrcurveto
          31 -209 -31 callgsubr
        </CharString>
        <CharString name="exclam">
          -100 -14 155 531 -20 hstemhm
          60 106 -92 92 hintmask 11010000
          135 584 rmoveto
          -38 -63 -23 -108 -87 vvcurveto
          -71 21 -57 18 15 -18 36 109 40 vhcurveto
          39 106 83 152 43 vvcurveto
          15 -16 13 -13 -17 -54 -27 -7 -50 vhcurveto
          -12 -2 -10 -4 -9 vvcurveto
          -12 21 -18 14 -9 vhcurveto
          -21 -598 rmoveto
          37 15 34 35 61 -36 25 -22 hvcurveto
          hintmask 11100000
          -34 -14 -36 -36 -49 24 -34 30 hvcurveto
          endchar
        </CharString>
        <CharString name="exclamdown">
          -100 -192 -21 540 155 hstemhm
          1 117 -117 166 -77 106 hintmask 11100000
          122 -123 rmoveto
          -3 28 -1 30 31 vvcurveto
          115 16 124 6 29 vhcurveto
          1 6 1 5 5 vvcurveto
          21 -13 8 -4 -15 -17 -41 -114 -30 vhcurveto
          -28 -104 -34 -141 -55 vvcurveto
          -25 15 -12 17 vhcurveto
          hintmask 11010000
          36 98 36 25 17 -29 6 -16 6 hvcurveto
          20 605 rmoveto
          hintmask 11001000
          -5 callsubr
        </CharString>
        <CharString name="f">
          20 -385 87 1009 -20 hstem
          10 43 214 77 vstem
          -94 callgsubr
          endchar
        </CharString>
        <CharString name="fi">
          250 -385 87 307 -21 518 221 hstemhm
          10 43 214 77 45 106 -106 208 -153 118 hintmask 11111010
          597 179 rmoveto
          -101 callsubr
          hintmask 11111100
          10 82 22 101 62 vvcurveto
          34 -51 26 -16 -24 -15 -6 -17 -15 vhcurveto
          -25 -29 -136 -53 -52 -13 20 65 23 63 25 63 16 41 18 34 24 36 rrcurveto
          7 9 3 9 12 vvcurveto
          22 -14 24 -25 -15 -10 -11 -12 -6 vhcurveto
          -29 -54 -27 -56 -25 -56 -19 -44 -22 -49 -34 -34 rrcurveto
          -3 -3 -3 -2 -3 hhcurveto
          -8 -1 11 5 hvcurveto
          10 3 9 10 vvcurveto
          9 -6 18 -11 -19 0 -41 -13 -44 13 -13 15 -38 vhcurveto
          -10 -14 -3 -9 -13 vvcurveto
          -10 8 -16 9 -6 vhcurveto
          -18 -121 -24 -129 -123 vvcurveto
          -58 7 -53 27 -53 vhcurveto
          12 -23 16 -20 13 -22 rrcurveto
          -19 12 8 -9 24 hhcurveto
          33 26 2 30 20 hvcurveto
          74 112 62 131 137 vvcurveto
          125 -33 54 -58 63 vhcurveto
          15 5 70 21 67 32 rrcurveto
          -9 -58 -7 -49 -45 vvcurveto
          -36 6 -34 13 -33 vhcurveto
          -31 12 19 -53 40 hhcurveto
          15 15 7 9 12 hvcurveto
          hintmask 11111010
          52 40 24 71 64 vvcurveto
          -330 -90 rmoveto
          -119 -54 -166 -83 -88 vhcurveto
          -6 -5 -8 -8 -8 hhcurveto
          -24 -1 59 15 147 15 168 33 144 hvcurveto
          14 3 12 2 18 5 rrcurveto
          54 -28 37 -56 -72 vvcurveto
          hintmask 11111001
          295 599 -67 callgsubr
          endchar
        </CharString>
        <CharString name="five">
          28 8 -21 600 129 11 -20 hstemhm
          61 147 60 76 hintmask 11011000
          344 248 rmoveto
          132 -54 119 -137 36 vhcurveto
          8 18 8 19 13 15 48 1 55 21 37 32 rrcurveto
          8 6 5 8 10 vvcurveto
          hintmask 10111000
          30 -32 32 -29 -2 -5 -1 -1 -6 vhcurveto
          hintmask 11011000
          -6 -34 -32 -3 -35 -14 -13 2 -14 hhcurveto
          -13 -2 -18 -9 -4 hvcurveto
          -19 -49 -37 -98 -49 vvcurveto
          -44 19 -41 17 -40 vhcurveto
          28 23 28 19 37 hhcurveto
          62 38 -36 -62 -61 -26 -60 -47 -39 hvcurveto
          -3 -4 -7 -6 -5 hhcurveto
          -1 -1 2 1 hvcurveto
          19 31 45 33 vvcurveto
          6 -1 13 -8 -4 -4 -3 -3 -3 vhcurveto
          -32 -29 -29 -30 -38 -23 rrcurveto
          -17 -10 -11 -14 18 callsubr
          -79 74 hhcurveto
          58 54 57 44 31 hvcurveto
          34 48 14 53 59 vvcurveto
          endchar
        </CharString>
        <CharString name="fl">
          251 -385 87 311 -21 755 -20 hstemhm
          10 43 214 77 41 84 -20 81 hintmask 11111100
          -94 callgsubr
          331 146 -84 callsubr
          hintmask 11111010
          -99 callsubr
          hintmask 11111100
          -88 callsubr
          9 41 28 vvcurveto
          endchar
        </CharString>
        <CharString name="florin">
          31 -159 -21 528 66 314 -20 hstem
          312 584 rmoveto
          12 -17 13 -49 19 -18 rrcurveto
          20 7 70 46 60 -11 -2 -26 19 hvcurveto
          8 -17 -18 27 -20 hhcurveto
          -65 -42 -146 -168 -30 hvcurveto
          -28 2 -29 1 -26 2 rrcurveto
          -5 -13 -17 -21 -8 1 -25 25 hvcurveto
          23 20 2 21 hhcurveto
          -34 -205 -18 -214 -22 -3 rrcurveto
          -27 -47 37 5 -11 hvcurveto
          -3 -1 -12 -8 -16 23 -26 26 -29 hvcurveto
          -22 20 17 -37 41 hhcurveto
          14 42 41 27 4 hvcurveto
          7 48 18 227 31 182 rrcurveto
          -2 20 21 -1 20 hhcurveto
          34 31 6 18 17 -9 34 -29 hvcurveto
          -4 -24 -26 -2 -26 hhcurveto
          99 21 25 74 31 hhcurveto
          endchar
        </CharString>
        <CharString name="four">
          95 1 -21 754 -20 hstem
          37 90 vstem
          439 331 rmoveto
          31 -30 29 -31 -5 -5 0 -1 -5 vhcurveto
          6 56 5 57 4 57 rrcurveto
          1 12 1 12 13 vvcurveto
          26 -11 76 -13 21 vhcurveto
          10 -5 -9 4 -11 hhcurveto
          -8 -8 -3 -3 -7 hvcurveto
          -93 -49 -178 -105 -123 vvcurveto
          -49 11 -54 12 -48 vhcurveto
          -54 13 35 -25 55 hhcurveto
          32 28 11 10 30 hvcurveto
          -2 -34 -4 -35 -34 vvcurveto
          -31 5 -28 12 -29 vhcurveto
          -17 7 18 -54 23 hhcurveto
          16 5 23 12 40 0 39 4 40 hvcurveto
          5 47 5 47 5 47 23 8 23 8 22 11 rrcurveto
          12 7 7 8 14 vvcurveto
          -161 191 rmoveto
          -3 0 -3 -1 -10 vhcurveto
          -4 -47 -5 -38 -4 -47 -32 -4 -29 -4 -32 -4 rrcurveto
          -1 -7 -10 -1 -6 hhcurveto
          -8 -13 1 11 30 110 141 29 11 1 -13 -8 hvcurveto
          endchar
        </CharString>
        <CharString name="fraction">
          -223 -11 -21 749 -20 hstem
          235 683 -97 callsubr
          endchar
        </CharString>
        <CharString name="g">
          -26 callgsubr
          582 -20 hstemhm
          224 41 hintmask 01110000
          -99 callgsubr
          hintmask 10110000
          -83 callsubr
          -95 callgsubr
          endchar
        </CharString>
        <CharString name="gbreve">
          -26 callgsubr
          630 20 callsubr
          224 41 hintmask 01101000
          -99 callgsubr
          hintmask 10011000
          -83 callsubr
          -95 callgsubr
          -135 340 -77 callgsubr
          hintmask 10101000
          -52 callsubr
        </CharString>
        <CharString name="gcircumflex">
          -26 callgsubr
          620 198 hstemhm
          131 134 -41 41 hintmask 01101000
          -99 callgsubr
          hintmask 10110000
          -83 callsubr
          -95 callgsubr
          142 162 rmoveto
          -103 callgsubr
        </CharString>
        <CharString name="gcommaaccent">
          -26 callgsubr
          620 183 hstemhm
          224 41 -41 66 -66 83 -83 103 hintmask 01110000
          -99 callgsubr
          hintmask 10110000
          -83 callsubr
          hintmask 10100010
          -95 callgsubr
          47 327 -11 callsubr
          hintmask 10101000
          17 -26 7 20 vvcurveto
          hintmask 10100100
          12 callgsubr
        </CharString>
        <CharString name="gdotaccent">
          -26 callgsubr
          640 136 hstemhm
          206 121 -103 41 hintmask 10110000
          327 398 rmoveto
          34 -19 34 -38 -24 -22 -16 -16 -17 vhcurveto
          -79 -73 -118 -106 -117 vvcurveto
          -41 23 -92 52 49 81 109 40 25 vhcurveto
          hintmask 01101000
          -6 -56 -7 -56 -3 -56 -1 -20 -1 -21 -1 -20 rrcurveto
          -12 -1 -29 -10 vhcurveto
          -5 -5 6 -11 hhcurveto
          -19 -4 -10 -8 -15 hvcurveto
          -16 -7 2 -3 -3 -16 -4 -27 -2 -28 -6 -27 rrcurveto
          -1 -3 0 -4 -4 vvcurveto
          -8 4 -3 8 vhcurveto
          8 7 2 8 hhcurveto
          hintmask 10101000
          -83 callsubr
          hintmask 10110000
          -95 callgsubr
          12 318 rmoveto
          -61 callgsubr
        </CharString>
        <CharString name="germandbls">
          87 -324 -21 344 116 498 98 hstemhm
          0 74 103 242 -76 76 hintmask 11110100
          -128 vmoveto
          -58 7 -53 27 -53 vhcurveto
          -15 8 47 -38 18 hhcurveto
          5 2 3 5 7 -4 13 -11 19 hvcurveto
          -12 21 -13 7 46 vvcurveto
          147 33 269 44 141 vhcurveto
          143 45 89 137 35 hhcurveto
          20 3 -16 -19 hvcurveto
          hintmask 11111000
          -151 -166 -10 -84 vvcurveto
          -15 4 -20 19 -12 vhcurveto
          45 -29 100 -67 -23 vvcurveto
          -32 -117 -20 -23 -8 -16 0 11 15 39 32 12 6 vhcurveto
          4 2 11 6 5 vvcurveto
          3 -5 0 -2 -22 -32 -17 -12 -18 vhcurveto
          -27 -18 -6 -21 -38 vvcurveto
          -50 21 -40 54 80 62 32 60 44 vhcurveto
          14 19 9 23 24 vvcurveto
          90 -95 76 -53 21 vhcurveto
          -4 2 -10 4 7 vvcurveto
          5 8 3 4 1 vhcurveto
          98 29 48 30 113 vvcurveto
          84 -15 89 -132 -40 -88 -156 -33 -14 vhcurveto
          -90 -207 -36 -221 -222 vvcurveto
          endchar
        </CharString>
        <CharString name="grave">
          495 198 hstem
          195 553 -96 callgsubr
        </CharString>
        <CharString name="greater">
          105 -68 callsubr
          endchar
        </CharString>
        <CharString name="greaterequal">
          24 72 -55 -21 hstemhm
          hintmask 01000000
          92 -68 callsubr
          237 -237 -51 callgsubr
          hvcurveto
          hintmask 10000000
          -29 -27 -60 callgsubr
          hhcurveto
          hintmask 01000000
          60 35 -6 47 hhcurveto
          endchar
        </CharString>
        <CharString name="guillemotleft">
          138 177 278 rmoveto
          -86 callsubr
          210 hmoveto
          -86 callsubr
          endchar
        </CharString>
        <CharString name="guillemotright">
          138 69 196 rmoveto
          -85 callgsubr
          210 hmoveto
          -85 callgsubr
          endchar
        </CharString>
        <CharString name="guilsinglleft">
          -72 177 278 rmoveto
          -86 callsubr
          endchar
        </CharString>
        <CharString name="guilsinglright">
          -72 69 196 rmoveto
          -85 callgsubr
          endchar
        </CharString>
        <CharString name="h">
          0 -9 129 608 -20 -93 callgsubr
          endchar
        </CharString>
        <CharString name="hbar">
          0 -9 129 365 -20 25 81 -81 238 hstemhm
          -11 188 -188 249 -52 108 -108 154 hintmask 11010100
          144 490 rmoveto
          -70 callgsubr
          -20 -5 -16 -4 -16 -2 rrcurveto
          hintmask 11011010
          15 22 7 27 26 vvcurveto
          19 -8 66 -24 -10 -4 -9 -8 -2 vhcurveto
          -20 -58 -11 -36 -30 -49 rrcurveto
          hintmask 11101001
          1 -16 -15 2 -27 hhcurveto
          -14 -7 -5 -23 hvcurveto
          -8 vlineto
          -14 3 6 -36 14 hhcurveto
          18 16 0 1 14 hvcurveto
          -21 -92 -19 -91 -95 vvcurveto
          -36 5 -37 15 -33 vhcurveto
          -20 8 31 -73 25 hhcurveto
          11 5 19 9 3 hvcurveto
          23 87 22 88 27 85 rrcurveto
          2 5 13 2 2 0 -7 0 -33 -11 -33 -5 -32 vhcurveto
          -1 -15 -1 -14 -15 vvcurveto
          -58 17 -54 38 -44 vhcurveto
          -8 8 9 -8 12 hhcurveto
          18 13 15 13 10 hvcurveto
          25 36 4 42 43 vvcurveto
          7 1 31 -8 vhcurveto
          -10 -38 -58 -20 hhcurveto
          -6 -4 5 6 3 -35 callgsubr
          3 hvcurveto
          hintmask 11011010
          24 65 14 73 69 vvcurveto
          35 -6 66 -48 -24 -20 -17 -20 -12 vhcurveto
          -29 -48 -17 -55 -28 -50 rrcurveto
          -3 -1 -6 -11 -5 hhcurveto
          -4 0 11 3 5 0 5 1 6 hvcurveto
          10 72 12 72 12 73 rrcurveto
          endchar
        </CharString>
        <CharString name="hcircumflex">
          0 -9 129 640 198 -93 callgsubr
          -61 620 rmoveto
          -103 callgsubr
        </CharString>
        <CharString name="hungarumlaut">
          495 186 11 -20 hstemhm
          227 147 hintmask 10100000
          136 616 -45 callgsubr
          20 callgsubr
          vhcurveto
          hintmask 01100000
          -58 callgsubr
          hintmask 10100000
          -54 callsubr
        </CharString>
        <CharString name="hyphen">
          -48 callsubr
        </CharString>
        <CharString name="i">
          -107 9 -21 518 221 hstemhm
          14 19 callsubr
          hintmask 11000100
          205 688 -67 callgsubr
          hintmask 11010000
          -38 callsubr
          hintmask 11100000
          12 100 21 75 76 vvcurveto
          -86 callgsubr
          vvcurveto
          hintmask 11001000
          -74 callsubr
          hintmask 11010000
          -97 callgsubr
          endchar
        </CharString>
        <CharString name="iacute">
          -107 9 -21 689 -20 hstemhm
          14 -39 callsubr
          -65 167 hintmask 11010000
          240 179 rmoveto
          -101 callsubr
          hintmask 11100000
          -66 callsubr
          hintmask 11001000
          -74 callsubr
          hintmask 11010000
          -97 callgsubr
          -110 428 rmoveto
          hintmask 11000100
          -105 callsubr
        </CharString>
        <CharString name="ibreve">
          -107 9 -21 503 20 callsubr
          14 -39 callsubr
          hintmask 11001000
          240 179 rmoveto
          -101 callsubr
          hintmask 11010000
          -66 callsubr
          hintmask 11000100
          -74 callsubr
          hintmask 10101000
          -97 callgsubr
          -295 480 -77 callgsubr
          hintmask 11010000
          -52 callsubr
        </CharString>
        <CharString name="icircumflex">
          -107 9 -21 493 198 hstemhm
          14 -39 callsubr
          hintmask 11010000
          240 179 rmoveto
          -101 callsubr
          hintmask 11100000
          -66 callsubr
          hintmask 11001000
          -74 callsubr
          hintmask 11010000
          -97 callgsubr
          -18 302 rmoveto
          -90 callgsubr
          hintmask 11100000
          -28 -14 -43 -35 -30 hvcurveto
          -27 -31 -34 -31 -28 vvcurveto
          -6 3 -17 15 35 71 80 31 21 vhcurveto
          -49 31 32 -69 61 hhcurveto
          endchar
        </CharString>
        <CharString name="idieresis">
          -107 9 -21 523 -16 callgsubr
          -33 98 -51 -39 callsubr
          -23 111 hintmask 11000100
          240 179 rmoveto
          -101 callsubr
          hintmask 11001000
          -66 callsubr
          hintmask 11000010
          -74 callsubr
          hintmask 11000100
          -97 callgsubr
          -17 414 rmoveto
          -26 callsubr
          hintmask 11010001
          -81 callsubr
          hintmask 10101000
          28 -9 -23 12 -16 hhcurveto
          hintmask 11010001
          -36 -11 -29 -27 hvcurveto
          hintmask 11001000
          -39 23 -28 24 vhcurveto
          hintmask 11010001
          33 18 31 31 7 -8 callgsubr
          endchar
        </CharString>
        <CharString name="igrave">
          -107 9 -21 493 198 hstemhm
          32 208 -194 92 hintmask 11100000
          240 179 rmoveto
          -101 callsubr
          hintmask 11010000
          -21 callsubr
          -74 callsubr
          hintmask 11100000
          -97 callgsubr
          -213 360 -96 callgsubr
        </CharString>
        <CharString name="ij">
          77 -433 163 279 -21 518 221 -192 169 hstemhm
          0 77 -63 19 callsubr
          152 81 hintmask 1110100011000000
          205 688 rmoveto
          25 -33 14 -23 vhcurveto
          hintmask 1101100011000000
          -14 0 -13 -10 -2 hvcurveto
          -2 -16 -2 -15 -7 -15 rrcurveto
          -17 -35 -18 -37 -41 vvcurveto
          hintmask 1110100011000000
          -16 3 -23 22 5 4 2 4 3 vhcurveto
          31 32 50 98 46 vvcurveto
          hintmask 1110001001000000
          -38 callsubr
          hintmask 1110010001000000
          12 100 21 75 76 vvcurveto
          -86 callgsubr
          vvcurveto
          hintmask 1110000101000000
          -74 callsubr
          hintmask 1101001001000000
          -97 callgsubr
          198 466 rmoveto
          28 -22 31 -31 -10 -8 -5 -11 -2 vhcurveto
          -4 -21 -4 -23 -21 vvcurveto
          -18 11 -70 21 27 22 87 23 vhcurveto
          -35 -582 rmoveto
          7 -2 6 -8 -9 -18 -8 -3 -9 vhcurveto
          17 106 12 108 10 107 rrcurveto
          1 8 0 8 8 vvcurveto
          22 -17 36 -26 -12 -1 -12 -9 -1 vhcurveto
          -4 -40 -2 -40 -5 -41 -11 -98 -15 -97 -23 -96 -96 -40 -101 -52 -71 -78 rrcurveto
          hintmask 1110100011000000
          -9 -10 -3 -11 -13 vvcurveto
          -13 4 -14 4 -13 vhcurveto
          22 -69 27 -72 51 -54 rrcurveto
          -17 15 20 -12 24 hhcurveto
          33 23 22 29 13 hvcurveto
          45 97 29 107 22 104 27 10 15 14 7 28 rrcurveto
          6 23 16 -44 callsubr
        </CharString>
        <CharString name="imacron">
          -107 9 -21 533 -14 callsubr
          -32 249 -203 -39 callsubr
          hintmask 11000010
          240 179 rmoveto
          -101 callsubr
          hintmask 11000100
          -66 callsubr
          hintmask 11000001
          -74 callsubr
          hintmask 11000010
          -97 callgsubr
          -117 347 rmoveto
          hintmask 10011000
          -70 callgsubr
          hintmask 11001000
          -13 callgsubr
          hintmask 10101000
          -81 callgsubr
        </CharString>
        <CharString name="iogonek">
          -107 -3 callsubr
          611 221 hstemhm
          23 69 -60 208 -194 92 -51 118 hintmask 01110000
          26 -155 -82 callsubr
          hintmask 10110000
          -60 callsubr
          33 15 57 26 19 vhcurveto
          hintmask 10101000
          67 49 40 72 69 vvcurveto
          -101 callsubr
          hintmask 10100100
          -21 callsubr
          -74 callsubr
          hintmask 10101000
          -6 -39 -7 -39 -40 vvcurveto
          -36 6 -34 13 -33 vhcurveto
          6 -17 9 -24 13 -18 rrcurveto
          hintmask 10110000
          -31 -22 -25 -77 -47 -36 callgsubr
          hintmask 10100010
          179 843 -67 callgsubr
          endchar
        </CharString>
        <CharString name="itilde">
          -107 9 -21 509 79 -20 20 -20 77 hstemhm
          14 -39 callsubr
          hintmask 11000100
          240 179 rmoveto
          -101 callsubr
          hintmask 11001000
          -66 callsubr
          hintmask 11000010
          -74 callsubr
          hintmask 10100100
          -97 callgsubr
          -105 397 rmoveto
          hintmask 10011000
          -72 callgsubr
          hintmask 10101000
          -75 callsubr
        </CharString>
        <CharString name="j">
          -163 -433 163 805 169 hstem
          -240 77 280 81 vstem
          198 645 rmoveto
          28 -22 31 -31 -10 -8 -5 -11 -2 vhcurveto
          -4 -21 -4 -23 -21 vvcurveto
          -18 11 -70 21 27 22 87 23 vhcurveto
          -35 -582 -92 callsubr
          15 14 7 28 rrcurveto
          6 23 16 -44 callsubr
        </CharString>
        <CharString name="jcircumflex">
          -163 -433 163 776 198 hstem
          -240 77 vstem
          163 63 -92 callsubr
          14 14 8 28 rrcurveto
          5 23 17 -79 callsubr
          253 608 rmoveto
          -103 callgsubr
        </CharString>
        <CharString name="k">
          -5 14 -21 27 -21 793 -20 hstemhm
          19 89 hintmask 01110000
          -78 callgsubr
          hintmask 10110000
          -78 callsubr
          -76 27 rmoveto
          -28 -37 -36 -33 -45 -14 30 34 37 31 42 19 rrcurveto
          endchar
        </CharString>
        <CharString name="kcommaaccent">
          -5 -18 callsubr
          94 -21 27 -21 793 -20 hstemhm
          19 89 -13 16 callgsubr
          hintmask 10111010
          -78 callgsubr
          hintmask 11010100
          -78 callsubr
          -76 27 rmoveto
          -28 -37 -36 -33 -45 -14 30 34 37 31 42 19 rrcurveto
          -161 -592 -74 callgsubr
          vhcurveto
          hintmask 10111010
          -31 callsubr
          hintmask 10110100
          -48 callgsubr
        </CharString>
        <CharString name="kgreenlandic">
          -5 14 -21 27 -21 478 -20 hstemhm
          19 89 -58 73 hintmask 01101000
          119 323 rmoveto
          2 13 2 12 13 vvcurveto
          33 -17 45 -24 24 vhcurveto
          6 -5 -9 8 -8 hhcurveto
          -9 -1 -10 -6 -49 -3 -36 -6 -46 hvcurveto
          -7 -58 0 -24 -5 -61 rrcurveto
          hintmask 01110000
          -2 -26 -8 -25 -26 vvcurveto
          -19 14 -57 8 -17 vhcurveto
          -12 6 9 -6 14 hhcurveto
          22 16 10 23 5 -1 5 -1 4 hvcurveto
          -5 30 -2 30 31 vvcurveto
          25 vlineto
          33 -49 32 -51 41 -43 rrcurveto
          hintmask 10110000
          -78 callsubr
          56 -25 55 -63 -56 -44 -59 -49 -25 vhcurveto
          137 24 rmoveto
          -28 -37 -36 -33 -45 -14 13 30 35 46 61 8 rrcurveto
          endchar
        </CharString>
        <CharString name="l">
          -106 13 -21 755 6 callgsubr
          hintmask 11100000
          241 235 -84 callsubr
          hintmask 11010000
          -99 callsubr
          hintmask 11100000
          -88 callsubr
          9 41 28 vvcurveto
          endchar
        </CharString>
        <CharString name="lacute">
          -106 13 -21 982 6 callgsubr
          -58 164 hintmask 11101000
          241 235 -84 callsubr
          hintmask 11010000
          -99 callsubr
          hintmask 11101000
          -88 callsubr
          9 41 28 vvcurveto
          -69 669 rmoveto
          -105 callsubr
        </CharString>
        <CharString name="lcaron">
          -84 13 -21 498 210 47 6 callgsubr
          55 85 hintmask 11110100
          241 235 -84 callsubr
          hintmask 11101100
          -99 callsubr
          hintmask 11110100
          -88 callsubr
          9 41 28 vvcurveto
          -18 269 -37 callgsubr
        </CharString>
        <CharString name="lcommaaccent">
          -106 -18 callsubr
          0 72 755 6 callgsubr
          hintmask 10110000
          241 235 -84 callsubr
          hintmask 10101000
          -99 callsubr
          hintmask 01110000
          -88 callsubr
          9 41 28 vvcurveto
          -206 -480 rmoveto
          hintmask 10110000
          -67 callsubr
        </CharString>
        <CharString name="ldotaccent">
          -35 13 -21 259 155 341 6 callgsubr
          12 107 hintmask 11110100
          239 207 rmoveto
          2 0 9 -6 -6 -6 -15 -6 -5 vhcurveto
          -9 -11 -25 -37 -27 -24 rrcurveto
          -4 -4 -21 -8 -4 hhcurveto
          -9 -5 14 15 171 31 166 27 168 hvcurveto
          hintmask 11101100
          -99 callsubr
          hintmask 11110100
          -88 callsubr
          7 13 28 vvcurveto
          -4 44 -37 callsubr
        </CharString>
        <CharString name="less">
          294 -66 callgsubr
          endchar
        </CharString>
        <CharString name="lessequal">
          24 72 -55 -21 hstemhm
          hintmask 01000000
          284 -66 callgsubr
          38 -345 -51 callgsubr
          hvcurveto
          hintmask 10000000
          -29 -27 -60 callgsubr
          hhcurveto
          hintmask 01000000
          60 35 -6 47 hhcurveto
          endchar
        </CharString>
        <CharString name="logicalnot">
          167 224 -72 72 5 -20 hstemhm
          hintmask 01000000
          372 371 rmoveto
          19 -6 -26 4 -9 hhcurveto
          -17 4 -1 -2 -126 hvcurveto
          hintmask 00100000
          1 -25 -20 4 -81 hhcurveto
          -18 -7 -13 -18 hvcurveto
          hintmask 01000000
          -16 5 -30 29 vhcurveto
          18 49 2 38 hhcurveto
          49 30 -4 -2 40 hvcurveto
          -2 -19 2 -17 -9 -17 rrcurveto
          -1 -2 0 -3 -2 vvcurveto
          hintmask 10000000
          -27 36 -61 21 10 14 7 27 6 -1 8 -2 9 vhcurveto
          1 83 8 20 19 vvcurveto
          7 -1 7 -3 11 vhcurveto
          endchar
        </CharString>
        <CharString name="lslash">
          -106 13 -21 755 -20 hstemhm
          -20 132 -132 213 -156 75 -20 81 hintmask 11001000
          241 235 rmoveto
          2 0 9 -6 -6 -7 -14 -7 -4 vhcurveto
          -16 -28 -32 -37 -33 -41 rrcurveto
          -4 -4 -3 -2 -4 hhcurveto
          -9 -5 14 15 56 3 55 5 56 hvcurveto
          hintmask 11010000
          65 27 8 6 28 vvcurveto
          24 -18 23 -10 vhcurveto
          -7 -1 -6 -14 -2 -6 -21 -12 rcurveline
          11 88 16 87 14 88 rrcurveto
          hintmask 11000100
          2 10 1 9 10 vvcurveto
          41 -21 20 -39 8 vhcurveto
          1 -4 -4 1 -5 hhcurveto
          -8 -5 -3 -9 hvcurveto
          -10 5 -10 -10 vvcurveto
          -37 -38 -100 -13 -41 vhcurveto
          hintmask 11001000
          8 callsubr
          16 callsubr
          -14 10 -6 13 vhcurveto
          -7 -49 -9 -49 -6 -49 -19 -9 -17 -8 -8 -4 rrcurveto
          hintmask 11100000
          -4 -2 -10 -10 -19 vvcurveto
          -21 9 -12 9 8 11 7 7 13 vhcurveto
          -2 -18 0 -19 -18 -82 callgsubr
          9 41 28 vvcurveto
          endchar
        </CharString>
        <CharString name="m">
          169 15 -21 446 -20 hstemhm
          22 98 219 76 -76 177 hintmask 11101000
          516 179 rmoveto
          10 -2 52 -12 vhcurveto
          hintmask 11110000
          -17 -52 -101 -18 hhcurveto
          -5 -1 10 5 hvcurveto
          2 0 3 2 vvcurveto
          4 43 2 73 43 vvcurveto
          38 -4 47 -37 19 vhcurveto
          5 -10 -23 10 -10 hhcurveto
          -15 -10 -10 -11 -8 hvcurveto
          -14 -15 -14 -15 -12 -17 rrcurveto
          33 -7 -29 27 -34 -51 -9 -94 -27 hhcurveto
          -4 0 5 3 12 -6 63 -17 -18 -11 -93 -12 -2 hvcurveto
          -6 -47 -15 -77 -48 vvcurveto
          -40 26 -100 52 16 3 17 13 1 vhcurveto
          6 90 21 117 35 84 rrcurveto
          2 1 3 8 3 hhcurveto
          3 0 -6 -2 -1 0 -2 -1 -6 hvcurveto
          -9 -59 -20 -89 -59 vvcurveto
          -43 17 -23 34 -25 vhcurveto
          -3 5 6 -5 7 hhcurveto
          13 5 25 10 3 hvcurveto
          24 87 28 116 32 84 rrcurveto
          3 1 5 13 3 hhcurveto
          2 0 -11 -1 hvcurveto
          -59 -8 -89 -59 vvcurveto
          -33 2 -29 17 -27 vhcurveto
          10 -16 30 -21 15 -8 rrcurveto
          -1 4 3 -2 4 hhcurveto
          16 15 19 14 10 hvcurveto
          hintmask 11101000
          31 43 20 50 59 vvcurveto
          endchar
        </CharString>
        <CharString name="macron">
          535 -14 callsubr
          105 249 hintmask 00110000
          260 540 rmoveto
          -70 callgsubr
          hintmask 10010000
          -13 callgsubr
          hintmask 01010000
          -81 callgsubr
        </CharString>
        <CharString name="micro">
          -92 callgsubr
        </CharString>
        <CharString name="minus">
          274 72 -55 -21 81 -20 hstemhm
          hintmask 01100000
          339 270 -51 callgsubr
          hvcurveto
          hintmask 10000000
          -29 -44 2 2 -81 hvcurveto
          hintmask 01100000
          1 -25 -31 4 -81 hhcurveto
          -18 -7 -12 -17 hvcurveto
          hintmask 10000000
          -16 5 -32 29 vhcurveto
          18 60 2 38 hhcurveto
          hintmask 01100000
          60 52 -6 47 hhcurveto
          endchar
        </CharString>
        <CharString name="mu">
          -92 callgsubr
        </CharString>
        <CharString name="multiply">
          178 -21 285 -20 hstem
          298 202 rmoveto
          -8 13 12 -5 11 hhcurveto
          13 22 13 22 12 -30 19 -79 58 hvcurveto
          65 48 44 25 19 vvcurveto
          30 -27 7 -6 -13 -8 -8 -3 -4 vhcurveto
          -40 -23 -34 -27 -32 -26 -22 18 -31 28 -46 33 rrcurveto
          5 -7 -7 1 -7 hhcurveto
          -15 -30 -15 -18 -8 45 -40 71 -48 hvcurveto
          -27 -26 -23 -22 -22 -15 rrcurveto
          -14 -6 -11 -29 -24 vvcurveto
          -17 6 -15 16 11 12 6 25 15 vhcurveto
          27 32 32 28 30 25 33 -26 28 -25 29 -20 rrcurveto
          endchar
        </CharString>
        <CharString name="n">
          7 callgsubr
          453 -20 21 -20 hstemhm
          38 236 hintmask 01011000
          351 222 rmoveto
          6 -2 8 -7 vhcurveto
          -23 -44 -80 -18 hhcurveto
          -4 0 6 2 2 1 10 1 9 hvcurveto
          5 44 3 25 6 38 rrcurveto
          3 17 2 17 18 vvcurveto
          36 -8 38 -35 18 vhcurveto
          7 -12 -13 4 -14 -69 -15 -129 -17 hhcurveto
          -5 -1 8 3 hvcurveto
          -2 19 -1 24 21 vvcurveto
          hintmask 01101000
          8 -3 45 -14 -20 -6 -126 -13 -1 vhcurveto
          -3 -59 -11 -58 -60 vvcurveto
          -46 18 -49 36 -31 vhcurveto
          -4 5 7 -7 8 hhcurveto
          11 2 17 8 hvcurveto
          9 110 9 107 56 98 rrcurveto
          2 1 4 6 3 hhcurveto
          3 0 -7 -2 -3 -1 -9 -1 -6 hvcurveto
          -7 -49 -10 -50 -9 -49 rrcurveto
          -2 -12 -1 -12 -13 vvcurveto
          -18 3 -17 6 -17 vhcurveto
          11 -30 19 -29 20 -24 rrcurveto
          hintmask 10011000
          -72 callsubr
          endchar
        </CharString>
        <CharString name="nacute">
          7 callgsubr
          492 -20 216 -20 hstemhm
          38 236 -137 164 hintmask 01111000
          -104 callsubr
          hintmask 10110100
          -72 callsubr
          -157 389 rmoveto
          -105 callsubr
        </CharString>
        <CharString name="napostrophe">
          7 callgsubr
          528 216 hstemhm
          -16 90 -74 74 -36 236 hintmask 01100100
          -104 callsubr
          hintmask 10101000
          -72 callsubr
          -366 326 -63 callgsubr
          vvcurveto
          hintmask 01110000
          -22 callsubr
        </CharString>
        <CharString name="nbspace">
          -145 endchar
        </CharString>
        <CharString name="ncaron">
          7 callgsubr
          492 -9 callsubr
          38 236 hintmask 01101000
          -104 callsubr
          hintmask 10011000
          -72 callsubr
          -324 461 rmoveto
          hintmask 01101000
          -98 callsubr
          hintmask 01011000
          -32 callgsubr
        </CharString>
        <CharString name="ncommaaccent">
          4 -18 callsubr
          81 -21 34 -21 453 -20 21 -20 hstemhm
          38 236 -204 16 callgsubr
          hintmask 10101100
          351 222 rmoveto
          6 -2 8 -7 vhcurveto
          -23 -44 -80 -18 hhcurveto
          -4 0 6 2 2 1 10 1 9 hvcurveto
          5 44 3 25 6 38 rrcurveto
          3 17 2 17 18 vvcurveto
          36 -8 38 -35 18 vhcurveto
          7 -12 -13 4 -14 -69 -15 -129 -17 hhcurveto
          -5 -1 8 3 hvcurveto
          -2 19 -1 24 21 vvcurveto
          hintmask 10110100
          8 -3 45 -14 -20 -6 -126 -13 -1 vhcurveto
          -3 -59 -11 -58 -60 vvcurveto
          -46 18 -49 36 -31 vhcurveto
          -4 5 7 -7 8 hhcurveto
          11 2 17 8 hvcurveto
          9 110 9 107 56 98 rrcurveto
          2 1 4 6 3 hhcurveto
          3 0 -7 -2 -3 -1 -9 -1 -6 hvcurveto
          -7 -49 -10 -50 -9 -49 rrcurveto
          -2 -12 -1 -12 -13 vvcurveto
          -18 3 -17 6 -17 vhcurveto
          11 -30 19 -29 20 -24 rrcurveto
          hintmask 11001010
          -72 callsubr
          -281 -467 -74 callgsubr
          vhcurveto
          hintmask 10101001
          -31 callsubr
          hintmask 10101010
          -48 callgsubr
        </CharString>
        <CharString name="nine">
          25 -4 144 578 -20 hstem
          77 59 vstem
          358 450 rmoveto
          92 -15 109 -82 56 vhcurveto
          7 -9 -11 4 -12 hhcurveto
          -16 -13 -7 -9 -12 hvcurveto
          -57 -46 -48 -64 -28 -68 rrcurveto
          -11 -27 -5 -29 -30 vvcurveto
          -63 23 -82 65 -24 vhcurveto
          -3 8 9 -3 10 45 22 55 10 hhcurveto
          4 0 -6 -2 -39 -38 -131 -50 -10 -1 8 8 23 6 22 2 23 hvcurveto
          -13 -16 -7 -11 -20 -7 rrcurveto
          -17 -5 -10 -10 -18 vvcurveto
          -33 18 -72 16 -28 vhcurveto
          -17 9 17 -11 20 hhcurveto
          20 16 11 15 12 hvcurveto
          97 121 56 152 155 vvcurveto
          -93 95 rmoveto
          -31 -52 -42 -72 -60 -21 rrcurveto
          -2 -6 -6 -2 -3 hhcurveto
          -1 -1 1 1 4 3 6 1 3 hvcurveto
          28 68 38 94 54 51 rrcurveto
          3 3 5 4 5 hhcurveto
          16 -4 -73 -13 1 hvcurveto
          endchar
        </CharString>
        <CharString name="notequal">
          49 -21 176 77 53 77 132 -20 hstem
          321 509 rmoveto
          17 -5 -9 17 -7 hhcurveto
          -12 -65 -125 -13 -7 hvcurveto
          -16 -61 0 6 -87 hvcurveto
          -18 -8 -13 17 callsubr
          7 13 63 0 44 hhcurveto
          -8 -17 -9 -18 -8 -20 rrcurveto
          1 -21 -28 1 -40 hhcurveto
          -18 -8 -13 -17 -16 6 -31 29 9 20 0 1 23 hvcurveto
          -23 -63 rlineto
          -3 -9 -1 16 callsubr
          -6 16 -85 30 10 -2 11 9 1 vhcurveto
          10 60 15 52 16 46 rrcurveto
          -1 58 50 -5 46 hhcurveto
          25 12 10 16 5 -9 41 -21 -27 -39 1 2 -68 hvcurveto
          9 21 9 19 9 18 rrcurveto
          -1 36 35 -1 40 hhcurveto
          11 4 6 10 4 0 51 -43 3 hvcurveto
          -44 hlineto
          17 29 23 34 17 vvcurveto
          10 -4 8 -2 6 vhcurveto
          endchar
        </CharString>
        <CharString name="ntilde">
          7 callgsubr
          508 79 -20 20 -20 77 hstemhm
          40 234 hintmask 01100100
          -104 callsubr
          hintmask 10010100
          -72 callsubr
          -126 358 rmoveto
          hintmask 01001100
          -72 callgsubr
          hintmask 01010100
          -75 callsubr
        </CharString>
        <CharString name="numbersign">
          117 45 -21 212 72 -60 75 111 65 -65 202 hstemhm
          hintmask 10110000
          244 165 rmoveto
          -1 -9 -9 -43 3 -11 rrcurveto
          -12 5 34 -38 11 hhcurveto
          6 13 5 4 1 hvcurveto
          3 49 2 30 15 78 2 12 2 12 2 11 rrcurveto
          43 -2 60 -13 30 vvcurveto
          11 -13 44 -18 -14 -20 -6 -4 -26 vhcurveto
          10 50 8 36 9 35 rrcurveto
          42 -2 48 0 23 vvcurveto
          8 1 36 -21 -17 -18 -2 -2 -19 vhcurveto
          4 12 3 11 4 14 rrcurveto
          hintmask 11001000
          84 16 -6 20 -23 hhcurveto
          -12 -42 -3 -37 hvcurveto
          6 1 -10 -42 -15 -64 -77 -2 rcurveline
          3 10 3 11 4 12 rrcurveto
          84 16 -6 20 -23 hhcurveto
          -12 -44 -6 -14 -3 hvcurveto
          -2 -12 9 -19 -9 vvcurveto
          -2 -7 -7 -28 -10 -42 rrcurveto
          1 -23 -20 1 -33 hhcurveto
          -5 -21 14 callsubr
          9 -1 28 2 27 2 -9 -38 -9 -43 -9 -43 rrcurveto
          1 -29 -31 3 -28 hhcurveto
          -4 -10 -23 -25 -2 10 -22 22 17 21 1 3 19 hvcurveto
          -7 -37 -7 -35 -4 -30 -1 -9 -1 -37 3 -11 rrcurveto
          -12 5 38 -45 11 hhcurveto
          2 callgsubr
          4 1 hvcurveto
          3 49 2 30 15 78 4 20 3 19 4 17 75 3 rcurveline
          -6 -29 -5 -28 -4 -28 rrcurveto
          -23 266 rmoveto
          78 2 -9 -39 -10 -42 -10 -45 rlinecurve
          -76 -2 10 48 7 37 10 41 rlinecurve
          endchar
        </CharString>
        <CharString name="o">
          -33 callsubr
          hstem
          8 callgsubr
          vstem
          -106 callsubr
          endchar
        </CharString>
        <CharString name="oacute">
          -33 callsubr
          234 -20 hstemhm
          18 73 52 164 -133 83 hintmask 11110100
          -106 callsubr
          26 320 rmoveto
          hintmask 11111000
          -105 callsubr
        </CharString>
        <CharString name="obreve">
          -33 callsubr
          48 20 callsubr
          8 callgsubr
          hintmask 11011100
          -106 callsubr
          -159 372 -77 callgsubr
          hintmask 11101100
          -52 callsubr
        </CharString>
        <CharString name="ocircumflex">
          -33 callsubr
          38 198 hstem
          8 callgsubr
          vstem
          -106 callsubr
          118 194 rmoveto
          -103 callgsubr
        </CharString>
        <CharString name="odieresis">
          -33 callsubr
          68 -16 callgsubr
          18 73 -54 98 39 83 -83 122 hintmask 11101010
          -106 callsubr
          119 306 rmoveto
          -26 callsubr
          -46 -13 -42 -25 -29 23 -24 29 hvcurveto
          hintmask 11010101
          37 22 30 32 6 -8 callgsubr
          -161 1 rmoveto
          -51 callsubr
          hvcurveto
          hintmask 11100110
          -62 callgsubr
          vhcurveto
          endchar
        </CharString>
        <CharString name="oe">
          171 -20 104 -74 -21 181 83 -83 220 3 64 hstemhm
          18 73 -73 225 hintmask 10011010
          498 -80 callsubr
          -21 -3 -40 -15 -1 hvcurveto
          -8 -9 -8 -11 -9 -12 -4 29 -8 28 -10 27 rrcurveto
          41 -16 -36 29 -45 -32 2 -21 -16 hhcurveto
          -12 -2 -2 -13 -5 hvcurveto
          -24 -69 -25 -89 -74 vvcurveto
          -62 14 -81 51 -42 vhcurveto
          hintmask 01101100
          -10 12 14 -5 16 hhcurveto
          25 22 13 19 15 hvcurveto
          11 14 9 16 9 16 rrcurveto
          hintmask 10101100
          -52 22 33 -35 73 hhcurveto
          101 53 48 104 hvcurveto
          -324 169 rmoveto
          -75 -20 -79 -62 -48 vhcurveto
          -1 17 0 16 17 vvcurveto
          70 13 93 27 64 vhcurveto
          8 4 6 9 10 hhcurveto
          24 -1 -74 -18 hvcurveto
          240 47 rmoveto
          -52 callgsubr
        </CharString>
        <CharString name="ogonek">
          -3 callsubr
          125 -20 hstemhm
          60 69 -69 117 hintmask 01110000
          63 -155 -82 callsubr
          hintmask 10110000
          -60 callsubr
          hintmask 10101000
          43 48 70 17 vvcurveto
          10 -14 0 -30 -37 -36 -98 -55 -9 1 -7 2 -6 vhcurveto
          endchar
        </CharString>
        <CharString name="ograve">
          -33 callsubr
          38 198 hstem
          8 callgsubr
          vstem
          -106 callsubr
          -77 252 -96 callgsubr
        </CharString>
        <CharString name="ohungarumlaut">
          -33 callsubr
          38 186 11 -20 hstemhm
          8 callgsubr
          -67 147 hintmask 11101100
          -106 callsubr
          -75 315 -45 callgsubr
          hintmask 11011010
          20 callgsubr
          vhcurveto
          -58 callgsubr
          hintmask 11101010
          -54 callsubr
        </CharString>
        <CharString name="omacron">
          -33 callsubr
          78 -14 callsubr
          18 73 -53 249 -113 83 hintmask 11100101
          -106 callsubr
          19 239 rmoveto
          hintmask 11001010
          -70 callgsubr
          hintmask 11100101
          -13 callgsubr
          hintmask 11010010
          -81 callgsubr
        </CharString>
        <CharString name="one">
          -142 25 -21 706 -20 hstem
          46 89 vstem
          193 584 rmoveto
          33 -6 59 -24 25 vhcurveto
          3 -3 -4 6 -5 hhcurveto
          -8 -7 -25 -6 -2 hvcurveto
          -47 -150 -41 -196 -158 vvcurveto
          -22 3 -23 6 -21 vhcurveto
          7 -27 8 -27 7 -27 rrcurveto
          -22 5 39 -2 17 hhcurveto
          9 6 4 9 hvcurveto
          25 -18 32 31 vvcurveto
          117 41 175 15 146 vhcurveto
          1 14 1 13 14 vvcurveto
          endchar
        </CharString>
        <CharString name="onehalf">
          237 -11 -21 45 -21 280 158 287 -20 hstemhm
          47 76 -76 114 161 242 -228 207 -52 73 hintmask 1111101000000000
          564 318 rmoveto
          25 -11 30 -20 17 vhcurveto
          -9 7 -7 0 -13 15 rrcurveto
          15 -13 -28 3 -19 hhcurveto
          -19 -25 -3 -11 -15 hvcurveto
          -20 -13 -43 -24 -34 vvcurveto
          -16 7 -57 21 29 29 40 25 6 vhcurveto
          10 3 7 4 20 hhcurveto
          hintmask 1111100010000000
          13 34 2 -30 -59 -97 -82 -38 -35 hvcurveto
          hintmask 1111100100000000
          -21 -19 1 -34 -23 vvcurveto
          -25 5 -22 14 -23 vhcurveto
          -7 5 6 -2 10 hhcurveto
          39 128 38 47 12 -3 27 -16 hvcurveto
          -13 -24 -7 -14 hhcurveto
          -3 -21 0 5 2 3 3 1 2 hvcurveto
          41 42 25 31 25 52 rrcurveto
          hintmask 1111011000000000
          10 22 10 25 25 vvcurveto
          -138 365 -97 callsubr
          -265 -50 rmoveto
          23 -24 54 -19 -9 -5 -15 -4 -1 vhcurveto
          -32 -91 -24 -118 -95 vvcurveto
          -32 9 -30 11 -26 vhcurveto
          -14 5 23 -1 11 hhcurveto
          6 21 2 13 hvcurveto
          hintmask 1111101000000000
          16 -10 12 18 vvcurveto
          hintmask 1111011000000000
          104 38 91 93 vvcurveto
          endchar
        </CharString>
        <CharString name="onequarter">
          229 -11 -21 41 -21 124 100 505 -20 hstemhm
          47 76 -76 114 248 142 hintmask 10110110
          426 683 -97 callsubr
          -265 -50 rmoveto
          23 -24 54 -19 -9 -5 -15 -4 -1 vhcurveto
          -32 -91 -24 -118 -95 vvcurveto
          -32 9 -30 11 -26 vhcurveto
          -14 5 23 -1 11 hhcurveto
          6 21 2 13 hvcurveto
          hintmask 10111010
          16 -10 12 18 vvcurveto
          hintmask 01110110
          104 38 91 93 vvcurveto
          390 -443 -68 callgsubr
          -57 callgsubr
        </CharString>
        <CharString name="onesuperior">
          -190 258 -21 473 -20 hstemhm
          42 74 -74 116 hintmask 11100000
          158 625 rmoveto
          25 -23 60 -17 -6 -5 -17 -4 -2 vhcurveto
          -33 -101 -30 -131 -106 vvcurveto
          -35 10 -34 12 -29 vhcurveto
          -15 6 26 -1 12 hhcurveto
          7 14 2 6 hvcurveto
          17 -13 22 20 vvcurveto
          hintmask 11010000
          116 42 101 104 vvcurveto
          endchar
        </CharString>
        <CharString name="ordfeminine">
          -46 300 65 329 -20 hstemhm
          38 194 -194 227 -227 239 -99 130 hintmask 11001000
          276 624 rmoveto
          3 1 3 4 vvcurveto
          34 -55 26 -25 -7 -9 -1 -3 -4 vhcurveto
          -67 -51 -72 -79 -94 vvcurveto
          -13 31 -53 39 23 31 49 34 18 vhcurveto
          hintmask 11000100
          -1 -6 -1 16 callsubr
          -27 39 -32 19 24 48 92 26 4 -1 3 -3 -9 -31 -26 -19 -21 vhcurveto
          hintmask 11100000
          -11 -10 2 53 23 56 17 39 rlinecurve
          1 1 0 2 hvcurveto
          -28 -319 rmoveto
          hintmask 11010000
          10 7 5 11 32 -15 12 -21 hvcurveto
          -13 -59 -1 -27 -14 -8 1 -33 hhcurveto
          -16 -32 6 -22 -9 6 -40 21 hvcurveto
          -1 18 62 8 20 hhcurveto
          76 -3 rlineto
          5 7 0 1 6 hvcurveto
          -35 349 rmoveto
          0 0 1 1 vhcurveto
          -1 0 0 0 vhcurveto
          0 0 1 0 vhcurveto
          -27 -72 -42 -64 -52 -50 15 75 45 66 60 44 rrcurveto
          endchar
        </CharString>
        <CharString name="ordmasculine">
          -125 278 69 347 -20 hstemhm
          39 51 -51 178 -36 64 hintmask 11010000
          201 287 rmoveto
          10 1 6 4 11 vvcurveto
          34 -17 10 -20 -26 -33 2 -7 -80 vhcurveto
          -7 -1 -3 -5 -9 vvcurveto
          -9 7 -40 20 vhcurveto
          18 51 9 20 13 11 -1 12 hhcurveto
          5 7 0 1 6 hvcurveto
          hintmask 11101000
          44 315 rmoveto
          45 -33 47 -50 -33 -15 -15 -20 -11 vhcurveto
          -20 -34 -44 -94 -63 vvcurveto
          -20 22 -73 50 vhcurveto
          7 3 3 4 hhcurveto
          92 35 28 96 93 vvcurveto
          -72 43 rmoveto
          6 2 -28 -12 -66 -42 -67 -40 -44 hvcurveto
          -5 -3 rlineto
          -1 3 -3 4 4 vvcurveto
          69 30 86 43 47 vhcurveto
          3 4 2 4 4 hhcurveto
          endchar
        </CharString>
        <CharString name="oslash">
          -86 10 -21 409 59 hstem
          166 77 vstem
          -91 callgsubr
          endchar
        </CharString>
        <CharString name="oslashacute">
          -86 10 -21 409 59 234 -20 hstemhm
          92 164 -90 77 hintmask 11101000
          -91 callgsubr
          75 542 rmoveto
          hintmask 11110000
          -105 callsubr
        </CharString>
        <CharString name="otilde">
          -33 callsubr
          113 20 -20 77 hstemhm
          8 callgsubr
          hintmask 11101100
          -106 callsubr
          31 289 rmoveto
          hintmask 11011100
          -72 callgsubr
          hintmask 11101100
          -75 callsubr
        </CharString>
        <CharString name="p">
          -16 -190 -21 213 149 307 -20 hstem
          18 55 168 75 vstem
          316 252 rmoveto
          72 -60 97 -80 -19 -18 -5 -6 -18 vhcurveto
          16 -9 -9 32 -23 hhcurveto
          -9 -1 -11 -7 -20 -4 -19 -3 -21 hvcurveto
          -8 -56 -40 21 -20 -15 31 -5 -45 -6 -1 -6 -5 vvcurveto
          -13 -101 -14 -101 -102 vvcurveto
          2 callsubr
          -5 30 -1 31 30 vvcurveto
          91 15 92 20 89 vhcurveto
          10 45 27 50 45 18 rrcurveto
          4 9 10 3 -49 callgsubr
          endchar
        </CharString>
        <CharString name="paragraph">
          105 -85 -21 816 -20 hstemhm
          203 64 61 64 -31 62 hintmask 11110000
          353 -95 rmoveto
          14 39 14 52 -14 hvcurveto
          173 0 227 28 171 vhcurveto
          hintmask 11101000
          2 10 1 9 10 vvcurveto
          21 -2 18 -8 12 vhcurveto
          6 6 3 6 6 vvcurveto
          -79 callgsubr
          -61 -38 -67 -32 -55 -48 rrcurveto
          -28 -24 -18 -32 -38 vvcurveto
          -64 51 -42 56 -20 vhcurveto
          13 -5 17 -5 18 -5 rrcurveto
          -9 -95 -4 -142 -80 vvcurveto
          -54 -4 -14 29 -45 vhcurveto
          9 callsubr
          217 28 171 hvcurveto
          1 6 1 7 1 6 15 7 17 9 16 9 rrcurveto
          -3 -55 -17 -110 -15 vvcurveto
          -14 0 0 -1 -10 vhcurveto
          hintmask 11110000
          -12 -90 0 -188 -112 vvcurveto
          -20 -7 -67 32 vhcurveto
          endchar
        </CharString>
        <CharString name="parenleft">
          -3 -226 -21 1016 -20 hstem
          74 110 vstem
          262 -223 rmoveto
          -63 135 -15 142 79 vvcurveto
          195 33 205 136 142 vhcurveto
          15 15 6 57 11 vvcurveto
          7 -5 4 -10 -17 -38 -36 -10 -8 vhcurveto
          -146 -170 -76 -211 -184 vvcurveto
          -193 59 -190 92 -22 vhcurveto
          12 1 27 16 -2 7 rrcurveto
          endchar
        </CharString>
        <CharString name="parenright">
          -3 -226 -21 1017 -20 hstem
          164 110 vstem
          120 658 rmoveto
          52 -124 -8 -77 -73 vvcurveto
          -195 -49 -226 -136 -142 vhcurveto
          -15 -15 7 -30 3 -12 rrcurveto
          -7 2 3 -4 10 hhcurveto
          17 44 37 9 8 hvcurveto
          133 158 83 218 184 vvcurveto
          141 -20 140 -42 77 vhcurveto
          -9 40 -31 12 -21 1 -37 -11 -50 -99 8 -30 14 -4 9 18 25 14 rrcurveto
          endchar
        </CharString>
        <CharString name="partialdiff">
          -72 10 -21 653 73 hstem
          18 73 87 79 vstem
          178 436 rmoveto
          -38 callgsubr
          229 -30 214 -137 36 vhcurveto
          -54 -36 -31 -9 hvcurveto
          4 -41 8 -27 21 -12 rrcurveto
          -1 13 19 48 37 hhcurveto
          62 14 -144 -62 hvcurveto
          -4 -135 -31 callgsubr
        </CharString>
        <CharString name="percent">
          248 -21 callgsubr
          hintmask 1101101011100000
          274 533 -88 callgsubr
          255 98 rmoveto
          hintmask 1110011101100000
          -46 callgsubr
          180 257 27 149 vhcurveto
          1 5 0 1 -62 callsubr
          endchar
        </CharString>
        <CharString name="period">
          -167 -14 155 hstem
          35 107 vstem
          85 -5 callgsubr
          endchar
        </CharString>
        <CharString name="periodcentered">
          -167 261 155 hstem
          44 107 vstem
          94 261 -37 callsubr
        </CharString>
        <CharString name="perthousand">
          515 -21 callgsubr
          28 73 83 83 hintmask 1101101011111000
          274 533 -88 callgsubr
          255 98 rmoveto
          hintmask 1110011101111000
          -46 callgsubr
          183 257 24 149 vhcurveto
          1 3 0 3 -62 callsubr
          349 -47 -88 callgsubr
          endchar
        </CharString>
        <CharString name="plus">
          115 227 -68 68 -68 210 hstemhm
          161 81 -81 105 hintmask 01001000
          343 270 -51 callgsubr
          -24 -25 1 2 -58 hvcurveto
          10 44 13 29 21 vvcurveto
          hintmask 00110000
          -42 callgsubr
          hintmask 10010000
          -24 callgsubr
        </CharString>
        <CharString name="plusminus">
          24 72 -55 -21 95 227 -68 68 -68 210 hstemhm
          33 209 -81 81 -81 105 -105 218 hintmask 0110000010000000
          342 20 -51 callgsubr
          hvcurveto
          hintmask 1010010000000000
          -29 -44 -60 callgsubr
          hhcurveto
          hintmask 0101000100000000
          60 52 -6 47 hhcurveto
          1 250 -51 callgsubr
          -24 -25 1 2 -58 hvcurveto
          10 44 13 29 21 vvcurveto
          hintmask 1000101000000000
          -42 callgsubr
          hintmask 1010010000000000
          -24 callgsubr
        </CharString>
        <CharString name="q">
          -10 -286 -21 765 -20 hstem
          156 135 vstem
          322 329 rmoveto
          24 -18 15 -2 24 vhcurveto
          37 -4 -28 29 -39 hhcurveto
          -20 -21 -6 -12 -17 hvcurveto
          -93 -61 -62 -95 -113 vvcurveto
          -49 8 -56 40 -32 vhcurveto
          -9 12 13 -7 15 hhcurveto
          16 11 7 12 9 hvcurveto
          18 20 14 23 16 20 rrcurveto
          -16 -86 -18 -86 -88 vvcurveto
          -26 1 -26 4 -26 vhcurveto
          -34 4 10 -35 42 hhcurveto
          55 19 98 42 5 1 25 -8 -11 -23 -41 -6 -31 hvcurveto
          32 158 30 159 36 158 rrcurveto
          2 13 3 12 13 vvcurveto
          -82 24 rmoveto
          -6 -2 -5 -2 -5 vhcurveto
          -27 -68 -44 -81 -56 -49 rrcurveto
          -3 -3 -6 -6 -5 hhcurveto
          -6 0 8 4 2 0 5 1 7 hvcurveto
          14 87 39 77 83 41 rrcurveto
          1 2 2 1 2 hhcurveto
          6 2 -5 -5 hvcurveto
          endchar
        </CharString>
        <CharString name="question">
          -40 -24 155 384 187 -88 88 hstemhm
          75 113 -113 175 -7 68 hintmask 11010100
          151 280 rmoveto
          7 40 153 61 138 vvcurveto
          26 -5 27 -12 32 vhcurveto
          39 -15 -49 59 -45 hhcurveto
          -46 -115 -44 -89 -11 7 -43 8 hvcurveto
          hintmask 10110100
          61 0 99 58 hhcurveto
          26 59 -15 -36 -11 -6 -9 -3 -8 hvcurveto
          -47 -83 -112 -71 -106 vvcurveto
          -24 3 -50 40 vhcurveto
          hintmask 11001000
          51 81 66 21 10 -13 5 -7 -10 -44 -6 -17 -25 hvcurveto
          -15 -304 rmoveto
          hintmask 11010100
          36 16 33 35 62 -36 25 -23 -34 -14 -35 -35 -48 23 -37 32 hvcurveto
          endchar
        </CharString>
        <CharString name="questiondown">
          -40 -240 188 203 114 62 155 hstemhm
          0 212 -173 173 -101 101 -68 68 hintmask 11100010
          144 161 rmoveto
          hintmask 11110000
          -77 -144 -93 -103 vvcurveto
          -10 1 -9 3 -9 vhcurveto
          -25 9 62 -75 34 hhcurveto
          77 98 38 55 20 callgsubr
          hvcurveto
          4 -2 -34 73 -17 hhcurveto
          -29 -15 -48 -28 -47 hvcurveto
          -6 -8 -12 -2 -13 hhcurveto
          -11 -18 -2 11 10 4 12 4 9 hvcurveto
          38 83 91 85 104 vvcurveto
          31 -10 58 -32 vhcurveto
          hintmask 11101000
          -48 -83 -69 -25 -15 25 -5 23 hvcurveto
          hintmask 11100010
          25 26 6 4 6 hvcurveto
          19 321 rmoveto
          hintmask 11100100
          -5 callsubr
        </CharString>
        <CharString name="quotedbl">
          -98 444 250 -228 -21 hstemhm
          50 83 42 83 hintmask 10110000
          60 473 rmoveto
          -13 6 28 -16 6 hhcurveto
          21 12 91 68 64 0 27 -59 -13 -11 -3 -20 -58 4 -125 6 -15 hvcurveto
          118 4 rmoveto
          hintmask 01110000
          -20 6 21 -12 25 hhcurveto
          16 12 73 68 52 8 54 -67 -13 -16 -1 -14 hvcurveto
          -5 5 -28 -40 -25 0 -28 -24 vvcurveto
          -23 0 -19 3 -8 vhcurveto
          endchar
        </CharString>
        <CharString name="quotedblbase">
          -93 -112 204 hstemhm
          0 99 -80 80 16 107 -88 88 hintmask 11010000
          119 -98 17 callgsubr
          30 -44 40 -40 -13 -10 -12 callgsubr
          -118 11 rmoveto
          -7 2 11 -8 4 hhcurveto
          22 59 71 52 31 -32 29 -39 -13 -18 callgsubr
        </CharString>
        <CharString name="quotedblleft">
          -93 462 187 -187 207 -185 -21 hstemhm
          31 83 -83 99 24 85 -85 105 hintmask 01010100
          258 655 rmoveto
          9 -3 -9 5 -7 hhcurveto
          -27 -58 -82 -52 -38 45 -35 34 14 14 6 9 hvcurveto
          16 -22 22 19 vvcurveto
          hintmask 10001010
          28 20 54 29 vvcurveto
          4 0 3 -1 3 vhcurveto
          -133 -16 rmoveto
          7 -2 -3 3 -4 hhcurveto
          -27 -58 -67 -48 hvcurveto
          hintmask 00101100
          -38 46 -33 33 13 7 8 9 vhcurveto
          hintmask 10010100
          14 -16 10 29 33 12 38 23 vvcurveto
          5 0 4 -1 3 vhcurveto
          endchar
        </CharString>
        <CharString name="quotedblright">
          -93 461 204 hstemhm
          47 99 -80 80 17 107 -88 88 hintmask 11010000
          167 475 17 callgsubr
          31 -45 39 -40 -13 -9 -12 callgsubr
          -119 11 rmoveto
          -7 2 10 -8 4 hhcurveto
          23 59 71 52 32 -31 28 -39 -14 -18 callgsubr
        </CharString>
        <CharString name="quoteleft">
          -217 442 207 hstemhm
          31 84 -84 104 hintmask 11000000
          134 635 rmoveto
          9 -3 -8 5 -7 hhcurveto
          -27 -58 -83 -52 -37 45 -35 34 13 14 6 9 hvcurveto
          16 -22 23 19 vvcurveto
          hintmask 10100000
          28 20 53 28 vvcurveto
          4 0 4 -1 3 vhcurveto
          endchar
        </CharString>
        <CharString name="quoteright">
          -217 439 210 hstem
          61 85 vstem
          56 453 -37 callgsubr
        </CharString>
        <CharString name="quotesinglbase">
          -217 -118 210 hstem
          23 85 vstem
          19 -104 rmoveto
          -9 3 5 -5 6 hhcurveto
          26 49 79 52 38 -47 41 -37 -13 -11 -4 -8 hvcurveto
          -16 23 -19 -39 -28 -7 -33 -26 vvcurveto
          -9 1 -7 2 -7 vhcurveto
          endchar
        </CharString>
        <CharString name="quotesingle">
          -213 444 250 hstem
          50 93 vstem
          54 473 rmoveto
          -13 6 37 -16 6 hhcurveto
          25 15 102 70 53 1 25 -52 -13 -20 -4 -19 -1 hvcurveto
          -2 -24 -6 -79 -51 vvcurveto
          -21 1 -17 3 -6 vhcurveto
          endchar
        </CharString>
        <CharString name="r">
          -40 8 -21 469 -20 hstem
          0 222 vstem
          -102 callsubr
          -71 callgsubr
          endchar
        </CharString>
        <CharString name="racute">
          -40 8 -21 699 -20 hstemhm
          0 222 -107 164 hintmask 11100000
          -102 callsubr
          -71 callgsubr
          -154 424 rmoveto
          hintmask 11010000
          -30 -32 -27 -33 -44 vvcurveto
          -4 5 -13 12 26 89 67 13 10 vhcurveto
          12 10 10 16 20 vvcurveto
          7 -14 63 -37 vhcurveto
          hintmask 11100000
          -4 -2 -4 -5 hvcurveto
          -1 -19 -19 -8 -30 -34 rrcurveto
          endchar
        </CharString>
        <CharString name="rcaron">
          -40 8 -21 503 -9 callsubr
          0 222 hintmask 10110000
          -102 callsubr
          -71 callgsubr
          -301 496 rmoveto
          hintmask 11010000
          -98 callsubr
          hintmask 10110000
          -32 callgsubr
        </CharString>
        <CharString name="rcommaaccent">
          -40 -18 callsubr
          88 -21 469 -20 hstemhm
          0 222 -184 131 -95 95 -82 82 hintmask 11110000
          -102 callsubr
          hintmask 11100100
          -71 callgsubr
          hintmask 11101000
          -288 -437 -74 callgsubr
          vhcurveto
          hintmask 11100010
          -31 callsubr
          hintmask 11101000
          -48 callgsubr
        </CharString>
        <CharString name="registered">
          220 205 66 43 61 -41 41 -41 57 273 67 hstemhm
          46 62 115 48 98 43 77 74 hintmask 1100111110000000
          228 541 rmoveto
          -8 -58 0 -13 3 -71 rrcurveto
          -6 3 -18 -10 vhcurveto
          hintmask 1001111110000000
          -5 -17 16 -13 hhcurveto
          -5 -1 -7 -4 hvcurveto
          hintmask 1100111110000000
          -25 3 39 -41 38 hhcurveto
          14 1 35 18 1 hvcurveto
          -1 24 0 29 2 24 rrcurveto
          8 hlineto
          26 -15 0 -13 4 -27 rrcurveto
          hintmask 1010111110000000
          -13 2 5 -42 43 hhcurveto
          22 13 10 23 16 hvcurveto
          9 6 6 16 -6 -10 -22 -13 -9 hhcurveto
          -12 -1 -2 34 -9 hvcurveto
          -3 12 -6 20 -21 11 rrcurveto
          57 18 31 22 39 vvcurveto
          61 -56 24 -48 -37 -87 -40 -24 2 vhcurveto
          3 -26 30 12 9 1 rrcurveto
          141 10 rmoveto
          -34 -69 -25 -27 -9 vhcurveto
          27 0 14 1 29 vhcurveto
          3 9 25 6 7 hhcurveto
          14 40 1 -12 hvcurveto
          194 -5 rmoveto
          119 -90 66 -74 -110 -75 -63 -38 -42 vhcurveto
          1 -5 -3 3 -7 hhcurveto
          -12 -8 -9 -3 -2 hvcurveto
          -71 -84 -18 -61 -91 vvcurveto
          -99 85 -82 132 222 78 228 113 vhcurveto
          -74 20 rmoveto
          -142 -59 -153 -195 -71 -56 73 54 98 88 168 192 44 57 -56 -42 vhcurveto
          endchar
        </CharString>
        <CharString name="ring">
          485 77 179 -20 hstem
          103 65 118 70 vstem
          255 741 -77 callsubr
        </CharString>
        <CharString name="s">
          -10 callgsubr
          hstem
          -104 callgsubr
          endchar
        </CharString>
        <CharString name="sacute">
          -10 callgsubr
          234 -20 hstem
          174 164 vstem
          -104 callgsubr
          -91 233 rmoveto
          -105 callsubr
        </CharString>
        <CharString name="scaron">
          -10 callgsubr
          38 -9 callsubr
          hintmask 11010000
          -104 callgsubr
          -258 305 rmoveto
          hintmask 11100000
          -98 callsubr
          hintmask 11010000
          -32 callgsubr
        </CharString>
        <CharString name="scedilla">
          -25 -259 83 486 140 hstemhm
          15 250 -208 70 -70 208 hintmask 11001000
          199 -141 5 callgsubr
          -47 callsubr
          hintmask 11010000
          -2 callgsubr
          vvcurveto
          10 4 9 5 7 vhcurveto
          54 11 51 29 35 47 rrcurveto
          14 19 9 23 24 vvcurveto
          90 -107 38 -71 19 vhcurveto
          -4 2 -10 2 7 vvcurveto
          5 8 4 4 2 vhcurveto
          4 8 56 24 4 hhcurveto
          5 2 -3 -3 1 hvcurveto
          -24 10 22 -14 25 hhcurveto
          36 34 36 35 41 -68 28 -35 -12 -13 -2 -5 -11 hvcurveto
          -39 -18 -40 -18 -39 -20 -18 -9 -7 -18 -3 -19 rrcurveto
          -2 -16 -8 -15 -17 vvcurveto
          -23 13 -14 20 -10 vhcurveto
          48 -23 52 -15 47 -23 rrcurveto
          7 -3 11 -6 -9 vvcurveto
          -6 -8 -7 -6 -3 vhcurveto
          -22 -38 -44 -14 -44 hhcurveto
          -8 -16 0 11 15 34 28 17 10 hvcurveto
          5 3 10 5 5 vvcurveto
          3 -5 0 -2 -22 -32 -17 -12 -18 vhcurveto
          -20 -14 -10 -17 -2 -25 rrcurveto
          hintmask 11100000
          -1 -7 0 16 callsubr
          -43 16 -38 41 -8 vhcurveto
          -5 -11 -2 -14 -11 vvcurveto
          -15 callsubr
          endchar
        </CharString>
        <CharString name="scircumflex">
          -10 callgsubr
          38 198 hstem
          -104 callgsubr
          1 107 rmoveto
          -103 callgsubr
        </CharString>
        <CharString name="section">
          -7 -21 755 -20 hstem
          65 63 149 80 vstem
          327 652 rmoveto
          15 -29 33 -11 11 vhcurveto
          11 -9 -11 5 -15 hhcurveto
          -6 -7 -2 -2 -6 hvcurveto
          -36 -11 -132 -132 -80 vvcurveto
          -32 11 -23 25 -21 vhcurveto
          -21 -34 -15 -33 -27 vvcurveto
          -46 25 -28 53 -30 vhcurveto
          35 -20 57 -19 30 -22 rrcurveto
          5 -5 7 -5 -8 vvcurveto
          -12 -8 -11 -27 -15 vhcurveto
          -86 -47 -66 21 -15 -18 rrcurveto
          -9 -10 -4 -13 -13 vvcurveto
          -30 20 -27 31 55 74 8 62 82 vhcurveto
          18 13 15 27 23 vvcurveto
          29 -18 36 -18 23 vhcurveto
          -8 10 11 9 rlineto
          18 13 15 27 22 vvcurveto
          29 -18 37 -18 22 vhcurveto
          -29 38 -85 39 -44 25 rrcurveto
          -17 10 -18 12 22 vvcurveto
          41 48 37 28 22 vhcurveto
          1 2 2 1 3 hhcurveto
          3 2 -1 -3 hvcurveto
          -10 -25 -29 -24 vvcurveto
          -6 1 -8 8 7 7 6 4 5 vhcurveto
          31 26 38 42 30 28 rrcurveto
          5 5 4 5 7 vvcurveto
          -85 -373 rmoveto
          -9 -5 -8 -4 -9 -5 -20 11 -19 10 -14 8 rrcurveto
          -17 10 -18 13 21 vvcurveto
          19 9 17 14 16 vhcurveto
          35 -18 51 -17 28 -20 rrcurveto
          5 -5 7 -5 -8 vvcurveto
          -12 -8 -12 -27 -14 vhcurveto
          endchar
        </CharString>
        <CharString name="semicolon">
          -115 -88 -21 335 155 hstemhm
          40 102 -90 90 -67 107 hintmask 11001000
          125 226 -33 callgsubr
          -81 -174 rmoveto
          hintmask 11100000
          -2 -25 -2 -20 -18 vvcurveto
          -34 8 -64 23 22 40 116 23 5 vhcurveto
          2 11 2 10 12 vvcurveto
          70 -48 36 -30 vhcurveto
          hintmask 11010000
          -9 -3 -7 -7 hvcurveto
          -8 4 -8 -7 vvcurveto
          -17 -8 -17 -4 -46 vhcurveto
          endchar
        </CharString>
        <CharString name="seven">
          -3 23 -21 534 150 -129 129 -129 146 9 -20 hstemhm
          109 100 -100 126 hintmask 10010100
          379 630 rmoveto
          25 -41 48 -21 vhcurveto
          hintmask 11001100
          -12 -14 -16 -1 -26 hvcurveto
          -2 -45 -46 -3 -46 hhcurveto
          -23 -34 -4 23 -12 hvcurveto
          5 -2 -3 7 -6 hhcurveto
          -16 0 -57 -12 -23 7 -84 31 hvcurveto
          hintmask 10101010
          19 -8 21 29 14 14 -4 14 hhcurveto
          22 22 4 7 21 hvcurveto
          -44 -133 -64 -140 -143 vvcurveto
          -41 5 -48 14 -39 vhcurveto
          -11 4 9 -7 11 hhcurveto
          16 10 13 14 5 hvcurveto
          9 22 43 134 18 vvcurveto
          hintmask 11001100
          32 -26 4 21 vvcurveto
          14 118 254 16 36 vhcurveto
          7 17 5 12 14 14 rrcurveto
          7 6 3 7 10 vvcurveto
          endchar
        </CharString>
        <CharString name="six">
          63 12 -21 566 166 hstem
          390 334 rmoveto
          50 -37 64 -56 -16 -13 -6 -9 -13 vhcurveto
          -79 -57 -54 -94 -98 vvcurveto
          -15 1 -16 3 -15 vhcurveto
          -22 6 -5 26 19 6 1 5 5 vvcurveto
          15 132 43 122 90 100 rrcurveto
          -1 5 4 -1 4 hhcurveto
          50 21 62 42 27 -10 35 -33 -39 -46 -38 -29 -23 hvcurveto
          -93 -117 -52 -113 -152 vvcurveto
          -31 2 -30 4 -31 vhcurveto
          7 -57 15 -50 39 -44 7 -8 8 -10 9 -6 rrcurveto
          -10 14 24 -6 16 hhcurveto
          32 27 17 22 21 hvcurveto
          80 81 40 99 9 113 rrcurveto
          4 0 3 4 vvcurveto
          -87 -32 rmoveto
          -6 -2 -4 -3 -5 vhcurveto
          -27 -45 -66 -81 -49 -20 14 54 56 76 40 39 rrcurveto
          5 5 6 3 7 hhcurveto
          10 9 -6 -10 hvcurveto
          endchar
        </CharString>
        <CharString name="slash">
          147 -101 -21 921 -20 hstem
          487 758 rmoveto
          20 -6 -10 21 -9 hhcurveto
          -7 -4 -8 -4 -2 hvcurveto
          -138 -221 -213 -305 -90 -243 rrcurveto
          -5 -12 -3 -8 -10 vvcurveto
          -6 20 -104 39 13 -2 13 11 1 vhcurveto
          42 295 310 326 68 186 10 callsubr
          endchar
        </CharString>
        <CharString name="space">
          -145 endchar
        </CharString>
        <CharString name="sterling">
          36 -13 116 -98 -21 269 72 162 221 hstemhm
          26 72 -72 221 -199 93 hintmask 10110100
          247 154 rmoveto
          31 -12 35 -15 34 vhcurveto
          21 17 -1 11 hhcurveto
          34 -1 43 4 16 -8 9 -18 -29 -29 -3 -1 -31 hvcurveto
          hintmask 10110010
          -24 44 -22 35 14 vvcurveto
          55 72 109 46 3 2 -1 -4 vhcurveto
          hintmask 10110100
          -11 -17 -32 -27 vvcurveto
          -7 1 -9 9 24 107 112 26 29 -53 54 -30 -7 -8 -2 -2 -7 vhcurveto
          hintmask 10110010
          -110 -40 -125 -115 -117 vvcurveto
          -37 20 -37 25 -38 vhcurveto
          -16 -15 1 -9 hhcurveto
          hintmask 10110100
          -21 -6 -32 -5 -28 7 -8 18 25 44 5 1 17 hvcurveto
          18 -30 15 -29 7 -31 -1 -8 -6 -14 -7 -16 -37 11 -59 18 -7 -5 rrcurveto
          -17 -10 -27 -23 18 callsubr
          -39 74 hhcurveto
          24 29 21 27 25 hvcurveto
          hintmask 01111000
          -28 30 27 -23 46 79 37 156 -10 hhcurveto
          hintmask 10110100
          -18 -32 -45 -19 -42 hhcurveto
          -19 -12 1 3 -11 hvcurveto
          8 17 5 17 13 vvcurveto
          -127 -95 rmoveto
          hintmask 10111000
          -1 -21 17 17 10 19 -13 19 -15 hvcurveto
          -10 -6 -6 -6 -4 hhcurveto
          endchar
        </CharString>
        <CharString name="t">
          -78 -5 -21 680 -20 hstemhm
          54 87 -87 195 -142 88 hintmask 11001000
          -84 callgsubr
          endchar
        </CharString>
        <CharString name="tbar">
          -78 -5 -21 220 86 374 -20 hstemhm
          -14 249 -178 192 -142 88 hintmask 11100100
          276 412 rmoveto
          21 -6 19 -25 vhcurveto
          -22 -34 -4 -23 hhcurveto
          5 35 4 27 6 36 rrcurveto
          2 16 12 27 13 vvcurveto
          22 -48 30 -21 -11 -8 -5 -11 vhcurveto
          -7 2 -6 -6 vvcurveto
          -7 -1 -8 -1 -7 vhcurveto
          -10 -52 -10 -44 -9 -53 rrcurveto
          -46 -22 6 -28 hhcurveto
          -9 -6 -3 -10 -7 3 -6 2 -6 hvcurveto
          22 -54 24 -32 44 -1 -2 -18 -2 -20 -2 -19 rrcurveto
          1 -13 -14 1 -22 hhcurveto
          hintmask 11110000
          -14 -7 -5 -23 hvcurveto
          -8 vlineto
          -14 3 6 -36 14 hhcurveto
          17 14 0 1 14 hvcurveto
          hintmask 11101000
          -22 1 -20 2 -21 vhcurveto
          2 -27 12 -22 15 -21 rrcurveto
          -30 21 26 -58 43 hhcurveto
          53 20 89 40 11 -1 49 -16 hvcurveto
          -9 -61 -50 -12 hhcurveto
          -12 3 41 7 hvcurveto
          38 vlineto
          hintmask 11110000
          -70 callgsubr
          -22 -6 -17 -4 -19 -2 2 23 3 22 2 21 34 5 50 12 26 23 rrcurveto
          10 8 3 10 12 vvcurveto
          endchar
        </CharString>
        <CharString name="tcaron">
          -78 179 51 116 39 endchar
        </CharString>
        <CharString name="tcommaaccent">
          -78 -18 callsubr
          734 -20 hstemhm
          54 87 -87 195 -180 131 -93 93 hintmask 11000100
          -84 callgsubr
          hintmask 11001000
          -205 -649 rmoveto
          -67 callsubr
        </CharString>
        <CharString name="thorn">
          -16 -190 -21 213 149 596 -20 hstem
          18 56 18 81 68 75 vstem
          18 -61 rmoveto
          2 callsubr
          -2 13 -3 36 38 vvcurveto
          149 4 68 37 90 vhcurveto
          17 40 40 34 18 7 rrcurveto
          4 9 10 4 -49 callgsubr
          72 -60 97 -80 -13 -25 -7 -15 -22 vhcurveto
          17 85 25 89 12 74 rrcurveto
          -99 callsubr
          -4 -28 -6 -41 -6 -50 rrcurveto
          -5 -28 -24 -1 -14 vvcurveto
          -9 12 -7 10 -13 vhcurveto
          -10 -101 -9 -125 -131 vvcurveto
          endchar
        </CharString>
        <CharString name="three">
          13 6 -21 743 -20 hstemhm
          86 147 5 88 -88 102 hintmask 11101000
          340 184 rmoveto
          103 -107 68 17 vvcurveto
          hintmask 11110000
          17 93 78 98 vvcurveto
          26 -6 19 -17 19 vhcurveto
          -12 13 -7 17 -12 13 rrcurveto
          21 -21 -24 17 -31 hhcurveto
          -10 -10 0 -2 -10 hvcurveto
          8 -8 -5 12 -50 callsubr
          -1 -4 -6 1 -8 2 -5 hvcurveto
          -24 -6 -25 -8 -22 -9 -15 -7 -4 -7 -1 -16 rrcurveto
          -1 -16 -2 -16 -16 vvcurveto
          -21 4 -43 28 13 41 20 6 14 vhcurveto
          22 9 24 14 2 26 rrcurveto
          1 7 6 0 6 hhcurveto
          11 15 -1 -14 -4 -1 -8 -2 -4 hvcurveto
          -27 -66 -40 -45 -62 -33 rrcurveto
          -9 -5 -10 -2 -12 -25 1 -25 -25 vvcurveto
          -15 0 -16 1 -16 vhcurveto
          -6 1 1 -4 8 21 20 17 22 hhcurveto
          41 36 -39 -40 -52 -40 -25 -45 -16 hvcurveto
          -1 -3 -5 -2 -4 hhcurveto
          -2 -2 1 2 hvcurveto
          6 38 43 18 vvcurveto
          3 -2 1 -2 -2 -2 0 -1 -2 vhcurveto
          -33 -7 -33 -1 -33 -8 rrcurveto
          -16 -4 -13 -10 -18 -2 0 -2 -2 vvcurveto
          -64 4 -2 -101 85 hhcurveto
          9 7 1 2 10 hvcurveto
          74 16 61 33 35 70 rrcurveto
          hintmask 11101000
          12 24 8 26 27 vvcurveto
          endchar
        </CharString>
        <CharString name="threequarters">
          311 -11 -21 41 -21 124 100 66 94 345 -20 hstemhm
          44 211 -184 184 -86 86 236 142 hintmask 1011110010000000
          109 711 rmoveto
          -18 -2 -18 -7 -14 -5 -10 -4 -2 -4 -1 -10 rrcurveto
          -1 -10 -1 -9 -10 vvcurveto
          -12 3 -32 18 8 27 13 3 9 vhcurveto
          14 6 16 8 1 15 rrcurveto
          1 4 5 1 3 hhcurveto
          hintmask 1011100110000000
          7 10 0 -8 -33 -56 -42 -29 -14 hvcurveto
          hintmask 1011101010000000
          -6 -4 -7 -1 -7 -15 1 -18 -16 -9 0 -12 -10 vvcurveto
          -4 1 1 -2 5 14 12 10 15 hhcurveto
          hintmask 1011100110000000
          26 23 -20 -25 -30 -35 -21 -27 -2 0 0 2 hvcurveto
          3 24 27 10 vvcurveto
          2 -1 2 -5 -11 -34 -7 -5 -19 vhcurveto
          -14 -3 -5 -8 -12 vvcurveto
          -15 1 -90 55 51 72 31 42 22 vhcurveto
          9 15 5 15 16 62 -88 42 10 10 79 47 60 vvcurveto
          15 -8 12 -11 10 vhcurveto
          -7 9 -4 10 -7 8 rrcurveto
          12 -13 -34 11 -20 hhcurveto
          -6 -14 -2 -2 -13 hvcurveto
          399 -28 -97 callsubr
          125 -493 -68 callgsubr
          hintmask 0111110010000000
          -57 callgsubr
        </CharString>
        <CharString name="threesuperior">
          -79 224 105 381 -20 hstemhm
          37 223 -193 193 -84 84 hintmask 11100000
          109 706 rmoveto
          -20 -3 -20 -7 -16 -6 -11 -4 -2 -5 -1 -11 rrcurveto
          -1 -11 -1 -10 -11 vvcurveto
          -14 3 -35 20 9 30 14 4 10 vhcurveto
          16 6 17 9 1 17 rrcurveto
          1 5 5 1 4 hhcurveto
          hintmask 11001000
          8 11 0 -9 -36 -63 -47 -32 -16 hvcurveto
          hintmask 11010000
          -7 -4 -7 -1 -8 -17 1 -20 -17 -10 0 -14 -11 vvcurveto
          -4 1 1 -2 6 15 14 11 16 hhcurveto
          hintmask 11001000
          29 26 -23 -27 -34 -39 -23 -30 -2 -1 0 2 hvcurveto
          4 27 29 12 vvcurveto
          2 -1 2 -5 -13 -37 -8 -5 -22 vhcurveto
          -15 -4 -6 -8 -14 vvcurveto
          -17 1 -100 61 57 69 35 47 25 vhcurveto
          9 16 6 17 18 69 -87 46 11 12 77 52 66 vvcurveto
          17 -9 13 -12 12 vhcurveto
          -8 9 -4 12 -8 8 rrcurveto
          14 -15 -26 12 -22 hhcurveto
          -7 -16 -2 -2 -14 hvcurveto
          endchar
        </CharString>
        <CharString name="tilde">
          531 -21 60 20 -20 77 hstemhm
          hintmask 11000000
          277 590 rmoveto
          hintmask 10100000
          -72 callgsubr
          hintmask 11000000
          -75 callsubr
        </CharString>
        <CharString name="trademark">
          258 385 -21 251 80 -62 62 -47 47 hstemhm
          97 66 58 62 108 134 -46 130 hintmask 10101110
          158 375 rmoveto
          8 6 4 9 hvcurveto
          18 -9 17 17 vvcurveto
          68 8 61 15 64 vhcurveto
          34 1 63 28 36 vvcurveto
          6 -3 2 -4 vhcurveto
          -24 -17 -11 -47 hhcurveto
          -2 3 -17 13 -16 -16 rrcurveto
          1 -11 -16 1 -10 hhcurveto
          -21 -65 -6 -26 hvcurveto
          hintmask 11001110
          -13 6 -37 15 vhcurveto
          16 16 22 18 hhcurveto
          8 10 -1 -1 7 hvcurveto
          -20 -55 -9 -48 -58 -12 2 -13 -13 vvcurveto
          -40 37 -21 22 vhcurveto
          63 156 rmoveto
          -10 23 -13 12 11 5 15 7 3 vhcurveto
          hintmask 10011110
          19 9 15 99 26 hhcurveto
          5 -1 -9 -2 hvcurveto
          -8 -75 -14 -48 -16 -73 rrcurveto
          -2 -8 -3 -9 -8 vvcurveto
          -18 21 -30 17 16 8 21 11 2 vhcurveto
          6 22 5 22 5 21 8 35 18 89 22 24 rrcurveto
          -11 -65 -12 -55 -67 vvcurveto
          -11 2 -6 6 -6 vhcurveto
          -10 10 15 -11 13 hhcurveto
          16 0 13 8 1 hvcurveto
          2 14 1 15 1 14 9 66 11 47 30 60 rrcurveto
          hintmask 11001101
          -14 -73 -15 -71 -50 vvcurveto
          -27 9 -25 26 -9 vhcurveto
          57 1 38 103 52 vvcurveto
          9 -4 10 -4 -2 -5 -12 -6 -3 vhcurveto
          hintmask 11001110
          -19 -39 -14 -28 -33 -29 rrcurveto
          2 0 4 3 vvcurveto
          73 18 66 11 72 vhcurveto
          1 3 0 4 3 vvcurveto
          20 -20 8 -18 -21 -25 -39 -25 -14 vhcurveto
          16 -14 37 -19 -25 -14 -23 -12 -10 vhcurveto
          37 1 -14 23 -27 hhcurveto
          -54 -60 -117 -49 hvcurveto
          endchar
        </CharString>
        <CharString name="two">
          33 11 166 526 -20 hstem
          302 79 vstem
          381 526 rmoveto
          38 -16 48 -29 27 vhcurveto
          -14 12 -15 11 -14 12 rrcurveto
          18 -22 -26 11 -29 hhcurveto
          -27 -34 -11 -11 -25 hvcurveto
          2 -3 -3 2 -4 hhcurveto
          -8 -3 -9 -7 1 hvcurveto
          -37 -23 -36 -32 -46 vvcurveto
          -24 12 -76 30 10 9 5 6 8 vhcurveto
          34 26 24 33 10 43 rrcurveto
          17 4 10 7 18 hhcurveto
          3 12 0 -1 10 hvcurveto
          28 -3 43 2 -44 vvcurveto
          -7 -1 -7 -3 -7 vhcurveto
          -44 -121 -76 -90 -91 -88 rrcurveto
          -30 -29 2 -38 -38 vvcurveto
          -39 6 -35 21 -34 vhcurveto
          -12 8 9 -3 14 hhcurveto
          70 69 29 51 48 hvcurveto
          11 11 7 13 16 vvcurveto
          19 -3 27 -24 vhcurveto
          -19 -20 -5 -20 hhcurveto
          -6 -30 0 7 4 5 5 2 3 hvcurveto
          60 67 47 72 37 82 rrcurveto
          16 35 14 39 40 vvcurveto
          endchar
        </CharString>
        <CharString name="twosuperior">
          -68 241 126 171 167 hstemhm
          34 247 -232 200 -36 68 hintmask 11100000
          281 586 rmoveto
          hintmask 11010000
          26 -11 32 -21 18 vhcurveto
          -10 8 -7 0 -14 16 rrcurveto
          15 -13 -22 4 -20 hhcurveto
          -20 -26 -4 -11 -16 hvcurveto
          hintmask 11100000
          -21 -14 -46 -26 -35 vvcurveto
          -17 8 -60 22 31 31 50 25 6 vhcurveto
          12 3 7 4 21 hhcurveto
          hintmask 11001000
          15 35 2 -32 -62 -102 -106 -41 -37 hvcurveto
          hintmask 11010000
          -22 -19 1 -26 -25 vvcurveto
          -26 5 -24 15 -23 vhcurveto
          -8 6 6 -2 10 hhcurveto
          42 116 35 50 12 -2 29 -18 hvcurveto
          -13 -15 -8 -14 hhcurveto
          -4 -22 0 5 3 4 3 1 2 hvcurveto
          43 45 24 38 27 55 rrcurveto
          hintmask 11100000
          11 23 10 27 26 vvcurveto
          endchar
        </CharString>
        <CharString name="u">
          -59 callgsubr
          1 callsubr
          hintmask 10110000
          -107 callgsubr
          hintmask 01110000
          -85 callsubr
          endchar
        </CharString>
</ttFont>
